<?xml version="1.0" encoding="UTF-8"?>
<svg id="Camada_2" data-name="Camada 2" xmlns="http://www.w3.org/2000/svg" viewBox="0 0 3788.5 2125.69" fill="none">
  <defs>
    <style>
      .cls-1 {
        fill: #2e3552;
      }

      .cls-1, .cls-2, .cls-3, .cls-4, .cls-5, .cls-6, .cls-7, .cls-8, .cls-9, .cls-10, .cls-11, .cls-12, .cls-13, .cls-14, .cls-15, .cls-16, .cls-17, .cls-18, .cls-19, .cls-20, .cls-21, .cls-22, .cls-23 {
        stroke-width: 0px;
      }

      .cls-2 {
        fill: #2c3a64;
      }

      .cls-3 {
        fill: #ed985f;
      }

      .cls-4 {
        fill: #94b0ed;
      }

      .cls-5 {
        fill: #d2e0ff;
      }

      .cls-6 {
        fill: #163560;
      }

      .cls-7 {
        fill: #aec3ff;
      }

      .cls-8 {
        fill: #dfebfd;
      }

      .cls-9 {
        fill: #759be0;
      }

      .cls-10 {
        fill: #e06d20;
      }

      .cls-11 {
        fill: #2f539b;
      }

      .cls-12 {
        fill: #fff;
      }

      .cls-13 {
        fill: #ebf3fa;
      }

      .cls-14 {
        fill: #c0d1ff;
      }

      .cls-15 {
        fill: #143d7a;
      }

      .cls-16 {
        fill: #233862;
      }

      .cls-17 {
        fill: #ffb27d;
      }

      .cls-18 {
        fill: #99b6e8;
      }

      .cls-19 {
        fill: #2b478b;
      }

      .cls-20 {
        fill: #f99746;
      }

      .cls-21 {
        fill: #86a7e9;
      }

      .cls-22 {
        fill: #ed975d;
      }

      .cls-23 {
        fill: #ed7d2b;
      }
    </style>
  </defs>
  <g id="svg2" fill="none">
    <g id="g8" fill="none">
      <g id="g10" fill="none">
        <path id="path14" class="cls-13" d="M159.11,2121.29s-265.35-207.23-80.33-702.6c109.08-292.03,477.06-247.19,458.44-771.71C518.61,122.47,857.78-106.19,1465.8,131.88c154.04,60.32,335.08,3.65,528.73-53.01,357.95-104.73,758.95-209.48,1111.92,424.68,209.79,376.89,576.91,328.07,674.64,1017.32,26.72,188.4-13.35,385.64-211.31,600.43H159.11"/>
        <path id="path16" class="cls-8" d="M1922.96,648.76c4.75,3.73,9.36,8.05,13.71,13.01,8.27,9.47,15.88,27.57,16.72,40.13.09,1.35.15,2.68.21,4,2.55,80.97-91.68,119.24-146.4,57.96-7.13-8.03-13.67-21.96-16.31-34-.57-2.8-1-5.49-1.12-7.92-.69-11.43.49-22.04,3.27-31.71,15.84-55.12,82.15-78.55,129.92-41.48M1761.61,871.25l31.75-23.52c2.67-1.93,6.19-2.21,9.11-.73,3.75,1.92,7.59,3.68,11.53,5.31,7.33,3.03,14.72,5.45,22.16,7.21,3.48.83,6.09,3.64,6.61,7.16l6.27,40.81c.63,4.36,4.55,7.51,9.01,7.2l37.67-2.48c4.27-.29,7.6-3.72,7.81-7.97l1.6-37.99c.08-3.69,2.65-6.88,6.33-7.88,15.49-4.25,30.29-10.97,43.81-19.91,3.27-2.16,7.68-1.79,10.56.84l17.08,15.61c3.27,2.93,8.25,3.03,11.6.12l28.05-24.87c.57-.51,1.08-1.04,1.48-1.67,1.99-2.91,1.95-6.89-.25-9.8l-17.55-23.73-4.29-5.77c3.56-6.05,6.77-12.47,9.51-19.12,3.69-8.97,6.49-18.13,8.37-27.24.73-3.47,3.48-6.16,7-6.68l32.88-5.01c4.49-.71,7.72-4.69,7.39-9.21l-1.89-28.8-.57-8.25c-.28-4.51-3.93-8.11-8.43-8.28l-31.75-1.37c-3.68-.11-6.88-2.55-7.87-6.03-3.13-10.39-7.35-20.43-12.6-29.85-.39-.87-.83-1.61-1.29-2.4-.17-.27-.29-.55-.41-.83-1.45-3.16-.81-6.85,1.56-9.43l25.28-27.77c.31-.29.55-.65.77-.99,2.17-3.21,1.92-7.6-.67-10.59l-24.75-28c-2.99-3.37-8.04-3.92-11.71-1.23l-33.11,24.55c-2.77,2.12-6.56,2.24-9.53.41-6.57-3.97-13.56-7.49-20.93-10.53-3.91-1.61-7.84-3.04-11.8-4.29-3.2-1.05-5.57-3.79-6.07-7.12l-6.04-39.23c-.64-4.32-4.52-7.47-8.93-7.17l-37.25,2.51c-4.51.29-8.09,3.89-8.29,8.48l-1.28,30.05c-.17,4.03-3.04,7.37-6.97,8.19-15.45,3-30.32,8.44-44.12,16-3.23,1.84-7.32,1.37-10.09-1.17l-25.03-22.8c-3.35-3.07-8.48-3.08-11.89-.09l-27.91,24.64c-3.36,2.95-3.87,8.01-1.21,11.52l1.01,1.4,20.4,27.56c2.19,2.96,2.29,6.87.32,9.97v.04c-4.75,7.43-8.91,15.36-12.39,23.81-1.85,4.51-3.44,9.03-4.87,13.61-.93,3.2-3.63,5.55-6.92,6.05l-33.37,5.09c-4.57.68-7.85,4.79-7.53,9.35l2.48,37.11c.07,1.07.36,2.07.73,2.96,1.32,2.92,4.24,5.01,7.57,5.17l25.36,1.03c3.11.16,5.91,1.97,7.32,4.65.36.71.64,1.47.83,2.29,3.96,19.81,11.84,38.59,23.17,55.33,1.97,2.81,1.93,6.53.15,9.39-.25.4-.56.79-.89,1.16l-20.49,22.48c-2.97,3.25-3.01,8.23-.11,11.56l.57.65,24.09,27.32c3.07,3.41,8.17,3.92,11.85,1.2"/>
        <path id="path18" class="cls-8" d="M2164.61,325.23c3.29,3.41,6.39,7.28,9.23,11.61,5.37,8.27,9.28,23.17,8.55,33.03-.07,1.05-.17,2.09-.27,3.13-6.96,63.19-84.39,82.51-120.13,28.87-4.65-7.03-8.19-18.56-8.91-28.21-.15-2.24-.17-4.37,0-6.28.72-8.96,2.81-17.07,6.04-24.27,18.39-41.07,72.48-51.95,105.49-17.88h0ZM2014.72,480.27l27.27-14.77c2.28-1.21,5.04-1.04,7.16.44,2.68,1.89,5.48,3.69,8.36,5.39,5.36,3.16,10.84,5.87,16.41,8.05,2.63,1.03,4.35,3.49,4.35,6.29l.37,32.4c0,3.45,2.71,6.33,6.2,6.59l29.55,2.23c3.35.25,6.31-2.05,6.95-5.33l5.44-29.33c.47-2.87,2.81-5.05,5.79-5.43,12.51-1.59,24.75-5.17,36.24-10.63,2.77-1.31,6.16-.53,8.11,1.83l11.53,14.01c2.23,2.64,6.09,3.27,9.01,1.37l24.53-16.23c.51-.32.96-.68,1.33-1.13,1.87-2.04,2.28-5.13.89-7.64l-11.01-20.37-2.71-4.96c3.44-4.31,6.64-8.93,9.51-13.8,3.85-6.56,7.03-13.37,9.51-20.24.95-2.61,3.37-4.4,6.16-4.41l26.11-.27c3.56-.05,6.52-2.8,6.76-6.35l1.71-22.59.47-6.47c.28-3.53-2.16-6.73-5.64-7.36l-24.51-4.57c-2.85-.49-5.07-2.73-5.44-5.56-1.29-8.41-3.47-16.67-6.49-24.57-.21-.72-.48-1.35-.75-2.01-.11-.21-.17-.45-.23-.68-.77-2.61.12-5.43,2.24-7.16l22.72-18.79c.27-.19.49-.44.71-.68,2.04-2.25,2.33-5.69.64-8.29l-16.13-24.48c-1.95-2.96-5.8-3.93-8.95-2.25l-28.43,15.43c-2.4,1.33-5.35,1.01-7.47-.73-4.67-3.81-9.69-7.32-15.09-10.49-2.85-1.68-5.76-3.23-8.69-4.64-2.37-1.17-3.91-3.56-3.92-6.2l-.36-31.15c-.03-3.43-2.71-6.29-6.16-6.56l-29.21-2.16c-3.53-.27-6.72,2.13-7.39,5.67l-4.31,23.21c-.59,3.11-3.17,5.39-6.32,5.59-12.33.63-24.49,3.21-36.04,7.56-2.71,1.08-5.84.25-7.72-2.03l-16.92-20.47c-2.27-2.76-6.24-3.33-9.23-1.4l-24.4,16.07c-2.95,1.92-3.89,5.8-2.21,8.83l.63,1.2,12.81,23.65c1.37,2.55,1.03,5.6-.85,7.79v.03c-4.52,5.25-8.61,10.96-12.25,17.13-1.95,3.31-3.67,6.64-5.28,10.04-1.09,2.39-3.44,3.91-6.05,3.95l-26.49.27c-3.63.03-6.63,2.85-6.88,6.43l-2.17,29.11c-.05.83.05,1.64.25,2.39.69,2.41,2.73,4.36,5.31,4.85l19.59,3.59c2.4.47,4.37,2.19,5.17,4.43.2.59.35,1.21.39,1.87.89,15.84,4.95,31.29,11.91,45.55,1.21,2.4.77,5.29-.92,7.31-.25.29-.53.56-.83.81l-18.4,15.2c-2.67,2.2-3.25,6.05-1.36,8.97l.37.57,15.69,23.87c2.01,3,5.92,3.96,9.08,2.25"/>
        <path id="path20" class="cls-8" d="M3421.45,1500.63c4.05,4.23,7.88,9,11.37,14.36,6.64,10.2,11.47,28.6,10.56,40.76-.08,1.31-.21,2.59-.33,3.88-8.59,78.01-104.19,101.87-148.32,35.63-5.76-8.67-10.12-22.91-11.01-34.83-.17-2.76-.21-5.4,0-7.75.89-11.07,3.48-21.07,7.47-29.97,22.71-50.71,89.49-64.15,130.27-22.08h0ZM3236.37,1692.05l33.65-18.24c2.81-1.49,6.23-1.28,8.84.55,3.32,2.35,6.76,4.57,10.32,6.67,6.63,3.89,13.39,7.24,20.28,9.93,3.23,1.27,5.36,4.32,5.37,7.76l.44,40.01c.01,4.27,3.35,7.83,7.67,8.15l36.48,2.75c4.13.31,7.79-2.53,8.57-6.59l6.72-36.21c.57-3.55,3.48-6.24,7.15-6.71,15.44-1.96,30.56-6.4,44.73-13.12,3.43-1.63,7.61-.67,10.01,2.25l14.25,17.29c2.73,3.27,7.51,4.04,11.12,1.71l30.29-20.03c.63-.41,1.19-.87,1.65-1.41,2.31-2.52,2.8-6.33,1.09-9.43l-13.6-25.16-3.33-6.12c4.24-5.32,8.19-11.04,11.72-17.05,4.77-8.09,8.69-16.49,11.75-24.97,1.17-3.24,4.17-5.45,7.61-5.45l32.23-.33c4.41-.07,8.05-3.45,8.35-7.84l2.11-27.88.59-7.99c.33-4.36-2.67-8.32-6.96-9.09l-30.27-5.64c-3.52-.61-6.25-3.39-6.72-6.87-1.6-10.39-4.27-20.59-8.03-30.35-.25-.88-.57-1.65-.91-2.48-.13-.28-.21-.56-.28-.84-.96-3.24.15-6.69,2.77-8.84l28.04-23.2c.33-.24.61-.55.88-.84,2.51-2.79,2.88-7.03.79-10.24l-19.92-30.23c-2.4-3.65-7.17-4.85-11.05-2.77l-35.09,19.04c-2.96,1.65-6.6,1.25-9.21-.91-5.76-4.71-11.99-9.04-18.64-12.96-3.53-2.08-7.11-3.99-10.73-5.73-2.93-1.44-4.83-4.39-4.85-7.65l-.44-38.45c-.03-4.23-3.33-7.77-7.6-8.09l-36.08-2.67c-4.36-.35-8.28,2.63-9.11,7l-5.33,28.65c-.71,3.84-3.91,6.65-7.79,6.89-15.24.79-30.25,3.97-44.51,9.35-3.35,1.32-7.21.31-9.52-2.51l-20.89-25.28c-2.81-3.4-7.72-4.11-11.4-1.72l-30.13,19.84c-3.63,2.37-4.8,7.16-2.73,10.89l.79,1.48,15.81,29.21c1.69,3.13,1.27,6.91-1.05,9.61l-.03.04c-5.55,6.47-10.61,13.52-15.11,21.15-2.4,4.07-4.53,8.2-6.52,12.4-1.35,2.95-4.24,4.83-7.47,4.87l-32.72.33c-4.47.03-8.17,3.52-8.49,7.93l-2.68,35.93c-.07,1.03.07,2.03.31,2.95.87,2.97,3.37,5.37,6.56,5.99l24.19,4.44c2.96.59,5.4,2.69,6.39,5.45.25.73.41,1.51.48,2.32,1.09,19.55,6.11,38.63,14.69,56.24,1.51,2.96.96,6.52-1.15,9.01-.29.36-.64.69-1.01,1l-22.72,18.77c-3.29,2.71-4.01,7.47-1.68,11.08l.47.71,19.39,29.48c2.48,3.69,7.31,4.88,11.21,2.76"/>
        <path id="path22" class="cls-7" d="M3534.48,1240.81c2.17,2.25,4.23,4.81,6.09,7.68,3.56,5.45,6.13,15.29,5.65,21.81-.05.69-.12,1.37-.19,2.07-4.59,41.73-55.73,54.51-79.35,19.07-3.08-4.64-5.41-12.27-5.89-18.64-.08-1.48-.11-2.89,0-4.15.48-5.92,1.87-11.27,4-16.03,12.15-27.13,47.88-34.32,69.68-11.81ZM3435.46,1343.23l18.01-9.76c1.51-.8,3.33-.68,4.72.29,1.79,1.25,3.63,2.44,5.53,3.56,3.55,2.08,7.16,3.88,10.84,5.32,1.73.68,2.87,2.31,2.88,4.15l.24,21.4c0,2.29,1.79,4.2,4.09,4.36l19.52,1.48c2.21.16,4.17-1.36,4.59-3.53l3.6-19.37c.31-1.89,1.85-3.33,3.81-3.59,8.27-1.04,16.35-3.41,23.95-7.01,1.83-.87,4.07-.36,5.35,1.2l7.63,9.25c1.47,1.75,4.01,2.16,5.95.91l16.21-10.71c.33-.23.63-.45.88-.76,1.23-1.35,1.49-3.39.59-5.04l-7.28-13.47-1.77-3.27c2.27-2.84,4.37-5.91,6.27-9.12,2.55-4.33,4.65-8.83,6.28-13.36.63-1.73,2.23-2.92,4.08-2.92l17.24-.17c2.35-.04,4.31-1.85,4.45-4.2l1.13-14.92.31-4.27c.19-2.33-1.43-4.45-3.72-4.87l-16.19-3.01c-1.88-.33-3.35-1.81-3.6-3.68-.85-5.56-2.28-11.01-4.29-16.24-.13-.47-.31-.88-.48-1.32-.08-.15-.12-.29-.16-.45-.51-1.73.09-3.57,1.49-4.72l15-12.41c.17-.13.32-.29.47-.45,1.35-1.49,1.53-3.76.43-5.48l-10.65-16.17c-1.29-1.95-3.84-2.59-5.92-1.48l-18.77,10.19c-1.59.88-3.53.67-4.93-.49-3.08-2.51-6.41-4.83-9.97-6.92-1.88-1.12-3.8-2.13-5.73-3.07-1.57-.77-2.59-2.36-2.6-4.09l-.24-20.57c-.01-2.27-1.77-4.16-4.05-4.33l-19.31-1.43c-2.33-.19-4.44,1.4-4.88,3.73l-2.85,15.33c-.37,2.07-2.09,3.57-4.16,3.69-8.16.41-16.19,2.12-23.81,5-1.79.71-3.85.16-5.09-1.35l-11.19-13.52c-1.49-1.81-4.12-2.2-6.09-.92l-16.12,10.61c-1.93,1.27-2.56,3.83-1.45,5.83l.41.8,8.45,15.63c.91,1.67.68,3.69-.56,5.13v.03c-2.97,3.47-5.69,7.23-8.09,11.32-1.28,2.17-2.43,4.37-3.49,6.63-.71,1.57-2.27,2.59-3.99,2.6l-17.51.19c-2.39.01-4.37,1.88-4.55,4.24l-1.43,19.23c-.04.55.04,1.08.16,1.57.47,1.6,1.81,2.88,3.51,3.2l12.95,2.39c1.57.31,2.88,1.44,3.41,2.91.13.4.23.81.25,1.24.59,10.47,3.27,20.67,7.87,30.09.8,1.59.51,3.49-.61,4.83-.16.19-.35.36-.55.53l-12.16,10.04c-1.76,1.45-2.15,4-.89,5.92l.25.39,10.37,15.77c1.32,1.97,3.91,2.6,5.99,1.48"/>
        <path id="path24" class="cls-8" d="M546.93,1234.59c2.38,2.48,4.63,5.28,6.67,8.41,3.9,6,6.73,16.79,6.2,23.92-.05.76-.13,1.52-.2,2.27-5.04,45.76-61.11,59.76-87,20.91-3.38-5.08-5.94-13.44-6.46-20.43-.1-1.63-.13-3.17,0-4.55.52-6.49,2.04-12.36,4.37-17.59,13.32-29.73,52.49-37.61,76.41-12.95h0ZM438.37,1346.88l19.74-10.71c1.65-.87,3.65-.75,5.18.32,1.95,1.37,3.97,2.68,6.06,3.91,3.89,2.29,7.85,4.25,11.89,5.84,1.89.73,3.14,2.53,3.15,4.55l.27,23.47c0,2.51,1.96,4.59,4.49,4.77l21.39,1.61c2.43.19,4.57-1.48,5.03-3.85l3.94-21.25c.34-2.07,2.04-3.65,4.19-3.93,9.06-1.15,17.93-3.75,26.25-7.69,2.01-.95,4.46-.39,5.87,1.32l8.36,10.15c1.61,1.92,4.41,2.37,6.52,1l17.77-11.75c.37-.24.69-.51.97-.83,1.35-1.48,1.65-3.72.64-5.53l-7.98-14.76-1.95-3.59c2.49-3.12,4.8-6.47,6.88-10,2.8-4.75,5.1-9.68,6.89-14.65.69-1.89,2.45-3.19,4.47-3.2l18.9-.19c2.58-.04,4.72-2.03,4.89-4.6l1.24-16.36.34-4.68c.2-2.56-1.57-4.88-4.08-5.33l-17.75-3.31c-2.06-.36-3.66-1.99-3.94-4.03-.93-6.09-2.5-12.08-4.7-17.81-.15-.51-.34-.96-.54-1.45-.08-.16-.12-.32-.16-.49-.56-1.89.09-3.92,1.63-5.17l16.45-13.61c.2-.13.36-.32.52-.49,1.47-1.63,1.69-4.12.47-6l-11.68-17.73c-1.41-2.15-4.21-2.85-6.49-1.64l-20.59,11.17c-1.74.97-3.87.73-5.4-.53-3.38-2.75-7.03-5.29-10.94-7.6-2.07-1.21-4.17-2.33-6.29-3.36-1.72-.84-2.83-2.57-2.85-4.49l-.26-22.55c-.02-2.48-1.95-4.56-4.45-4.75l-21.17-1.57c-2.56-.2-4.86,1.55-5.34,4.11l-3.12,16.81c-.42,2.25-2.3,3.91-4.57,4.04-8.94.45-17.74,2.33-26.11,5.48-1.96.77-4.23.19-5.59-1.47l-12.25-14.83c-1.64-1.99-4.53-2.41-6.69-1.01l-17.67,11.64c-2.13,1.39-2.81,4.2-1.6,6.39l.46.87,9.27,17.15c.99,1.83.74,4.04-.62,5.63v.03c-3.27,3.8-6.24,7.93-8.88,12.41-1.4,2.39-2.66,4.8-3.82,7.27-.79,1.73-2.49,2.83-4.38,2.85l-19.19.2c-2.63.01-4.8,2.07-4.99,4.65l-1.57,21.08c-.04.6.04,1.19.18,1.72.51,1.75,1.98,3.16,3.85,3.52l14.19,2.6c1.73.35,3.17,1.59,3.75,3.2.15.43.25.88.28,1.36.65,11.47,3.58,22.67,8.62,32.99.88,1.75.56,3.83-.67,5.29-.18.21-.38.4-.6.59l-13.33,11c-1.93,1.6-2.35,4.39-.98,6.51l.27.41,11.37,17.29c1.46,2.16,4.29,2.87,6.58,1.63"/>
        <path id="path26" class="cls-8" d="M2499.74,669.27c7.41,6.01,14.57,12.96,21.31,20.91,12.8,15.16,24.33,43.95,25.33,63.8.12,2.13.19,4.23.24,6.33,1.91,127.91-147.88,185.84-232.67,87.64-11.07-12.85-21.01-35.01-24.87-54.09-.83-4.44-1.43-8.71-1.56-12.53-.8-18.07,1.37-34.79,6-49.99,26.47-86.6,131.76-121.85,206.21-62.07M2239.16,1016.32l50.73-36.31c4.27-2.99,9.83-3.33,14.41-.91,5.84,3.12,11.87,6.01,18.05,8.68,11.49,4.96,23.11,9,34.8,11.97,5.47,1.4,9.53,5.89,10.25,11.47l8.83,64.61c.88,6.89,6.99,11.99,14.04,11.61l59.55-2.93c6.75-.35,12.09-5.68,12.53-12.39l3.55-59.93c.21-5.84,4.36-10.8,10.19-12.29,24.59-6.29,48.13-16.52,69.71-30.28,5.21-3.31,12.17-2.6,16.65,1.63l26.55,25.09c5.08,4.72,12.97,5,18.32.49l44.95-38.52c.93-.79,1.73-1.61,2.39-2.6,3.21-4.55,3.25-10.83-.15-15.48l-27.08-37.93-6.63-9.24c5.79-9.44,11.01-19.49,15.52-29.93,6.07-14.07,10.71-28.44,13.93-42.77,1.24-5.47,5.64-9.65,11.21-10.36l52.05-7.05c7.11-1.01,12.31-7.23,11.91-14.36l-2.24-45.53-.67-13.04c-.35-7.12-6-12.89-13.11-13.29l-50.08-3c-5.81-.28-10.79-4.21-12.27-9.73-4.68-16.48-11.07-32.44-19.11-47.47-.6-1.37-1.28-2.56-1.99-3.83-.27-.41-.44-.85-.63-1.31-2.2-5.03-1.09-10.85,2.71-14.85l40.65-43.19c.49-.45.88-1.03,1.25-1.53,3.49-5.01,3.23-11.95-.79-16.72l-38.33-44.87c-4.64-5.41-12.59-6.4-18.45-2.25l-52.91,37.91c-4.45,3.27-10.43,3.36-15.08.39-10.27-6.44-21.2-12.19-32.77-17.19-6.12-2.64-12.29-5-18.51-7.09-5.04-1.72-8.71-6.12-9.4-11.39l-8.51-62.11c-.89-6.84-6.95-11.89-13.92-11.56l-58.89,2.99c-7.12.35-12.87,5.95-13.32,13.16l-2.81,47.43c-.37,6.36-4.99,11.56-11.2,12.73-24.49,4.35-48.12,12.53-70.09,24.12-5.15,2.81-11.6,1.96-15.92-2.12l-38.89-36.67c-5.23-4.92-13.31-5.07-18.79-.47l-44.72,38.17c-5.39,4.57-6.31,12.56-2.2,18.19l1.56,2.23,31.48,44.05c3.37,4.72,3.45,10.91.25,15.75l-.04.07c-7.67,11.6-14.44,24.03-20.15,37.28-3.05,7.05-5.67,14.16-8.04,21.37-1.57,5.03-5.88,8.65-11.09,9.37l-52.84,7.16c-7.23.95-12.51,7.35-12.13,14.56l2.93,58.65c.11,1.67.52,3.27,1.09,4.69,2,4.65,6.55,8.03,11.81,8.36l40.03,2.29c4.89.33,9.27,3.25,11.43,7.52.55,1.13.99,2.36,1.24,3.65,5.73,31.39,17.69,61.24,35.16,87.99,3.03,4.49,2.87,10.35-.03,14.81-.41.64-.91,1.24-1.45,1.83l-32.95,34.93c-4.77,5.07-4.97,12.91-.47,18.27l.89,1.05,37.32,43.76c4.76,5.47,12.8,6.41,18.69,2.2"/>
        <path id="path28" class="cls-8" d="M664.45,908.65c15.88-80.56,151.01-65.19,151.01-65.19,0,0,100.27,132.01,126.85,133.45,26.58,1.45-63.69-129.6-63.69-129.6,50.71-8.51,185.2,44.97,185.2,44.97,0,0,3.06,161.97,29.18,156.84,26.12-5.13-10.03-143.29-10.03-143.29,50.45,11.37,100.6,65.79,100.6,65.79,64.21,89.84-54.48,167.67-54.48,167.67,0,0,2.28,56.11,41.36,117.92h0s8.64,11.32,17.99,30.92l-13.48.93c-1.35-3.53-2.8-6.93-4.39-10.2l-.03-.05-.07-.13c-1.07-2.03-2.6-4.89-4.51-8.39h-.01s-.01-.03-.01-.03c-4.67-7.77-7.87-13.53-9.93-17.69v-.04c-14.11-24.43-34.19-56.13-46.52-62.23,0,0,1.35-2.2,2.45-6.37-.77,2.03-1.59,4.16-2.45,6.37-19.59,51.03-134.31,67.33-199.46,58.65-65.15-8.68-38.42-28.76-5.89-60.59,32.53-31.83,105.54-29.15,126.14-42.17,20.6-13.03-11.5-22.36-54.09-16.07-42.59,6.28-61.01,50.6-129.72,62.04-68.71,11.43-130.52-115-130.52-115,48.8,11.48,132.6-20.87,134.74-37.57,1.41-11-53.15-10.19-96.27-9.36-22.3.41-41.55.84-48.4-.37-20.11-3.56-57.46-40.67-41.58-121.21"/>
        <path id="path30" class="cls-9" d="M1752.88,1215.09l-71.48,849.85s-7.48,51.52,30.84,51.61c63,.15,313.6,0,313.6,0,0,0-47.43-10.72-46.85-34.85.68-28.44,83.55-874.65,83.55-874.65l-309.65,8.04"/>
        <path id="path32" class="cls-7" d="M2046.17,2101.13c-12.4.04-251.75.79-313.11,0-26.73-.33-31.43-23.77-31.64-38.95-.12-7.27.8-12.65.8-12.65l1.87-22.08,4.73-56.31,4.19-49.73,5.37-63.92,4.53-53.95,50.79-603.88,309.65-8.04s-34.91,354.13-59.59,611.92c-2.76,28.72-5.39,56.27-7.8,81.97-.79,8.2-1.55,16.23-2.28,24.04-2.29,24.39-4.39,46.79-6.2,66.56-.96,10.43-1.85,20.11-2.65,28.99-3.15,34.76-4.99,56.96-5.01,61.19-.01,2.45.2,4.75.6,6.88,5.08,27.08,41.09,27.96,45.75,27.96"/>
        <path id="path34" class="cls-7" d="M1000.88,752.63l174.11,699.33,23.83,95.77,81.09,325.73h1506.48l-298.88-1120.84H1000.88"/>
        <path id="path36" class="cls-9" d="M1000.88,752.63l-24.13,8.05,271.08,1137.11,32.08-24.32-279.03-1120.84"/>
        <path id="path38" class="cls-9" d="M1247.82,1897.79h1497.21l41.35-24.32h-1506.48l-32.08,24.32"/>
        <path id="path40" class="cls-7" d="M1773.6,2116.88h324.17v-15.4h-324.17v15.4"/>
        <path id="path42" class="cls-18" d="M2013.69,1909.56h0c.36-3.87.73-7.8,1.11-11.77h.56l-1.67,11.77"/>
        <path id="path44" class="cls-21" d="M1708.82,1971.15l4.19-49.73,1.99-23.63h299.8c-.37,3.97-.75,7.91-1.11,11.77h0l-304.87,61.59"/>
        <path id="path48" class="cls-4" d="M2046.17,2101.13c-12.4.04-251.75.79-313.11,0-26.73-.33-31.43-23.77-31.64-38.95l303.41-57.08c-3.15,34.76-4.99,56.96-5.01,61.19-.01,2.45.2,4.75.6,6.88,5.08,27.08,41.09,27.96,45.75,27.96"/>
        <path id="path50" class="cls-4" d="M1941.68,1646.56l-661.77,226.91-81.09-325.73,742.87,98.83"/>
        <path id="path52" class="cls-5" d="M1000.88,752.63h1486.63l239.39,900.8h-1501.68l-224.33-900.8"/>
        <path id="path54" class="cls-14" d="M2654.89,1605.2h-1380.55l-213.55-820.57,1378.19,9.45,215.91,811.12"/>
        <path id="path56" class="cls-23" d="M2082.72,1275.69v329.48h-522.19v-329.48h522.19"/>
        <path id="path58" class="cls-20" d="M2343.81,1275.71v329.47h-522.19v-329.47h522.19"/>
        <path id="path60" class="cls-10" d="M1821.62,1324.37l-110.07,110.07h-150.72v-158.75h260.79v48.68"/>
        <path id="path62" class="cls-20" d="M1560.53,1275.69l-117.4,113.29h261.25l117.24-113.29h-261.09"/>
        <path id="path64" class="cls-23" d="M2343.81,1287.37l-522.19-11.67v48.56l97.09,106.45h425.09v-105.97l-2.69-3.16h2.69v-34.21"/>
        <path id="path66" class="cls-20" d="M1821.62,1275.69l103.32,113.29h515.28l-96.41-113.29h-522.19"/>
        <path id="path68" class="cls-2" d="M911.7,1234s3.63-39.56-40.58-39.56c0,0,13.39,3.63,20.33,10.89,0,0-28.2-16.55-58.88,8.88-30.69,25.44-11.62,89.24-20.95,101.35-9.33,12.12-45.67,14.53-41.23,53.71,4.44,39.16,115.33,88.21,108.21,120.61,0,0,43.45-63.88,12.38-93.03,0,0,15.15,14.27,16.69,31.23,0,0,4.11-33.11-16.96-43.71-18.64-9.37-33.92-43.64-32.3-49.76,1.61-6.13,53.3-100.61,53.3-100.61"/>
        <path id="path70" class="cls-17" d="M868.18,1423.99s33.03,136.63,65.45,163.95c19.49,16.41,77.43,54.09,77.43,54.09l-24.1,8.75s-80.37-27.13-98.36-48.29-67.26-127.16-67.26-127.16l46.84-51.33"/>
        <path id="path72" class="cls-20" d="M1058.28,1691.97l-7.76-19.23c-8.32-20.61-28.32-34.11-50.55-34.11h-143.18v478.73h592.29v-387.88h-335.16c-24.46,0-46.47-14.84-55.63-37.52"/>
        <path id="path74" class="cls-12" d="M946.13,1929.76v-34.51l121.03-53.01v35.25l-84.52,34.76,84.52,34.76v35.76l-121.03-53.01"/>
        <path id="path76" class="cls-12" d="M1192.94,1800.97h32.27l-110.79,231.57h-32.26l110.78-231.57"/>
        <path id="path78" class="cls-12" d="M1359.74,1895.25v34.51l-121.04,53.01v-35.25l84.53-34.76-84.53-34.76v-35.76l121.04,53.01"/>
        <path id="path80" class="cls-11" d="M557.76,1664.03c.29.53.6,1.07.91,1.61,7.23,12.56,23.81,43.33,42.07,77.03,8.64,15.97,17.68,32.61,26.26,48.27,14.78,27.01,28.23,51.08,36.08,63.79,7.98,12.93,13.86,22.01,16.23,25.65h.02c.71,1.13.87,2.45.77,3.76-.83,11.4-.6,22.73.52,33.88,11.01,109.59,84.91,168.32,84.91,168.32l21.97,3.24s-31.09-115.19-40.25-180.32c-1.55-11.03-2.22-19.97-1.68-25.81,1.62-16.97-1.39-41.88-7.09-70.48-10.15-50.81-28.75-113.2-44.93-163.13-1.02-3.19-31.92-114.96-31.92-114.96-25.93,22.67-120.53,32.03-120.53,32.03,0,0-16.04,38.99,16.66,97.13"/>
        <path id="path82" class="cls-16" d="M833.62,2117.37h-91.7s-2.2-13.97,2.59-24.57c4.59-10.17,11.13-10.51.83-26.45,5.83,6,24.56,8.48,37.82,6.71,1.62,2.63,10.47,20.29,15.9,24.19,5.99,4.31,32.71,2.77,34.56,20.13"/>
        <path id="path84" class="cls-16" d="M557.76,1664.03c.29.53.6,1.07.91,1.61,7.23,12.56,46.31,84.75,64.57,118.43-21.16-87.05-6.44-174.11-6.44-174.11l-59.04,54.07"/>
        <path id="path86" class="cls-2" d="M899.19,1228.44c.6-2.41-52.37,23.95-55.06,26.92-24.84,27.56-17.76,63.52-3.54,63.87,9.12.23,7.35,15.39,7.35,15.39l101.57-42.97s-12.23-71.31-50.32-63.2"/>
        <path id="path88" class="cls-20" d="M865.06,1403.47s15.46,30.87,13.53,55.93c0,0-18.64,29.41-66.97,36.87,0,0,41.56-92.83,53.45-92.8"/>
        <path id="path90" class="cls-11" d="M629.25,1573.72l.31-17.16c-34.17,4.32-117.82-40.83-117.82-40.83,0,0-35.75,23.77-40.64,91.68-2.39,33.15-17.5,173.31-19.17,215.16-.61,15.17-.81,26-.88,30.32v.04c-.02,1.32-.64,2.49-1.45,3.53-7.07,8.99-13.2,18.51-18.52,28.39-52.14,97.01-24.87,228.84-24.87,228.84l12.11-3.08s44.09-136.65,72.91-195.77c4.89-10.03,9.33-17.81,13.05-22.33,10.83-13.16,22.26-35.51,33.52-62.4,21.29-50.85,91.46-256.39,91.46-256.39"/>
        <path id="path92" class="cls-16" d="M479.12,2117.37h-91.7s-2.2-13.97,2.59-24.57c4.59-10.17,11.78-14.8,10.06-27.12,5.83,6,15.32,12.72,28.58,10.95,1.62,2.63,10.49,16.72,15.91,20.61,5.99,4.31,32.71,2.77,34.56,20.13"/>
        <path id="path94" class="cls-20" d="M805.42,1515.96c-12.32,2.09,2.01,11.89-14.93,13.73-24.11,2.63-49.01,4.43-62.05,9.63-4.76,1.91-7.94,4.24-8.93,7.24-5.65,17-41.45,46.21-41.45,46.21-159.68-7.28-169.96-78.44-169.96-78.44,103.63-100.65,191.8-155.51,264.66-162.31,17.73-1.65,41.64.57,52.85,5.56,25.48,11.35,39.45,45.88,39.45,45.88,0,0-12.84,104.51-59.64,112.49"/>
        <path id="path96" class="cls-23" d="M790.49,1529.69c-24.11,2.63-49.01,4.43-62.05,9.63-5.33-79.63,32.25-139.53,32.25-139.53,0,0,24.52,99.77,29.8,129.91"/>
        <path id="path98" class="cls-17" d="M811.29,1386.31s-60.64-3.32-71.41,34.76c-10.77,38.07,20.21,190.03,26.89,205.71,12.16,28.56,71.35,110.05,71.35,110.05l21.77-6.63s-39.47-124.51-48.28-136.83c-13.83-19.33,17.83-190.51-.32-207.07"/>
        <path id="path100" class="cls-17" d="M859.89,1730.2s1.12,9.65,5.2,14.63c4.08,4.99,15.95,17.05,16.15,24.11,0,0-.6,3.13-3.14,2.56-2.54-.57-11.38-9.32-15.92-8.69,0,0,2.42,14.15,4.82,18.13,2.4,3.99.49,20.88-.95,24.32s-19.13-18.47-26.4-28.24c-7.27-9.79-.12-49.47-.12-49.47l20.36,2.65"/>
        <path id="path102" class="cls-20" d="M727.92,1471.97c.16.89,57.38,10.52,93.17-7.64,0,0,29.9-93.67-12.83-89.19-42.73,4.48-68.03,17.93-69.11,38.4-1.08,20.45-11.24,58.43-11.24,58.43"/>
        <path id="path104" class="cls-17" d="M824.25,1364.16c4.56,14.28,19.75,54.96,40.81,39.31-.72-3.04,3.71-11.87,8.93-20.84,6.67-11.45,14.61-23.17,14.61-23.17l-34.32-30.07-2.05-1.79c-8.97,15.67-17.8,23.21-25.53,28.97-2.35,1.76-3.34,4.79-2.45,7.59"/>
        <path id="path106" class="cls-3" d="M888.59,1359.47s-7.93,11.69-14.6,23.16c-21.33-13.15-21.35-39.56-19.71-53.24l34.31,30.08"/>
        <path id="path108" class="cls-17" d="M889.54,1374.53s-51.79-28.81-33.35-60.8c18.44-31.97,24.18-57.23,58.03-40.19,33.85,17.05,33.18,32.93,29.62,45.11-3.56,12.16-40.35,62.56-54.3,55.88"/>
        <path id="path110" class="cls-2" d="M952.59,1300c-2.37-14.2-9.59-15.56-14.61-14.61-19.13-31.63-50.38-19.28-50.38-19.28-16.69,20.95-40.82,24.52-40.82,24.52,0,0,6.01,11.17,30.77,18.11,7.57,2.11,16.15.83,24.43-1.96-17.18,9.59-35.15,13.25-35.15,13.25,32.63,2.99,63.68-26.85,66.9-30.04,1.51,4.63,4.15,14.31,2.57,21.37-2.15,9.63-10.68,27.04-5.47,29.29,0,0,25.32-19.36,21.76-40.65"/>
        <path id="path112" class="cls-17" d="M1020.53,1642.09s-14.45,10.84-3.56,17.93c10.89,7.08,30.34,9,30.42,4.35.27-15.6-7.52-26.71-26.86-22.28"/>
        <path id="path114" class="cls-1" d="M3718.29,2125.69H3.98c-2.19,0-3.98-1.8-3.98-3.99v-.84c0-2.19,1.79-3.99,3.98-3.99h3714.31c2.19,0,3.99,1.8,3.99,3.99v.84c0,2.19-1.8,3.99-3.99,3.99"/>
        <path id="path116" class="cls-20" d="M1245.78,1047.04c-1.05-4.35-4-7.63-7.17-7.63-3.19.01-4.49,3.2-3.41,7.64,1.07,4.39,3.96,7.63,7.17,7.61,3.21,0,4.48-3.21,3.41-7.63h0ZM1229.74,1047.07c-1.69-6.95,1.35-12.39,7.79-12.4,6.39-.01,12.01,5.35,13.71,12.36,1.68,6.95-1.32,12.39-7.79,12.4s-12.01-5.35-13.71-12.36"/>
        <path id="path118" class="cls-4" d="M1136.78,867.17l-3.97,1.03-2.15-4.31,6.45-2.07h3.64l5.83,24.11h-5.25s-4.55-18.76-4.55-18.76"/>
        <path id="path120" class="cls-4" d="M1171.69,873.92c-1.05-4.35-3.99-7.63-7.17-7.63-3.17.01-4.48,3.2-3.4,7.64,1.05,4.37,3.95,7.63,7.17,7.61,3.21,0,4.47-3.21,3.4-7.63h0ZM1155.65,873.95c-1.68-6.95,1.36-12.39,7.79-12.4,6.4-.01,12.03,5.35,13.72,12.36,1.68,6.95-1.32,12.39-7.79,12.4-6.47.01-12.03-5.35-13.72-12.36"/>
        <path id="path122" class="cls-4" d="M1579.3,866.36l-3.97,1.04-2.15-4.31,6.45-2.07h3.63s5.84,24.11,5.84,24.11h-5.25l-4.55-18.77"/>
        <path id="path124" class="cls-4" d="M1614.21,873.11c-1.05-4.33-4-7.61-7.17-7.61-3.19.01-4.48,3.19-3.41,7.64,1.07,4.37,3.96,7.61,7.17,7.61s4.48-3.23,3.41-7.64ZM1598.17,873.13c-1.68-6.93,1.36-12.39,7.79-12.39,6.4-.01,12.01,5.35,13.71,12.36,1.69,6.93-1.32,12.39-7.79,12.4-6.47,0-12.01-5.36-13.71-12.37"/>
        <path id="path126" class="cls-4" d="M1646.36,873.05c-1.05-4.33-3.99-7.61-7.17-7.61s-4.48,3.19-3.4,7.64c1.05,4.37,3.95,7.61,7.17,7.61s4.47-3.23,3.4-7.64ZM1630.32,873.08c-1.68-6.93,1.36-12.39,7.79-12.39,6.4-.01,12.03,5.35,13.72,12.36,1.68,6.93-1.32,12.39-7.79,12.39-6.47.01-12.03-5.35-13.72-12.36"/>
        <path id="path128" class="cls-4" d="M1810.81,873.11c-1.05-4.33-4-7.61-7.17-7.61-3.19.01-4.49,3.19-3.41,7.64,1.07,4.37,3.96,7.61,7.17,7.61s4.48-3.23,3.41-7.64ZM1794.76,873.13c-1.68-6.93,1.36-12.39,7.8-12.39,6.39-.01,12.01,5.35,13.71,12.36,1.68,6.93-1.32,12.39-7.79,12.4-6.47,0-12.01-5.36-13.72-12.37"/>
        <path id="path130" class="cls-4" d="M1842.96,873.05c-1.05-4.33-3.99-7.61-7.17-7.61s-4.48,3.19-3.4,7.64c1.05,4.37,3.95,7.61,7.16,7.61s4.48-3.23,3.41-7.64ZM1826.92,873.08c-1.68-6.93,1.36-12.39,7.79-12.39,6.4-.01,12.01,5.35,13.72,12.36,1.68,6.93-1.33,12.39-7.8,12.39-6.45.01-12.01-5.35-13.71-12.36"/>
        <path id="path132" class="cls-4" d="M1875.12,873c-1.05-4.33-4-7.61-7.17-7.61s-4.49,3.19-3.41,7.64c1.07,4.37,3.96,7.61,7.17,7.61,3.21-.01,4.48-3.23,3.41-7.64ZM1859.06,873.03c-1.68-6.93,1.36-12.39,7.8-12.4,6.39,0,12.01,5.36,13.71,12.37,1.68,6.93-1.32,12.39-7.79,12.39-6.47.01-12.01-5.35-13.72-12.36"/>
        <path id="path134" class="cls-4" d="M2098.65,872.45c-1.05-4.33-4-7.61-7.17-7.61s-4.49,3.19-3.41,7.64c1.07,4.37,3.96,7.61,7.17,7.61,3.21-.01,4.48-3.23,3.41-7.64ZM2082.61,872.48c-1.68-6.93,1.35-12.39,7.79-12.4,6.39,0,12.01,5.36,13.71,12.37,1.68,6.93-1.32,12.39-7.79,12.39-6.47.01-12.01-5.35-13.71-12.36"/>
        <path id="path136" class="cls-4" d="M2129.42,872.4c-1.05-4.33-4-7.61-7.17-7.61-3.19.01-4.49,3.19-3.41,7.64,1.07,4.37,3.96,7.61,7.17,7.61s4.48-3.23,3.41-7.64ZM2113.37,872.43c-1.68-6.93,1.36-12.39,7.8-12.39,6.39-.01,12.01,5.35,13.71,12.36,1.68,6.93-1.32,12.39-7.79,12.4-6.47,0-12.01-5.36-13.72-12.37"/>
        <path id="path138" class="cls-4" d="M2162.89,872.35c-1.05-4.35-4-7.61-7.17-7.61s-4.49,3.19-3.41,7.63c1.07,4.39,3.96,7.63,7.17,7.63,3.21-.01,4.48-3.23,3.41-7.64h0ZM2146.85,872.37c-1.69-6.93,1.35-12.39,7.79-12.4,6.39,0,12.01,5.36,13.71,12.36,1.68,6.95-1.32,12.4-7.79,12.4-6.47.01-12.01-5.35-13.71-12.36"/>
        <path id="path140" class="cls-4" d="M2217.54,872.25c-1.05-4.33-3.99-7.61-7.17-7.61s-4.48,3.19-3.4,7.64c1.05,4.37,3.96,7.61,7.17,7.61,3.21-.01,4.47-3.23,3.4-7.64ZM2201.5,872.28c-1.68-6.93,1.36-12.39,7.79-12.4,6.4,0,12.03,5.36,13.72,12.37,1.68,6.93-1.32,12.39-7.79,12.39-6.47.01-12.03-5.35-13.72-12.36"/>
        <path id="path142" class="cls-4" d="M2236.13,865.41l-3.97,1.04-2.15-4.31,6.45-2.07h3.63l5.84,24.11h-5.25l-4.55-18.77"/>
        <path id="path144" class="cls-4" d="M2271.04,872.17c-1.05-4.35-4-7.63-7.17-7.63-3.19.01-4.49,3.19-3.41,7.64,1.07,4.37,3.96,7.61,7.17,7.61s4.48-3.23,3.41-7.63h0ZM2255,872.2c-1.68-6.95,1.35-12.4,7.79-12.4,6.39-.01,12.01,5.35,13.71,12.36,1.68,6.93-1.32,12.39-7.79,12.4-6.47,0-12.01-5.36-13.71-12.36"/>
        <path id="path146" class="cls-4" d="M2324.61,872.03c-1.05-4.35-3.99-7.63-7.17-7.63-3.17.01-4.48,3.2-3.4,7.64,1.05,4.37,3.95,7.63,7.17,7.61,3.21,0,4.47-3.21,3.4-7.63h0ZM2308.57,872.05c-1.68-6.95,1.36-12.39,7.79-12.4,6.4-.01,12.03,5.35,13.72,12.36,1.68,6.95-1.32,12.39-7.79,12.4s-12.03-5.35-13.72-12.36"/>
        <path id="path148" class="cls-4" d="M1397.36,925.67c-1.05-4.35-3.99-7.63-7.17-7.61-3.17,0-4.48,3.19-3.4,7.63,1.05,4.39,3.95,7.63,7.16,7.63,3.23-.01,4.48-3.23,3.41-7.64h0ZM1381.32,925.69c-1.68-6.95,1.36-12.39,7.79-12.4,6.4-.01,12.01,5.36,13.72,12.36,1.68,6.95-1.33,12.39-7.79,12.4-6.47.01-12.03-5.35-13.72-12.36"/>
        <path id="path150" class="cls-4" d="M1429.52,925.61c-1.05-4.35-4-7.63-7.17-7.61-3.19,0-4.49,3.19-3.41,7.63,1.07,4.39,3.96,7.63,7.17,7.63,3.21-.01,4.48-3.23,3.41-7.64h0ZM1413.46,925.64c-1.68-6.95,1.36-12.39,7.8-12.4,6.39-.01,12.01,5.36,13.71,12.36,1.68,6.95-1.32,12.39-7.79,12.4-6.47.01-12.01-5.35-13.72-12.36"/>
        <path id="path152" class="cls-4" d="M2230.17,924.36c-1.05-4.33-4-7.61-7.17-7.61-3.19.01-4.49,3.19-3.41,7.64,1.07,4.37,3.96,7.61,7.17,7.61s4.48-3.23,3.41-7.64ZM2214.12,924.4c-1.68-6.95,1.36-12.4,7.8-12.4,6.39-.01,12.01,5.35,13.71,12.36,1.68,6.93-1.32,12.39-7.79,12.4-6.47,0-12.01-5.36-13.72-12.36"/>
        <path id="path154" class="cls-4" d="M2248.74,917.53l-3.97,1.03-2.15-4.31,6.45-2.07h3.63l5.84,24.11h-5.25s-4.55-18.76-4.55-18.76"/>
        <path id="path156" class="cls-4" d="M2283.65,924.28c-1.05-4.35-3.99-7.63-7.17-7.61-3.17,0-4.48,3.19-3.4,7.63,1.05,4.37,3.95,7.63,7.16,7.61,3.23,0,4.48-3.21,3.41-7.63h0ZM2267.61,924.31c-1.68-6.95,1.36-12.39,7.79-12.4,6.4-.01,12.01,5.35,13.72,12.36,1.68,6.95-1.33,12.39-7.8,12.4-6.45.01-12.01-5.36-13.71-12.36"/>
        <path id="path158" class="cls-4" d="M2401.54,924.03c-1.05-4.35-4-7.63-7.17-7.63-3.19.01-4.49,3.2-3.41,7.64,1.07,4.37,3.96,7.63,7.17,7.61,3.21,0,4.48-3.21,3.41-7.63h0ZM2385.5,924.05c-1.69-6.95,1.35-12.39,7.79-12.4,6.39-.01,12.01,5.35,13.71,12.36,1.68,6.95-1.32,12.39-7.79,12.4s-12.01-5.35-13.71-12.36"/>
        <path id="path160" class="cls-4" d="M2420.12,917.19l-3.97,1.03-2.15-4.31,6.45-2.05h3.63s5.84,24.09,5.84,24.09h-5.25s-4.55-18.76-4.55-18.76"/>
        <path id="path162" class="cls-4" d="M1370.3,1207c-1.05-4.33-3.99-7.61-7.17-7.61s-4.48,3.19-3.4,7.64c1.05,4.37,3.96,7.61,7.17,7.61,3.21-.01,4.47-3.23,3.4-7.64ZM1354.26,1207.03c-1.68-6.93,1.36-12.39,7.79-12.4,6.4,0,12.03,5.36,13.72,12.37,1.68,6.93-1.32,12.39-7.79,12.39-6.47.01-12.03-5.35-13.72-12.36"/>
        <path id="path164" class="cls-4" d="M1402.46,1206.95c-1.05-4.35-3.99-7.61-7.17-7.61s-4.48,3.19-3.41,7.64c1.07,4.37,3.96,7.61,7.17,7.61,3.21-.01,4.48-3.23,3.41-7.64ZM1386.42,1206.97c-1.68-6.93,1.36-12.39,7.79-12.4,6.4,0,12.01,5.36,13.72,12.37,1.68,6.93-1.33,12.39-7.8,12.39-6.47.01-12.01-5.35-13.71-12.36"/>
        <path id="path166" class="cls-4" d="M1421.04,1200.11l-3.97,1.04-2.15-4.31,6.45-2.07h3.63l5.84,24.11h-5.25l-4.55-18.77"/>
        <path id="path168" class="cls-4" d="M1488.1,1206.8c-1.05-4.33-3.99-7.61-7.17-7.61-3.19.01-4.48,3.19-3.41,7.64,1.07,4.37,3.96,7.61,7.17,7.61s4.48-3.23,3.41-7.64ZM1472.06,1206.83c-1.68-6.93,1.36-12.39,7.79-12.39,6.4-.01,12.01,5.35,13.72,12.36,1.68,6.93-1.33,12.39-7.8,12.4-6.47,0-12.01-5.36-13.71-12.37"/>
        <path id="path170" class="cls-4" d="M1520.25,1206.75c-1.04-4.33-3.99-7.61-7.16-7.61s-4.49,3.19-3.41,7.64c1.05,4.37,3.96,7.61,7.17,7.61s4.47-3.23,3.4-7.64ZM1504.21,1206.77c-1.68-6.93,1.36-12.39,7.79-12.39,6.4-.01,12.03,5.35,13.72,12.36,1.68,6.93-1.32,12.39-7.79,12.39-6.47.01-12.03-5.35-13.72-12.36"/>
        <path id="path172" class="cls-4" d="M1552.41,1206.69c-1.05-4.33-3.99-7.61-7.17-7.61s-4.48,3.19-3.41,7.64c1.07,4.37,3.96,7.61,7.17,7.61s4.48-3.23,3.41-7.64ZM1536.37,1206.72c-1.68-6.93,1.36-12.39,7.79-12.39,6.4-.01,12.01,5.35,13.72,12.36,1.68,6.93-1.33,12.39-7.8,12.39-6.47.01-12.01-5.35-13.71-12.36"/>
        <path id="path174" class="cls-4" d="M1953.82,1207c-1.05-4.33-4-7.61-7.17-7.61s-4.49,3.19-3.41,7.64c1.07,4.37,3.96,7.61,7.17,7.61,3.21-.01,4.48-3.23,3.41-7.64ZM1937.78,1207.03c-1.69-6.93,1.35-12.39,7.79-12.4,6.39,0,12.01,5.36,13.71,12.37,1.68,6.93-1.32,12.39-7.79,12.39-6.47.01-12.01-5.35-13.71-12.36"/>
        <path id="path176" class="cls-4" d="M1985.97,1206.95c-1.05-4.35-3.99-7.61-7.17-7.61s-4.48,3.19-3.4,7.64c1.05,4.37,3.95,7.61,7.17,7.61,3.21-.01,4.47-3.23,3.4-7.64ZM1969.93,1206.97c-1.68-6.93,1.36-12.39,7.79-12.4,6.4,0,12.03,5.36,13.72,12.37,1.68,6.93-1.32,12.39-7.79,12.39-6.47.01-12.03-5.35-13.72-12.36"/>
        <path id="path178" class="cls-4" d="M2004.56,1200.11l-3.97,1.04-2.15-4.31,6.44-2.07h3.64l5.84,24.11h-5.27l-4.53-18.77"/>
        <path id="path180" class="cls-4" d="M2169.38,1207c-1.05-4.33-3.99-7.61-7.17-7.61s-4.48,3.19-3.4,7.64c1.05,4.37,3.95,7.61,7.17,7.61,3.21-.01,4.47-3.23,3.4-7.64ZM2153.34,1207.03c-1.68-6.93,1.36-12.39,7.79-12.4,6.4,0,12.03,5.36,13.72,12.37,1.68,6.93-1.32,12.39-7.79,12.39-6.47.01-12.03-5.35-13.72-12.36"/>
        <path id="path182" class="cls-4" d="M2201.54,1206.95c-1.05-4.35-4-7.61-7.17-7.61s-4.49,3.19-3.41,7.64c1.07,4.37,3.96,7.61,7.17,7.61,3.21-.01,4.48-3.23,3.41-7.64ZM2185.5,1206.97c-1.69-6.93,1.35-12.39,7.79-12.4,6.39,0,12.01,5.36,13.71,12.37,1.68,6.93-1.32,12.39-7.79,12.39-6.47.01-12.01-5.35-13.71-12.36"/>
        <path id="path184" class="cls-4" d="M2220.12,1200.11l-3.97,1.04-2.15-4.31,6.45-2.07h3.63l5.84,24.11h-5.25l-4.55-18.77"/>
        <path id="path186" class="cls-4" d="M2071.61,1206.8c-1.05-4.33-3.99-7.61-7.17-7.61-3.17.01-4.48,3.19-3.4,7.64,1.05,4.37,3.95,7.61,7.17,7.61s4.47-3.23,3.4-7.64ZM2055.57,1206.83c-1.68-6.93,1.36-12.39,7.79-12.39,6.4-.01,12.03,5.35,13.72,12.36,1.68,6.93-1.32,12.39-7.79,12.4-6.47,0-12.03-5.36-13.72-12.37"/>
        <path id="path188" class="cls-4" d="M2103.77,1206.75c-1.05-4.33-4-7.61-7.17-7.61s-4.49,3.19-3.41,7.64c1.07,4.37,3.96,7.61,7.17,7.61s4.48-3.23,3.41-7.64ZM2087.73,1206.77c-1.69-6.93,1.35-12.39,7.79-12.39,6.39-.01,12.01,5.35,13.71,12.36,1.69,6.93-1.32,12.39-7.79,12.39-6.47.01-12.01-5.35-13.71-12.36"/>
        <path id="path190" class="cls-4" d="M2135.92,1206.69c-1.05-4.33-3.99-7.61-7.17-7.61s-4.48,3.19-3.4,7.64c1.05,4.37,3.95,7.61,7.17,7.61s4.47-3.23,3.4-7.64ZM2119.88,1206.72c-1.68-6.93,1.36-12.39,7.79-12.39,6.4-.01,12.03,5.35,13.72,12.36,1.68,6.93-1.32,12.39-7.79,12.39-6.47.01-12.03-5.35-13.72-12.36"/>
        <path id="path192" class="cls-4" d="M1662.37,1206.16c-1.05-4.35-3.99-7.63-7.17-7.63-3.17.01-4.48,3.2-3.4,7.64,1.05,4.37,3.95,7.63,7.17,7.61,3.21,0,4.47-3.23,3.4-7.63h0ZM1646.33,1206.19c-1.68-6.95,1.36-12.39,7.79-12.4,6.4-.01,12.03,5.35,13.72,12.36,1.68,6.95-1.32,12.39-7.79,12.4s-12.03-5.36-13.72-12.36"/>
        <path id="path194" class="cls-4" d="M1680.96,1199.32l-3.97,1.03-2.15-4.31,6.45-2.07h3.63l5.84,24.11h-5.25s-4.55-18.76-4.55-18.76"/>
        <path id="path196" class="cls-4" d="M1715.86,1206.07c-1.05-4.35-4-7.63-7.17-7.61-3.19,0-4.48,3.19-3.41,7.63,1.07,4.39,3.96,7.63,7.17,7.63,3.21-.01,4.48-3.23,3.41-7.64h0ZM1699.82,1206.09c-1.68-6.95,1.35-12.39,7.79-12.4,6.4-.01,12.01,5.35,13.71,12.36,1.69,6.95-1.32,12.39-7.79,12.4-6.47.01-12.01-5.35-13.71-12.36"/>
        <path id="path198" class="cls-4" d="M2351.82,1205.4c-1.05-4.35-3.99-7.63-7.17-7.61-3.17,0-4.48,3.19-3.4,7.63,1.05,4.37,3.96,7.63,7.17,7.61,3.21,0,4.47-3.21,3.4-7.63ZM2335.78,1205.43c-1.68-6.95,1.36-12.39,7.79-12.4,6.4-.01,12.03,5.35,13.72,12.36,1.68,6.95-1.32,12.39-7.79,12.4s-12.03-5.35-13.72-12.36"/>
        <path id="path200" class="cls-4" d="M2370.41,1198.56l-3.97,1.03-2.15-4.31,6.45-2.05h3.63s5.84,24.09,5.84,24.09h-5.25s-4.55-18.76-4.55-18.76"/>
        <path id="path202" class="cls-4" d="M2405.32,1205.31c-1.05-4.35-4-7.63-7.17-7.61-3.19,0-4.49,3.19-3.41,7.63,1.07,4.39,3.96,7.63,7.17,7.63,3.21-.01,4.48-3.23,3.41-7.64h0ZM2389.28,1205.33c-1.68-6.95,1.35-12.39,7.79-12.4,6.39,0,12.01,5.36,13.71,12.36,1.68,6.95-1.32,12.39-7.79,12.4-6.47.01-12.01-5.35-13.71-12.36"/>
        <path id="path204" class="cls-4" d="M1164.06,979.81l-3.97,1.03-2.15-4.31,6.45-2.07h3.63l5.84,24.11h-5.25s-4.55-18.76-4.55-18.76"/>
        <path id="path206" class="cls-4" d="M1198.97,986.56c-1.05-4.35-3.99-7.63-7.17-7.61-3.17,0-4.48,3.19-3.41,7.63,1.07,4.39,3.96,7.63,7.17,7.63,3.21-.01,4.48-3.23,3.41-7.64h0ZM1182.93,986.59c-1.68-6.95,1.36-12.39,7.79-12.4,6.4-.01,12.01,5.35,13.72,12.36,1.68,6.95-1.33,12.39-7.8,12.4s-12.01-5.35-13.71-12.36"/>
        <path id="path208" class="cls-4" d="M1381.08,986.25c-1.05-4.35-4-7.63-7.17-7.61-3.19,0-4.49,3.19-3.41,7.63,1.07,4.39,3.96,7.63,7.17,7.61,3.21,0,4.48-3.21,3.41-7.63ZM1365.02,986.28c-1.68-6.95,1.36-12.39,7.8-12.4,6.39-.01,12.01,5.35,13.71,12.36,1.68,6.95-1.32,12.39-7.79,12.4s-12.01-5.35-13.72-12.36"/>
        <path id="path210" class="cls-4" d="M1413.22,986.2c-1.05-4.35-3.99-7.63-7.17-7.61-3.17,0-4.48,3.19-3.4,7.63,1.05,4.39,3.95,7.63,7.16,7.63,3.23-.01,4.48-3.23,3.41-7.64h0ZM1397.18,986.23c-1.68-6.95,1.36-12.39,7.79-12.4,6.4-.01,12.01,5.35,13.72,12.36,1.68,6.95-1.33,12.39-7.8,12.4-6.45.01-12.01-5.35-13.71-12.36"/>
        <path id="path212" class="cls-4" d="M1445.38,986.15c-1.05-4.35-4-7.63-7.17-7.61-3.19,0-4.49,3.19-3.41,7.63,1.07,4.37,3.96,7.63,7.17,7.61,3.21,0,4.48-3.21,3.41-7.63ZM1429.33,986.17c-1.68-6.95,1.36-12.39,7.8-12.4,6.39-.01,12.01,5.35,13.71,12.36,1.68,6.95-1.32,12.39-7.79,12.4-6.47.01-12.01-5.35-13.72-12.36"/>
        <path id="path214" class="cls-4" d="M1463.96,979.31l-3.97,1.03-2.15-4.31,6.45-2.05h3.63s5.84,24.09,5.84,24.09h-5.25s-4.55-18.76-4.55-18.76"/>
        <path id="path216" class="cls-4" d="M1485.46,979.27l-3.97,1.04-2.15-4.31,6.45-2.07h3.63s5.84,24.09,5.84,24.09h-5.25s-4.55-18.76-4.55-18.76"/>
        <path id="path218" class="cls-4" d="M1520.37,986.01c-1.05-4.33-3.99-7.61-7.17-7.61s-4.48,3.19-3.41,7.64c1.07,4.37,3.96,7.61,7.17,7.61,3.21-.01,4.48-3.23,3.41-7.64ZM1504.33,986.04c-1.68-6.93,1.36-12.39,7.79-12.4,6.4,0,12.01,5.36,13.72,12.37,1.68,6.93-1.33,12.39-7.8,12.39-6.45.01-12.01-5.35-13.71-12.36"/>
        <path id="path220" class="cls-20" d="M2351.89,984.67c-1.05-4.35-3.99-7.63-7.17-7.61-3.17,0-4.48,3.19-3.41,7.63,1.07,4.39,3.96,7.63,7.17,7.61,3.21,0,4.48-3.21,3.41-7.63ZM2335.85,984.69c-1.68-6.95,1.36-12.39,7.79-12.4,6.4-.01,12.01,5.35,13.72,12.36,1.68,6.95-1.33,12.39-7.8,12.4s-12.01-5.35-13.71-12.36"/>
        <path id="path222" class="cls-20" d="M2384.04,984.61c-1.04-4.35-3.99-7.63-7.16-7.61-3.19,0-4.49,3.19-3.41,7.63,1.05,4.37,3.96,7.63,7.17,7.61,3.21,0,4.47-3.21,3.4-7.63h0ZM2368,984.64c-1.68-6.95,1.36-12.39,7.79-12.4,6.4-.01,12.03,5.35,13.72,12.36,1.68,6.95-1.32,12.39-7.79,12.4-6.47.01-12.01-5.35-13.72-12.36"/>
        <path id="path224" class="cls-4" d="M2416.2,984.56c-1.05-4.35-3.99-7.63-7.17-7.63-3.17.01-4.48,3.2-3.41,7.64,1.07,4.37,3.96,7.63,7.17,7.61,3.21,0,4.48-3.21,3.41-7.63h0ZM2400.16,984.59c-1.68-6.95,1.36-12.39,7.79-12.4,6.4-.01,12.01,5.35,13.72,12.36,1.68,6.95-1.33,12.39-7.8,12.4-6.45.01-12.01-5.35-13.71-12.36"/>
        <path id="path226" class="cls-4" d="M2434.77,977.72l-3.96,1.03-2.16-4.31,6.45-2.07h3.64l5.83,24.11h-5.25s-4.55-18.76-4.55-18.76"/>
        <path id="path228" class="cls-4" d="M1178.72,1040.35l-3.97,1.03-2.15-4.31,6.45-2.07h3.63l5.84,24.11h-5.25s-4.55-18.76-4.55-18.76"/>
        <path id="path230" class="cls-4" d="M1213.62,1047.09c-1.05-4.35-3.99-7.63-7.17-7.61-3.17,0-4.48,3.19-3.4,7.63,1.05,4.39,3.95,7.63,7.16,7.61,3.23,0,4.48-3.21,3.41-7.63ZM1197.58,1047.12c-1.68-6.95,1.36-12.39,7.79-12.4,6.4-.01,12.03,5.35,13.72,12.36,1.68,6.95-1.33,12.39-7.79,12.4-6.47.01-12.03-5.35-13.72-12.36"/>
        <path id="path232" class="cls-4" d="M1363.57,1046.84c-1.05-4.35-3.99-7.63-7.17-7.61-3.17,0-4.48,3.19-3.4,7.63,1.05,4.39,3.95,7.63,7.17,7.63,3.21-.01,4.47-3.23,3.4-7.64h0ZM1347.53,1046.87c-1.68-6.95,1.36-12.39,7.79-12.4,6.4-.01,12.03,5.35,13.72,12.36,1.68,6.95-1.32,12.39-7.79,12.4-6.47.01-12.03-5.35-13.72-12.36"/>
        <path id="path234" class="cls-4" d="M1395.73,1046.79c-1.05-4.35-4-7.63-7.17-7.61-3.19,0-4.48,3.19-3.41,7.63,1.07,4.39,3.96,7.63,7.17,7.63,3.21-.01,4.48-3.23,3.41-7.64h0ZM1379.69,1046.81c-1.68-6.95,1.35-12.39,7.79-12.4,6.4-.01,12.01,5.35,13.71,12.36,1.69,6.95-1.32,12.39-7.79,12.4s-12.01-5.35-13.71-12.36"/>
        <path id="path236" class="cls-20" d="M1273.78,1163.97c-1.05-4.35-3.99-7.63-7.17-7.63-3.17.01-4.48,3.19-3.41,7.64,1.07,4.37,3.96,7.63,7.17,7.61,3.21,0,4.48-3.23,3.41-7.63h0ZM1257.74,1164c-1.68-6.95,1.36-12.39,7.79-12.4,6.4-.01,12.01,5.35,13.72,12.36,1.68,6.93-1.33,12.39-7.8,12.4-6.47,0-12.01-5.36-13.71-12.36"/>
        <path id="path238" class="cls-20" d="M1292.36,1157.13l-3.96,1.03-2.16-4.31,6.45-2.07h3.64l5.83,24.11h-5.25s-4.55-18.76-4.55-18.76"/>
        <path id="path240" class="cls-4" d="M1192.06,1096.73l-3.97,1.04-2.15-4.31,6.45-2.07h3.63l5.84,24.11h-5.25l-4.55-18.77"/>
        <path id="path242" class="cls-4" d="M1226.97,1103.49c-1.05-4.35-3.99-7.63-7.17-7.63-3.17.01-4.48,3.2-3.4,7.64,1.05,4.37,3.95,7.63,7.16,7.61,3.23,0,4.48-3.23,3.41-7.63h0ZM1210.93,1103.52c-1.68-6.95,1.36-12.39,7.79-12.4,6.4-.01,12.01,5.35,13.72,12.36,1.68,6.95-1.33,12.39-7.79,12.4-6.47.01-12.03-5.36-13.72-12.36"/>
        <path id="path244" class="cls-4" d="M1259.13,1103.44c-1.05-4.35-4-7.63-7.17-7.63-3.19.01-4.49,3.19-3.41,7.64,1.07,4.37,3.96,7.63,7.17,7.61,3.21,0,4.48-3.23,3.41-7.63h0ZM1243.08,1103.47c-1.68-6.95,1.36-12.39,7.8-12.4,6.39-.01,12.01,5.35,13.71,12.36,1.68,6.95-1.32,12.39-7.79,12.4-6.47,0-12.01-5.36-13.72-12.36"/>
        <path id="path246" class="cls-4" d="M1277.7,1096.6l-3.97,1.03-2.15-4.31,6.45-2.07h3.63l5.84,24.11h-5.25s-4.55-18.76-4.55-18.76"/>
        <path id="path248" class="cls-4" d="M1312.61,1103.35c-1.05-4.35-3.99-7.63-7.17-7.61-3.17,0-4.48,3.19-3.4,7.63,1.05,4.37,3.95,7.63,7.17,7.61,3.21,0,4.47-3.21,3.4-7.63ZM1296.57,1103.37c-1.68-6.95,1.36-12.39,7.79-12.4,6.4-.01,12.03,5.35,13.72,12.36,1.68,6.95-1.32,12.39-7.79,12.4s-12.03-5.35-13.72-12.36"/>
        <path id="path250" class="cls-4" d="M1344.77,1103.29c-1.05-4.35-4-7.63-7.17-7.63-3.19.01-4.49,3.2-3.41,7.64,1.07,4.37,3.96,7.63,7.17,7.61,3.21,0,4.48-3.21,3.41-7.63h0ZM1328.72,1103.32c-1.68-6.95,1.36-12.39,7.8-12.4,6.39-.01,12.01,5.35,13.71,12.36,1.68,6.95-1.32,12.39-7.79,12.4-6.47.01-12.01-5.35-13.72-12.36"/>
        <path id="path252" class="cls-4" d="M1376.92,1103.24c-1.05-4.35-3.99-7.63-7.17-7.63-3.17.01-4.48,3.2-3.4,7.64,1.05,4.37,3.95,7.63,7.17,7.61,3.21,0,4.47-3.21,3.4-7.63h0ZM1360.88,1103.27c-1.68-6.95,1.36-12.39,7.79-12.4,6.4-.01,12.03,5.35,13.72,12.36,1.68,6.95-1.32,12.39-7.79,12.4s-12.03-5.35-13.72-12.36"/>
        <path id="path254" class="cls-4" d="M1409.08,1103.19c-1.05-4.35-4-7.63-7.17-7.63-3.19.01-4.48,3.2-3.41,7.64,1.07,4.37,3.96,7.63,7.17,7.61,3.21,0,4.48-3.23,3.41-7.63h0ZM1393.04,1103.21c-1.68-6.95,1.35-12.39,7.79-12.4,6.39-.01,12.01,5.35,13.71,12.36,1.69,6.95-1.32,12.39-7.79,12.4s-12.01-5.36-13.71-12.36"/>
        <path id="path256" class="cls-4" d="M1441.22,1103.13c-1.05-4.35-3.99-7.63-7.17-7.63-3.17.01-4.48,3.19-3.4,7.64,1.05,4.37,3.95,7.63,7.17,7.61,3.21,0,4.47-3.23,3.4-7.63h0ZM1425.18,1103.16c-1.68-6.95,1.36-12.39,7.79-12.4,6.4-.01,12.03,5.35,13.72,12.36,1.68,6.93-1.32,12.39-7.79,12.4-6.47.01-12.03-5.36-13.72-12.36"/>
        <path id="path258" class="cls-4" d="M1473.38,1103.08c-1.05-4.35-4-7.63-7.17-7.63-3.19.01-4.48,3.19-3.41,7.64,1.07,4.37,3.96,7.63,7.17,7.61,3.21,0,4.48-3.23,3.41-7.63h0ZM1457.34,1103.11c-1.68-6.95,1.36-12.39,7.79-12.4,6.4-.01,12.01,5.35,13.71,12.36,1.69,6.93-1.32,12.39-7.79,12.4-6.47,0-12.01-5.36-13.71-12.36"/>
        <path id="path260" class="cls-4" d="M1491.96,1096.24l-3.97,1.03-2.15-4.31,6.45-2.07h3.63l5.84,24.11h-5.25s-4.55-18.76-4.55-18.76"/>
        <path id="path262" class="cls-4" d="M1513.46,1096.2l-3.97,1.03-2.15-4.31,6.45-2.05h3.63s5.84,24.09,5.84,24.09h-5.25s-4.55-18.76-4.55-18.76"/>
        <path id="path264" class="cls-4" d="M1548.37,1102.95c-1.05-4.35-3.99-7.63-7.17-7.61-3.17,0-4.48,3.19-3.4,7.63,1.05,4.39,3.95,7.63,7.17,7.63,3.21-.01,4.47-3.23,3.4-7.64h0ZM1532.33,1102.97c-1.68-6.95,1.36-12.39,7.79-12.4,6.4-.01,12.03,5.36,13.72,12.36,1.68,6.95-1.32,12.39-7.79,12.4s-12.03-5.35-13.72-12.36"/>
        <path id="path266" class="cls-4" d="M1206.72,1157.27l-3.96,1.04-2.16-4.31,6.45-2.07h3.64l5.83,24.11h-5.25l-4.55-18.77"/>
        <path id="path268" class="cls-4" d="M1241.62,1164.03c-1.05-4.35-3.99-7.63-7.16-7.63-3.19.01-4.49,3.2-3.41,7.64,1.05,4.37,3.96,7.63,7.17,7.61,3.21,0,4.47-3.23,3.4-7.63h0ZM1225.58,1164.05c-1.68-6.95,1.36-12.39,7.79-12.4,6.4-.01,12.03,5.35,13.72,12.36,1.68,6.95-1.32,12.39-7.79,12.4s-12.01-5.36-13.72-12.36"/>
        <path id="path270" class="cls-4" d="M1327.26,1163.88c-1.04-4.35-3.99-7.63-7.16-7.63-3.19.01-4.49,3.2-3.41,7.64,1.05,4.37,3.96,7.63,7.17,7.61,3.21,0,4.48-3.21,3.4-7.63h0ZM1311.22,1163.91c-1.68-6.95,1.36-12.39,7.79-12.4,6.4-.01,12.03,5.35,13.72,12.36,1.68,6.95-1.32,12.39-7.79,12.4s-12.01-5.35-13.72-12.36"/>
        <path id="path272" class="cls-4" d="M1359.42,1163.83c-1.05-4.35-3.99-7.63-7.17-7.63-3.17.01-4.48,3.2-3.41,7.64,1.07,4.37,3.96,7.63,7.17,7.61,3.21,0,4.48-3.21,3.41-7.63h0ZM1343.38,1163.85c-1.68-6.95,1.36-12.39,7.79-12.4,6.4-.01,12.01,5.35,13.72,12.36,1.68,6.95-1.33,12.39-7.8,12.4-6.47.01-12.01-5.36-13.71-12.36"/>
        <path id="path274" class="cls-4" d="M1302.21,1298.19c-1.04-4.35-3.99-7.63-7.16-7.61-3.19,0-4.49,3.19-3.41,7.63,1.05,4.39,3.96,7.63,7.17,7.63,3.21-.01,4.48-3.23,3.4-7.64h0ZM1286.17,1298.21c-1.68-6.95,1.36-12.39,7.79-12.4,6.4-.01,12.03,5.35,13.72,12.36,1.68,6.95-1.32,12.39-7.79,12.4s-12.01-5.35-13.72-12.36"/>
        <path id="path276" class="cls-4" d="M1320.8,1291.35l-3.97,1.03-2.15-4.31,6.45-2.05h3.63s5.84,24.09,5.84,24.09h-5.25s-4.55-18.76-4.55-18.76"/>
        <path id="path278" class="cls-4" d="M1235.16,1291.49l-3.97,1.03-2.15-4.31,6.45-2.07h3.63l5.84,24.11h-5.25s-4.55-18.76-4.55-18.76"/>
        <path id="path280" class="cls-4" d="M1270.06,1298.24c-1.05-4.35-3.99-7.63-7.17-7.61-3.19,0-4.48,3.19-3.41,7.63,1.07,4.39,3.96,7.63,7.17,7.63,3.21-.01,4.48-3.23,3.41-7.64h0ZM1254.02,1298.27c-1.68-6.95,1.36-12.39,7.79-12.4,6.4-.01,12.01,5.36,13.72,12.36,1.68,6.95-1.33,12.39-7.8,12.4s-12.01-5.35-13.71-12.36"/>
        <path id="path282" class="cls-20" d="M1355.7,1298.09c-1.05-4.35-3.99-7.63-7.17-7.61-3.19,0-4.48,3.19-3.41,7.63,1.07,4.39,3.96,7.63,7.17,7.63,3.21-.01,4.48-3.23,3.41-7.64h0ZM1339.66,1298.12c-1.68-6.95,1.36-12.39,7.79-12.4,6.4,0,12.01,5.36,13.72,12.36,1.68,6.95-1.33,12.39-7.8,12.4s-12.01-5.35-13.71-12.36"/>
        <path id="path284" class="cls-20" d="M1387.85,1298.04c-1.04-4.35-3.99-7.63-7.16-7.61-3.19,0-4.49,3.19-3.41,7.63,1.05,4.39,3.96,7.63,7.17,7.63,3.21-.01,4.48-3.23,3.4-7.64h0ZM1371.81,1298.07c-1.68-6.95,1.36-12.39,7.79-12.4,6.4,0,12.03,5.36,13.72,12.36,1.68,6.95-1.32,12.39-7.79,12.4-6.47.01-12.01-5.35-13.72-12.36"/>
        <path id="path286" class="cls-4" d="M1262.49,1341.36c-1.05-4.35-4-7.63-7.17-7.61-3.19,0-4.49,3.19-3.41,7.63,1.07,4.39,3.96,7.63,7.17,7.63,3.21-.01,4.48-3.23,3.41-7.64h0ZM1246.45,1341.39c-1.69-6.95,1.35-12.39,7.79-12.4,6.39-.01,12.01,5.35,13.71,12.36,1.68,6.95-1.32,12.39-7.79,12.4-6.47.01-12.01-5.35-13.71-12.36"/>
        <path id="path288" class="cls-4" d="M1281.06,1334.52l-3.97,1.04-2.15-4.32,6.45-2.05h3.63s5.84,24.09,5.84,24.09h-5.25s-4.55-18.76-4.55-18.76"/>
        <path id="path290" class="cls-4" d="M1315.97,1341.27c-1.05-4.35-3.99-7.61-7.17-7.61s-4.48,3.19-3.4,7.64c1.05,4.37,3.95,7.61,7.17,7.61,3.21-.01,4.47-3.23,3.4-7.64ZM1299.93,1341.29c-1.68-6.93,1.36-12.39,7.79-12.4,6.4,0,12.03,5.36,13.72,12.37,1.68,6.93-1.32,12.39-7.79,12.39-6.47.01-12.03-5.35-13.72-12.36"/>
        <path id="path292" class="cls-4" d="M1348.13,1341.21c-1.05-4.35-4-7.63-7.17-7.61-3.19,0-4.49,3.19-3.41,7.63,1.07,4.39,3.96,7.63,7.17,7.63,3.21-.01,4.48-3.23,3.41-7.64h0ZM1332.09,1341.24c-1.69-6.95,1.35-12.39,7.79-12.4,6.39-.01,12.01,5.36,13.71,12.36,1.68,6.95-1.32,12.39-7.79,12.4-6.47.01-12.01-5.35-13.71-12.36"/>
        <path id="path294" class="cls-4" d="M1391.57,1163.77c-1.04-4.35-3.99-7.63-7.16-7.63-3.19.01-4.49,3.2-3.41,7.64,1.05,4.37,3.96,7.63,7.17,7.61,3.21,0,4.48-3.23,3.4-7.63h0ZM1375.53,1163.8c-1.68-6.95,1.36-12.39,7.8-12.4,6.39-.01,12.01,5.35,13.71,12.36,1.68,6.95-1.32,12.39-7.79,12.4s-12.01-5.36-13.72-12.36"/>
        <path id="path296" class="cls-4" d="M1423.73,1163.72c-1.05-4.35-3.99-7.63-7.17-7.63-3.17.01-4.48,3.19-3.4,7.64,1.05,4.37,3.95,7.63,7.16,7.61,3.21,0,4.48-3.23,3.41-7.63h0ZM1407.69,1163.75c-1.68-6.95,1.36-12.39,7.79-12.4,6.4-.01,12.01,5.35,13.72,12.36,1.68,6.95-1.33,12.39-7.8,12.4-6.45,0-12.01-5.36-13.71-12.36"/>
        <path id="path298" class="cls-20" d="M1343.05,1454.36c-1.05-4.35-3.99-7.63-7.17-7.61-3.17,0-4.48,3.19-3.4,7.63,1.05,4.39,3.95,7.63,7.16,7.63,3.23-.01,4.48-3.23,3.41-7.64h0ZM1327.01,1454.39c-1.68-6.95,1.36-12.39,7.79-12.4,6.4-.01,12.01,5.35,13.72,12.36,1.68,6.95-1.33,12.39-7.79,12.4-6.47.01-12.03-5.35-13.72-12.36"/>
        <path id="path300" class="cls-20" d="M1361.64,1447.52l-3.97,1.03-2.15-4.31,6.44-2.05h3.64s5.84,24.09,5.84,24.09h-5.27s-4.53-18.76-4.53-18.76"/>
        <path id="path302" class="cls-4" d="M1261.33,1387.13l-3.96,1.03-2.16-4.31,6.45-2.07h3.64l5.83,24.11h-5.25s-4.55-18.76-4.55-18.76"/>
        <path id="path304" class="cls-4" d="M1296.24,1393.88c-1.05-4.35-3.99-7.63-7.17-7.61-3.17,0-4.48,3.19-3.4,7.63,1.05,4.39,3.95,7.63,7.17,7.63,3.21-.01,4.47-3.23,3.4-7.64h0ZM1280.2,1393.91c-1.68-6.95,1.36-12.39,7.79-12.4,6.4-.01,12.03,5.36,13.72,12.36,1.68,6.95-1.32,12.39-7.79,12.4-6.47.01-12.03-5.35-13.72-12.36"/>
        <path id="path306" class="cls-4" d="M1328.4,1393.83c-1.05-4.35-3.99-7.63-7.17-7.61-3.19,0-4.48,3.19-3.41,7.63,1.07,4.39,3.96,7.63,7.17,7.63,3.21-.01,4.48-3.23,3.41-7.64h0ZM1312.36,1393.85c-1.68-6.95,1.36-12.39,7.79-12.4,6.4-.01,12.01,5.35,13.72,12.36,1.68,6.95-1.33,12.39-7.8,12.4-6.47.01-12.01-5.35-13.71-12.36"/>
        <path id="path308" class="cls-4" d="M1346.97,1386.99l-3.96,1.03-2.16-4.31,6.45-2.05h3.64s5.83,24.09,5.83,24.09h-5.25s-4.55-18.76-4.55-18.76"/>
        <path id="path310" class="cls-4" d="M1276,1447.67l-3.97,1.03-2.15-4.31,6.44-2.07h3.64l5.84,24.11h-5.27s-4.53-18.76-4.53-18.76"/>
        <path id="path312" class="cls-4" d="M1310.9,1454.41c-1.05-4.35-4-7.63-7.17-7.61-3.19,0-4.49,3.19-3.41,7.63,1.07,4.39,3.96,7.63,7.17,7.63,3.21-.01,4.48-3.23,3.41-7.64h0ZM1294.85,1454.44c-1.68-6.95,1.36-12.39,7.8-12.4,6.39-.01,12.01,5.35,13.71,12.36,1.68,6.95-1.32,12.39-7.79,12.4-6.47.01-12.01-5.35-13.72-12.36"/>
        <path id="path314" class="cls-4" d="M1396.54,1454.27c-1.05-4.35-4-7.63-7.17-7.61-3.19,0-4.49,3.19-3.41,7.63,1.07,4.39,3.96,7.63,7.17,7.63,3.21-.01,4.48-3.23,3.41-7.64h0ZM1380.49,1454.29c-1.68-6.95,1.36-12.39,7.8-12.4,6.39,0,12.01,5.36,13.71,12.36,1.68,6.95-1.32,12.39-7.79,12.4-6.47.01-12.01-5.35-13.72-12.36"/>
        <path id="path316" class="cls-4" d="M1428.69,1454.21c-1.05-4.35-3.99-7.63-7.17-7.61-3.17,0-4.48,3.19-3.4,7.63,1.05,4.39,3.95,7.63,7.16,7.63,3.23-.01,4.48-3.23,3.41-7.64h0ZM1412.65,1454.24c-1.68-6.95,1.36-12.39,7.79-12.4,6.4-.01,12.01,5.36,13.72,12.36,1.68,6.95-1.33,12.39-7.79,12.4-6.47.01-12.03-5.35-13.72-12.36"/>
        <path id="path318" class="cls-20" d="M1355.45,1497.09c-1.05-4.33-3.99-7.61-7.17-7.61s-4.48,3.19-3.4,7.64c1.05,4.37,3.95,7.61,7.16,7.61,3.23-.01,4.48-3.23,3.41-7.64ZM1339.41,1497.12c-1.68-6.93,1.36-12.39,7.79-12.4,6.4,0,12.01,5.36,13.72,12.37,1.68,6.93-1.33,12.39-7.8,12.39-6.45.01-12.01-5.35-13.71-12.36"/>
        <path id="path320" class="cls-20" d="M1374.02,1490.25l-3.96,1.04-2.16-4.31,6.45-2.07h3.64l5.83,24.11h-5.25l-4.55-18.77"/>
        <path id="path322" class="cls-4" d="M1323.29,1497.15c-1.04-4.33-3.99-7.61-7.16-7.61s-4.49,3.19-3.41,7.64c1.05,4.37,3.96,7.61,7.17,7.61,3.21-.01,4.48-3.23,3.4-7.64ZM1307.25,1497.17c-1.68-6.93,1.36-12.39,7.79-12.4,6.4,0,12.03,5.36,13.72,12.37,1.68,6.93-1.32,12.39-7.79,12.39-6.47.01-12.01-5.35-13.72-12.36"/>
        <path id="path324" class="cls-4" d="M1408.94,1497c-1.05-4.33-4-7.61-7.17-7.61-3.19.01-4.49,3.19-3.41,7.64,1.07,4.37,3.96,7.63,7.17,7.61,3.21,0,4.48-3.23,3.41-7.64ZM1392.89,1497.04c-1.68-6.95,1.36-12.39,7.8-12.4,6.39-.01,12.01,5.35,13.71,12.36,1.68,6.93-1.32,12.39-7.79,12.4-6.47,0-12.01-5.36-13.72-12.36"/>
        <path id="path326" class="cls-4" d="M1441.09,1496.95c-1.05-4.33-3.99-7.61-7.17-7.61-3.17.01-4.48,3.19-3.41,7.64,1.07,4.37,3.96,7.61,7.17,7.61s4.48-3.23,3.41-7.64ZM1425.05,1496.97c-1.68-6.93,1.36-12.39,7.79-12.39,6.4-.01,12.01,5.35,13.72,12.36,1.68,6.93-1.33,12.39-7.8,12.39-6.45.01-12.01-5.35-13.71-12.36"/>
        <path id="path328" class="cls-4" d="M1460.85,1454.16c-1.05-4.35-4-7.63-7.17-7.61-3.19,0-4.49,3.19-3.41,7.63,1.07,4.39,3.96,7.63,7.17,7.63,3.21-.01,4.48-3.23,3.41-7.64h0ZM1444.81,1454.19c-1.69-6.95,1.35-12.39,7.79-12.4,6.39-.01,12.01,5.36,13.71,12.36,1.68,6.95-1.32,12.39-7.79,12.4s-12.01-5.35-13.71-12.36"/>
        <path id="path330" class="cls-4" d="M1493,1454.11c-1.05-4.35-3.99-7.63-7.17-7.61-3.17,0-4.48,3.19-3.4,7.63,1.05,4.39,3.95,7.63,7.17,7.63,3.21-.01,4.47-3.23,3.4-7.64h0ZM1476.96,1454.13c-1.68-6.95,1.36-12.39,7.79-12.4,6.4-.01,12.03,5.35,13.72,12.36,1.68,6.95-1.32,12.39-7.79,12.4-6.47.01-12.03-5.35-13.72-12.36"/>
        <path id="path332" class="cls-4" d="M2331.64,1038.45l-3.97,1.03-2.15-4.31,6.45-2.07h3.63l5.84,24.11h-5.25s-4.55-18.76-4.55-18.76"/>
        <path id="path334" class="cls-4" d="M2366.54,1045.2c-1.05-4.35-3.99-7.63-7.17-7.61-3.17,0-4.48,3.19-3.4,7.63,1.05,4.37,3.95,7.63,7.16,7.61,3.23,0,4.48-3.21,3.41-7.63h0ZM2350.5,1045.23c-1.68-6.95,1.36-12.39,7.79-12.4,6.4-.01,12.03,5.35,13.72,12.36,1.68,6.95-1.33,12.39-7.79,12.4-6.47.01-12.03-5.35-13.72-12.36"/>
        <path id="path336" class="cls-4" d="M2398.7,1045.15c-1.05-4.35-4-7.63-7.17-7.61-3.19,0-4.49,3.19-3.41,7.63,1.07,4.37,3.96,7.63,7.17,7.61,3.21,0,4.48-3.21,3.41-7.63ZM2382.65,1045.17c-1.68-6.95,1.36-12.39,7.8-12.4,6.39-.01,12.01,5.35,13.71,12.36,1.68,6.95-1.32,12.39-7.79,12.4-6.47.01-12.01-5.35-13.72-12.36"/>
        <path id="path338" class="cls-4" d="M2430.85,1045.09c-1.05-4.35-3.99-7.63-7.17-7.63-3.17.01-4.48,3.2-3.4,7.64,1.05,4.37,3.95,7.63,7.17,7.61,3.21,0,4.47-3.23,3.4-7.63h0ZM2414.81,1045.12c-1.68-6.95,1.36-12.39,7.79-12.4,6.4-.01,12.03,5.35,13.72,12.36,1.68,6.95-1.32,12.39-7.79,12.4s-12.03-5.36-13.72-12.36"/>
        <path id="path340" class="cls-4" d="M2449.44,1038.25l-3.97,1.03-2.15-4.31,6.45-2.07h3.63l5.84,24.11h-5.25s-4.55-18.76-4.55-18.76"/>
        <path id="path342" class="cls-4" d="M2313.06,1103.01c-1.05-4.33-4-7.61-7.17-7.61-3.19.01-4.49,3.19-3.41,7.64,1.07,4.37,3.96,7.63,7.17,7.61,3.21,0,4.48-3.23,3.41-7.64ZM2297.02,1103.05c-1.69-6.95,1.35-12.39,7.79-12.4,6.39-.01,12.01,5.35,13.71,12.36,1.68,6.93-1.32,12.39-7.79,12.4-6.47,0-12.01-5.36-13.71-12.36"/>
        <path id="path344" class="cls-4" d="M2331.64,1096.17l-3.97,1.04-2.15-4.31,6.45-2.07h3.63l5.84,24.11h-5.25s-4.55-18.77-4.55-18.77"/>
        <path id="path346" class="cls-20" d="M2366.54,1102.93c-1.05-4.35-3.99-7.63-7.17-7.63-3.17.01-4.48,3.2-3.4,7.64,1.05,4.37,3.95,7.63,7.16,7.61,3.23,0,4.48-3.23,3.41-7.63h0ZM2350.5,1102.96c-1.68-6.95,1.36-12.39,7.79-12.4,6.4-.01,12.03,5.35,13.72,12.36,1.68,6.95-1.33,12.39-7.79,12.4-6.47.01-12.03-5.36-13.72-12.36"/>
        <path id="path348" class="cls-20" d="M2398.7,1102.88c-1.05-4.35-4-7.63-7.17-7.63-3.19.01-4.49,3.19-3.41,7.64,1.07,4.37,3.96,7.63,7.17,7.61,3.21,0,4.48-3.23,3.41-7.63h0ZM2382.65,1102.91c-1.68-6.95,1.36-12.39,7.8-12.4,6.39-.01,12.01,5.35,13.71,12.36,1.68,6.95-1.32,12.39-7.79,12.4s-12.01-5.36-13.72-12.36"/>
        <path id="path350" class="cls-20" d="M2430.85,1102.83c-1.05-4.35-3.99-7.63-7.17-7.63-3.17.01-4.48,3.19-3.4,7.64,1.05,4.37,3.95,7.63,7.17,7.61,3.21,0,4.47-3.23,3.4-7.63h0ZM2414.81,1102.85c-1.68-6.95,1.36-12.39,7.79-12.4,6.4-.01,12.03,5.35,13.72,12.36,1.68,6.95-1.32,12.39-7.79,12.4-6.47.01-12.03-5.36-13.72-12.36"/>
        <path id="path352" class="cls-20" d="M2449.44,1095.99l-3.97,1.03-2.15-4.31,6.45-2.07h3.63l5.84,24.11h-5.25s-4.55-18.76-4.55-18.76"/>
        <path id="path354" class="cls-4" d="M2442.89,1429.56l-3.96,1.03-2.16-4.31,6.45-2.07h3.64l5.83,24.11h-5.25s-4.55-18.76-4.55-18.76"/>
        <path id="path356" class="cls-4" d="M2477.8,1436.31c-1.04-4.35-3.99-7.63-7.16-7.61-3.19,0-4.49,3.19-3.41,7.63,1.05,4.39,3.96,7.63,7.17,7.63,3.21-.01,4.48-3.23,3.4-7.64h0ZM2461.76,1436.33c-1.68-6.95,1.36-12.39,7.79-12.4,6.4-.01,12.03,5.35,13.72,12.36,1.68,6.95-1.32,12.39-7.79,12.4-6.47.01-12.01-5.35-13.72-12.36"/>
        <path id="path358" class="cls-4" d="M2509.96,1436.25c-1.05-4.35-3.99-7.63-7.17-7.61-3.17,0-4.48,3.19-3.41,7.63,1.07,4.37,3.96,7.63,7.17,7.61,3.21,0,4.48-3.21,3.41-7.63ZM2493.92,1436.28c-1.68-6.95,1.36-12.39,7.79-12.4,6.4-.01,12.01,5.35,13.72,12.36,1.68,6.95-1.33,12.39-7.8,12.4s-12.01-5.35-13.71-12.36"/>
        <path id="path360" class="cls-4" d="M2411.3,1468.8l-3.97,1.03-2.15-4.31,6.45-2.05h3.63s5.84,24.09,5.84,24.09h-5.25s-4.55-18.76-4.55-18.76"/>
        <path id="path362" class="cls-4" d="M2446.21,1475.55c-1.05-4.35-3.99-7.63-7.17-7.61-3.17,0-4.48,3.19-3.4,7.63,1.05,4.39,3.95,7.63,7.16,7.63,3.23-.01,4.48-3.23,3.41-7.64h0ZM2430.17,1475.57c-1.68-6.95,1.36-12.39,7.79-12.4,6.4-.01,12.01,5.36,13.72,12.36,1.68,6.95-1.33,12.39-7.8,12.4-6.45.01-12.01-5.35-13.71-12.36"/>
        <path id="path364" class="cls-4" d="M2478.37,1475.49c-1.05-4.35-4-7.63-7.17-7.61-3.19,0-4.49,3.19-3.41,7.63,1.07,4.39,3.96,7.63,7.17,7.63,3.21-.01,4.48-3.23,3.41-7.64h0ZM2462.32,1475.52c-1.68-6.95,1.36-12.39,7.8-12.4,6.39-.01,12.01,5.36,13.71,12.36,1.68,6.95-1.32,12.39-7.79,12.4-6.47.01-12.01-5.35-13.72-12.36"/>
        <path id="path366" class="cls-4" d="M2542.1,1436.2c-1.04-4.35-3.99-7.63-7.16-7.63-3.19.01-4.49,3.2-3.41,7.64,1.07,4.37,3.96,7.63,7.17,7.61,3.21,0,4.48-3.21,3.4-7.63h0ZM2526.06,1436.23c-1.68-6.95,1.36-12.39,7.8-12.4,6.39-.01,12.01,5.35,13.71,12.36,1.68,6.95-1.32,12.39-7.79,12.4s-12.01-5.35-13.72-12.36"/>
        <path id="path368" class="cls-4" d="M2560.69,1429.36l-3.97,1.03-2.15-4.31,6.45-2.07h3.63l5.84,24.11h-5.25s-4.55-18.76-4.55-18.76"/>
        <path id="path370" class="cls-6" d="M2994.26,1157.84c11.95-1.12,39.41,2.09,57.35,26.57s5.52,53.35,50.36,75.59c44.84,22.24,38.4,50.29,29.43,85.48-8.96,35.19-46.56,77.72-91.4,75.64-44.84-2.07-121.52-94.39-118.76-125.35,2.76-30.95,16.08-34.65,5.52-55.12-16.56-32.07,14.13-77.75,67.51-82.81"/>
        <path id="path372" class="cls-17" d="M3011.76,1304.68c.23-.32.35-.51.32-.52-4.96-1.77-5.39-9.03-.79-39.21l-2.39.11-40.03,1.92s-.93,12.36-2.63,23.89c-.33,2.29-.69,4.56-1.09,6.68-30.12,30,34.72,43.56,46.6,7.13"/>
        <path id="path374" class="cls-15" d="M2929.94,2116.88h86.48s2.08-13.17-2.44-23.17c-4.33-9.6-11.07-15.52-11.68-22.87-5.49,5.65-12.25,9.29-24.76,7.61-1.53,2.48-9.89,15.77-15,19.45-5.65,4.05-30.85,2.61-32.6,18.97"/>
        <path id="path376" class="cls-11" d="M3031.45,1763.37c-8.05,19.88-14.25,37.95-12.31,53.88v.09c.24,1.76.56,3.48.99,5.2,28.37,113.47-11.85,261.23-11.85,261.23,0,0-10.63,2.47-18.32,3.15-13.64,1.21-15.63-2.84-15.63-2.84,0,0-13.53-120.49-57.35-350.84-6.32-33.27-8.81-51.68-11.09-81.25-.69-8.85-1.35-18.71-2.08-30.25-1.99-31.04,2.72-83.29,26.01-97.01,10.6-6.27,25.03-4.55,44.43,10.73,1.53,1.21,2.99,2.65,4.69,3.88,119.16,85.77,77.13,163.37,52.51,224.04"/>
        <path id="path378" class="cls-16" d="M3019.14,1817.25c-1.33-4.67-44.2-154.41-44.92-165.79-1.56-24.47,55.09,43.09,57.23,111.91-8.05,19.88-14.25,37.95-12.31,53.88"/>
        <path id="path380" class="cls-15" d="M3322.4,1934.88l-36-78.64s-12.84,3.6-20.05,11.87c-6.92,7.93-11.93,6.52-27.71-4.43,5.93,9.17,6.73,14.57,10.41,26.65,2.89.35,19.39,16.31,36.28,20.71,6.73,1.75,21.45,29.07,37.07,23.84"/>
        <path id="path382" class="cls-11" d="M2945.02,1559.23s77.49,269.4,105.89,286.75c28.39,17.33,168.79,51.83,210.24,60.11,0,0,1.48-11.21-.69-22.53-.48-2.52-4.76-11.56-4.76-11.56,0,0-73.72-73.76-145.76-84.09-15.08-2.16,6.05-237.73-96.28-246.96-93.47-8.44-68.64,18.29-68.64,18.29"/>
        <path id="path384" class="cls-17" d="M2830.14,1135.27s1.73-8.63,3.69-15.23c.85-2.91-5.16-22.07-9.32-24.43-4.16-2.35-15,10.55-11.93,20.45,1.57,5.08,4.16,21.64,4.16,21.64l13.4-2.44"/>
        <path id="path386" class="cls-17" d="M3187.98,1151.28c.52,1.09,1.27,3.05,1.92,4.89.01-.51.01-1,.03-1.48.03-3.67,13.71-23.59,19.32-24.84,5.63-1.24,13.56,17.43,6.53,27.73-3.6,5.31-14.49,24.2-14.49,24.2l-12.07-7.29s-.08-5.08-3.33-9.2c-1.64-2.08-1.69-11.85-2.28-16.11,0,0,2.41-1.93,4.37,2.09"/>
        <path id="path388" class="cls-22" d="M2968.88,1266.97s-.93,12.36-2.63,23.89c21.85,2.63,36.31-15.51,42.65-25.81l-40.03,1.92"/>
        <path id="path390" class="cls-6" d="M3016.41,1260s15.31-17.73,20.77-34.03c3.89-11.63,4.4-56.83-41.07-57.07,0,0-13.11-.65-26.48,5.75-10.64,5.09-26.68,17.11-16.84,58.08l2.11,13.65,61.51,13.61"/>
        <path id="path392" class="cls-17" d="M2958.22,1276.72s55.79,9.24,61.01-25.6c5.21-34.83,15.93-57.09-19.47-64.47s-44.33,4.88-48.89,16.08c-4.57,11.2-7.04,70.68,7.35,73.99"/>
        <path id="path394" class="cls-6" d="M2968.84,1181.79s14.83,43.37,37.43,52.91c22.6,9.55,33.73,4.76,33.73,4.76,0,0-15.91-17-15.92-42.55,0,0-40.8-32.85-55.24-15.12"/>
        <path id="path396" class="cls-6" d="M2977.73,1185.89s-10.28,2.71-19.41,13.75c-6,7.24-8.11,17.31-10.8,27.25,0,0-7.4-29.49,7.89-43.28,16.23-14.63,22.32,2.28,22.32,2.28"/>
        <path id="path398" class="cls-7" d="M3203.52,1181.95s-12.25,100.07-38.09,123.99c-17.93,16.6-81.4,43.39-96.56,68.07-1.81,2.95-4.03,11.29-5.76,23.68-5.13,36.28-6.4,107.12,17.23,178.25,1.09,3.29,2.24,6.59,3.45,9.88,3.21,8.79-1.12,18.52-9.93,21.65-11.11,3.96-27.44,8.92-46.75,12.23-3.67.64-7.47,1.2-11.32,1.69-53.24,6.76-89.27-5.73-107.57-14.97-8.64-4.36-13.87-13.44-13.33-23.11,1.09-19.75,10.99-39.28,15.44-86.76,3.37-36.03-21.21-86.83-19.89-106,.52-7.57,4.27-41.23.45-46.44-25.32-34.77-67.91-68.08-74.45-99.83-7.55-36.61-2.67-109.65-2.67-109.65,2.09-.73,7.79-2.99,11.83-2.99,7.17-.01,12.23,6.6,12.23,6.6,0,0,19,71.16,19.96,75.95,5.05,25.52,53.6,62.51,68.29,69.92,16.11,8.15,28.97,12.51,39.11,13.45,0,0-11.97,20.68,5.73,23.55,21.32,3.45,37.79-21.05,37.79-21.05,0,0,12.95,3.64,36.27.2,19.35-2.84,88.21-26.12,98.16-43.79,7.25-12.85,45.48-84.11,45.48-84.11,0,0,3.55-2.07,9.25.91,5.64,2.93,5.67,8.68,5.67,8.68"/>
        <path id="path400" class="cls-12" d="M2974.42,1257.8s-2.39,4.81-5.6,4.91c-3.2.08-11.36-.69-11.92-1.52-.55-.83-1.91-5.87-1.91-5.87,0,0,13.49-.53,19.43,2.48"/>
        <path id="path402" class="cls-4" d="M3080.33,1575.93s-47.89-8.21-51.07-42.29c-3.39-36.32,33.8-136.03,33.8-136.03l.04.07c-5.13,36.28-6.4,107.12,17.23,178.25"/>
        <path id="path404" class="cls-20" d="M2963.61,737.23l-4.99-18.31c-5.36-19.63-22.09-34.04-42.29-36.43l-130.15-15.37-9.76,82.59-41.64,352.59,538.4,63.59,41.64-352.57-304.67-35.99c-22.24-2.63-40.65-18.49-46.55-40.09"/>
        <path id="path406" class="cls-12" d="M2836.13,941.35l3.71-31.37,115.72-35.2-3.79,32.05-80.57,22.52,73.11,40.68-3.84,32.51-104.33-61.19"/>
        <path id="path408" class="cls-12" d="M3074.32,850.77l29.33,3.47-125.57,198.6-29.32-3.47,125.56-198.6"/>
        <path id="path410" class="cls-12" d="M3215.81,954.39l-3.71,31.36-115.71,35.2,3.79-32.05,80.56-22.52-73.09-40.67,3.84-32.51,104.32,61.19"/>
        <path id="path412" class="cls-17" d="M3184.96,1162.63s-1.59-13.87-2.97-16.45c-1.37-2.59,2.07-3.33,5,2.59,2.95,5.93,8.8,4.15,11.73,10.01,2.93,5.85.35,7.41-3.28,7.07-3.61-.35-10.48-3.21-10.48-3.21"/>
        <path id="path414" class="cls-17" d="M2831.12,1130.77s7.89-8.55,7.85-12.36c-.04-3.83,5.52-13.28,3.97-15-1.56-1.73-4.31,1.03-5.77,3.61-1.48,2.59-7.51,2.43-8.89,9.49-1.37,7.07,2.84,14.25,2.84,14.25"/>
        <path id="path416" class="cls-2" d="M1581.14,1086.93l204.44,89.55v-79.68l-106.52-43.8,106.52-43.8v-78.93l-204.44,89.55v67.12"/>
        <path id="path418" class="cls-2" d="M1973.54,875.08l-176.65,369.27h74.67l176.65-369.27h-74.67"/>
        <path id="path420" class="cls-2" d="M2061.89,930.27v79.68l106.52,43.8-106.52,43.8v78.93l204.44-89.55v-67.12l-204.44-89.55"/>
        <path id="path422" class="cls-2" d="M1796.89,1244.35v-21.09h74.67v21.09h-74.67"/>
        <path id="path424" class="cls-2" d="M2048.21,853.99v21.09h-34.88v-21.08h34.88"/>
        <path id="path426" class="cls-19" d="M1581.14,1065.85l204.44,89.55v-79.68l-106.52-43.8,106.52-43.81v-78.93l-204.44,89.55v67.13"/>
        <path id="path428" class="cls-19" d="M1973.54,853.99l-176.65,369.27h74.67l176.65-369.27h-74.67"/>
        <path id="path430" class="cls-19" d="M2061.89,909.17v79.68l106.52,43.81-106.52,43.8v78.93l204.44-89.55v-67.13l-204.44-89.55"/>
        <path id="path432" class="cls-4" d="M2727.72,1653.43h-12.45l-101.91-388.85-131-499.87H1019.37l221.61,888.72-15.81.16-224.29-900.95,1491.77-1.29,1.31,4.97,130.96,502.56,102.8,394.55"/>
        <path id="path434" class="cls-7" d="M2729.97,1662.09l-12.01,1.61-104.6-399.13,11.56-5.69,105.05,403.21"/>
        <path id="path436" class="cls-17" d="M1228.42,974.07c-2.72,3.13-3.08,6.63-1.72,10.37l.03.05c2.49,6.91,10.76,14.61,20.36,22.32,1.21,1,2.31,1.89,3.27,2.73.24.21.49.43.73.65.19.17.37.35.56.51,8.95,8.25,5.57,10.13,21.65,26.88,18.33,19.07,30.95,19.41,34.53,17.67,3.04-1.48-3.13-11.59-9.96-22.96-.33-.55-.67-1.11-1-1.65-.91-1.51-1.81-3.05-2.72-4.57-8.01-13.68-5.96-20.09-4.05-40.45,1.53-16.55,25.73-92.44,25.73-92.44l-35.12-6.05s-10.57,60.43-22.23,69.75c-6.24,4.96-13.21,5.01-19.2,8.69-.43.25-.84.52-1.25.79-3.4,2.25-6.87,4.59-9.61,7.72"/>
        <path id="path438" class="cls-16" d="M1228.42,974.07c-2.72,3.13-3.08,6.63-1.72,10.37l.03.05c3.05,6.89,11.11,14.57,20.39,22.25,1.21,1,2.28,1.93,3.24,2.8.24.21.49.43.73.65.19.17.37.35.56.51,8.95,8.25,5.57,10.13,21.65,26.88,18.33,19.07,30.95,19.41,34.53,17.67,3.04-1.48-3.13-11.59-9.96-22.96-3.57-1.31-20.15-8.04-32.68-24.07-11.04-14.09-18.4-32.19-25.91-42.67-.43.25-.84.52-1.25.79-3.4,2.25-6.87,4.59-9.61,7.72"/>
        <path id="path440" class="cls-17" d="M1511.65,952.13c2.17,10.84,17.63,9.04,34.89,4.81,17.27-4.21,13.16.8,37.73-1.92s32.03-11.88,32.77-15.53c.67-3.25-11.47-4.39-24.49-5.89-1.64-.19-3.28-.39-4.93-.59-14.71-1.84-25.47-11.33-38.83-19.13-12.65-7.37-31.53-37.45-31.53-37.45l-33.71,2.68s17.69,26.85,24.53,38.53c4.03,6.87,3.81,15.95,3.31,22.96-.27,3.81-.51,7.72.25,11.53"/>
        <path id="path442" class="cls-16" d="M1546.54,956.95c17.27-4.21,13.16.8,37.73-1.92s32.03-11.88,32.77-15.53c.67-3.25-11.47-4.39-24.49-5.89l-.12.25s-14.75,10.45-35.2,10.93c-16.67.41-34.33-4.37-45.84-4.19-.27,3.81-.51,7.72.25,11.53,2.17,10.84,17.63,9.04,34.89,4.81"/>
        <path id="path444" class="cls-2" d="M1382.5,736.64l-31.51,84.77-41.13,110.69s-11.16,1.08-21.84-2c-9.84-2.84-21.13-10.28-21.13-10.28,0,0,11.41-118.85,32.72-187.08,5.47-17.51,11.59-31.68,18.33-39.65,33.03-39.03,64.56,43.55,64.56,43.55"/>
        <path id="path446" class="cls-11" d="M1350.48,602.01c-20.64-6.67-79.51,1.88-138.64,13.47l-12.39-20.43-127.73-9.97s-42.15,93.47-19.07,153.03c3.39,8.75,10.13,14.36,21.62,14.55h1.87s76.02-.04,100.7-.04c63.52,0,134.43-43.67,143.6-45.51,15.03-3,21.03,27.03,36.04,58.56s141.13,139.64,141.13,139.64c0,0,19.39.19,27.4-2.81,8.61-3.23,11.76-7.43,11.76-7.43,0,0-139.75-278.04-186.29-293.05"/>
        <path id="path448" class="cls-19" d="M1157.13,206.21c-17.89-4.6-42.4-.01-46.45.39-48.61,4.79-64.93,59-57.58,101.05,6.79,38.83-12.9,49.56-35.72,80.23-45.75,61.47-15.85,113.31,20.25,126.67,21.66,8.01,51.73-12.21,51.73-12.21.54.23,94.5-61.55,133-96.37,64.15-25.09-19.63-188.01-65.24-199.75"/>
        <path id="path450" class="cls-17" d="M1164.3,384.03c1.28,4.49-19.97,12.76-36.2,9.72-15.27-2.84-32.38-20.72-28.85-22.4,5.84-2.77,9.77-9.68,6.57-47l2.91.32,48.85,5.59s.15,15.21,1.28,29.47c.95,11.96,3.36,16.97,5.44,24.31"/>
        <path id="path452" class="cls-22" d="M1157.58,330.25s.15,15.21,1.28,29.47c-26.96,1.44-43.19-21.92-50.13-35.05l48.85,5.59"/>
        <path id="path454" class="cls-17" d="M1167.66,343s-63.55,6.27-66.84-33.36c-3.29-39.64-13.71-65.52,26.72-71.2,40.44-5.68,49.59,8.79,53.91,21.75,4.32,12.96,2.67,80.16-13.79,82.81"/>
        <path id="path456" class="cls-19" d="M1160.86,232.19s-8.01,48.41-44.2,59.91c-26.41,8.39-38.36,2.85-38.36,2.85,0,0,12.71-16.85,17.23-40.28,1.33-6.91,6.24-12.6,12.92-14.79,18.76-6.17,41.49-23.05,52.41-7.69"/>
        <path id="path458" class="cls-19" d="M1148.88,242.51s11.99,2.67,22.6,18.12c5.8,8.45,12.51,29.73,11.36,39.17,0,0,11.13-44.83-5.09-61.49-17.2-17.68-28.87,4.2-28.87,4.2"/>
        <path id="path460" class="cls-20" d="M1049.88,514.23c1.13,4.81,2.1,9.24,2.89,13.33,1.29,6.59,2.18,12.27,2.81,17.28,1.94,15.64,1.35,24.89,2.67,35.03.73,5.67,2.06,11.61,4.75,19.07,2.63,7.27,71.69,13.73,110.98,11.13,12.47-.81,21.97-2.57,25.35-5.48,14.01-12.17,12.63,14.6,14.55-113.51.93-62.49-53.03-118.15-53.03-118.15,0,0-4.31,26.69-57.81-5.07-1.9-1.12-22.97,30.08-43.25,68.51-22.35,42.44-16.22,51.43-9.91,77.85"/>
        <path id="path462" class="cls-19" d="M1351,821.41l-41.13,110.69s-11.16,1.08-21.84-2c-9.84-2.84-21.13-10.28-21.13-10.28,0,0,11.41-118.85,32.72-187.08l51.39,88.67"/>
        <path id="path464" class="cls-20" d="M1160.86,372.93s55.05,9.33,61.51,33.03c6.47,23.71,51.13,156.28,51.13,156.28,0,0-34.6,11.81-47.53-1.12-12.93-12.93-44.99-119.96-44.99-119.96l-20.12-68.23"/>
        <path id="path466" class="cls-17" d="M1385.29,531.77l13.04-5.17s7.84-1.73,12.08-.4,14.84,1.19,14.89,2.93c.05,1.73-12.08,7.15-12.08,7.15l-.39-.15c4.61,10.44,27.67,16.4,28.79,20.23,1.35,4.64-9.39,7.04-15.23,8.49-5.84,1.45-20.16,1.31-27.23-6.13-5.15-5.45-13.88-12.93-13.88-12.93v-14.01"/>
        <path id="path468" class="cls-12" d="M1153,319.63s2.67,6.52,9.71,6.52,8.93-1.05,10.27-2.55c1.33-1.48,2.65-4.36,2.65-4.36,0,0-11.67-2.29-22.63.39"/>
        <path id="path470" class="cls-20" d="M1258.16,516.43l133.29,10.17s2.79,12.93-5.81,27.59c0,0-120.24,23.51-151.63,11.51-31.37-12.01-27.84-68.63-27.84-68.63l51.99,19.36"/>
        <path id="path472" class="cls-23" d="M1055.58,544.84c1.94,15.64,1.35,24.89,2.67,35.03,49.99.16,116.82-38.6,116.82-38.6l-119.49,3.57"/>
        <path id="path474" class="cls-23" d="M1175.06,508.48s-77.87-2.32-91-46.59c-14.42-48.63-30.57,20-30.57,20l8.59,43.8h85.44l27.53-17.21"/>
        <path id="path476" class="cls-7" d="M1310.82,388.37l-4.2-10.43c-4.52-11.17-15.36-18.48-27.41-18.48h-77.63v259.56h321.13v-210.31h-181.72c-13.27,0-25.2-8.05-30.17-20.35"/>
        <path id="path478" class="cls-12" d="M1250.02,517.31v-18.72l65.63-28.75v19.12l-45.84,18.85,45.84,18.84v19.4l-65.63-28.75"/>
        <path id="path480" class="cls-12" d="M1383.84,447.48h17.49l-60.07,125.55h-17.48l60.05-125.55"/>
        <path id="path482" class="cls-12" d="M1474.28,498.59v18.72l-65.63,28.75v-19.12l45.83-18.85-45.83-18.84v-19.4l65.63,28.75"/>
        <path id="path484" class="cls-17" d="M1175.06,518.75l5.63-8.85s4.47-1.45,10.72-5.84c7.44-5.23,6.45-13.05,10.17-12.21l.04,17.19-.4.07c15.96,4.25,34.63-.37,35,3.6,1.03,10.93-7.43,15.85-14.52,19.28-5.41,2.61-11.57,6.55-21.37,3.49-7.16-2.23-18.43-4.49-18.43-4.49l-6.84-12.23"/>
        <path id="path486" class="cls-20" d="M1103.04,367.87s-50.55,3.31-63.19,23.03-28.31,119.81-21.74,154.2c6.57,34.37,168.45-6.57,168.45-6.57l-5.16-29.83s-93.42.53-98.75-11.63c-7.08-16.19,20.39-129.2,20.39-129.2"/>
        <path id="path488" class="cls-17" d="M1347.05,408.61c-.43,1.31,7.6,14.55,19.08,12.25,7.16-1.44,16.47-16.85,8.29-20.25-13.64-5.67-26.21,4.49-27.37,8"/>
      </g>
    </g>
  </g>
</svg>