<svg xmlns="http://www.w3.org/2000/svg" width="549" height="113" viewBox="0 0 549 113" fill="none"><path d="M18.7026 0.275652H13.2261L0.00168061 13.5017L0 112.486H18.701L18.7026 0.275652Z" fill="white"></path><path d="M130.929 13.2262V112.486H149.63V65.734H168.252V47.0331H149.63V18.7045H187.171V0.00349899H144.153L130.929 13.2262Z" fill="white"></path><path d="M37.4041 -1.16091e-05V67.8321L37.4125 67.812L46.7629 51.1891L56.105 67.7649V18.7009H93.5254V112.486H112.228V13.2261L99.007 -1.16091e-05H37.4041Z" fill="white"></path><path d="M56.1046 84.4353L46.7542 67.8107L37.4037 84.4353V112.487H56.1046V84.4353Z" fill="white"></path><path d="M257.36 -1.16091e-05H231.081L247.703 9.35047L231.111 18.7009H251.883V93.787H214.458V18.7009L231.079 9.35047L214.458 -1.16091e-05H195.757V112.486H270.584V13.2261L257.36 -1.16091e-05Z" fill="white"></path><path d="M530.237 47.5441H511.617V66.2467H530.237V94.2982H492.696V19.2172H530.237V47.5441ZM473.995 0.514523V112.999H535.717L548.938 99.7764V63.369L542.328 56.7585L548.938 50.1463V13.7356L535.715 0.514523H473.995Z" fill="white"></path><path d="M417.749 82.7142L408.468 99.2128L399.1 82.5899L399.048 82.4958V99.7739L412.273 113H455.291V94.299H417.749V82.7142Z" fill="white"></path><path d="M399.049 65.9675L408.397 82.5921L417.75 65.9675H436.372V47.2666H417.75V19.2135H455.291V0.512518H399.049V65.9675Z" fill="white"></path><path d="M361.646 0.78921V94.299H342.941V54.4495L342.94 54.4528L336.331 47.8406H330.852L324.24 54.4528V94.299H305.539V0.78921H300.063L286.838 14.0102V112.998H380.345L380.347 14.0136L367.125 0.78921H361.646Z" fill="white"></path></svg>