<svg width="121" height="40" viewBox="0 0 121 40" fill="none" xmlns="http://www.w3.org/2000/svg">
<path d="M5.728 1.08V39H0.208V1.08H5.728ZM26.5158 39H20.6118L14.8997 15.336H14.7078V39H9.95575V1.08H16.0518L21.5238 25.416H21.7158V1.08H26.5158V39ZM36.1945 39H30.6745V1.08H41.7145V5.64H36.1945V11.256H41.5225V15.816H36.1945V39ZM59.8638 8.568V31.464C59.8638 38.52 58.4718 39.48 51.9438 39.48C45.4158 39.48 44.0718 38.52 44.0718 31.464V8.568C44.0718 1.56 45.4158 0.599999 51.9438 0.599999C58.4718 0.599999 59.8638 1.56 59.8638 8.568ZM54.2958 31.464V8.568C54.2958 6.024 53.9598 5.544 51.9918 5.544C49.9278 5.544 49.5918 6.072 49.5918 8.568V31.464C49.5918 34.104 49.9278 34.584 51.8958 34.584C54.0078 34.584 54.2958 34.008 54.2958 31.464ZM61.5258 1.08H67.0458L68.6298 30.888H68.8218L71.3658 1.08H78.4218L80.5818 30.888H80.7738L82.8378 1.08H88.4058L83.9898 39H76.9818L74.9658 8.904H74.7738L72.1338 39H65.0298L61.5258 1.08ZM101.616 34.248V39H90.7683V1.08H101.568V5.64H96.2883V11.16H101.424V15.528H96.2883V34.248H101.616ZM117.215 17.016C119.231 17.496 120.623 18.6 120.623 23.208V31.224C120.623 37.992 119.231 39 112.703 39H104.831V1.08H112.703C119.231 1.08 120.623 2.04 120.623 8.808V11.64C120.623 15.576 118.511 16.632 117.215 16.824V17.016ZM110.351 19.176V34.248H112.703C114.719 34.248 115.055 33.768 115.055 31.224V21.96C115.055 19.848 114.767 19.176 112.847 19.176H110.351ZM110.351 5.88V14.808H112.847C114.623 14.808 115.055 14.184 115.055 12.36V8.808C115.055 6.456 114.815 5.88 112.703 5.88H110.351Z" fill="black"/>
</svg>
