<svg width="421" height="81" viewBox="0 0 421 81" fill="none" xmlns="http://www.w3.org/2000/svg">
<path d="M12.1 0.999998V80H0.6V0.999998H12.1ZM63.4078 80H51.1078L39.2078 30.7H38.8078V80H28.9078V0.999998H41.6078L53.0078 51.7H53.4078V0.999998H63.4078V80ZM91.5719 80H80.0719V0.999998H103.072V10.5H91.5719V22.2H102.672V31.7H91.5719V80ZM148.883 16.6V64.3C148.883 79 145.983 81 132.383 81C118.783 81 115.983 79 115.983 64.3V16.6C115.983 2 118.783 -1.19209e-06 132.383 -1.19209e-06C145.983 -1.19209e-06 148.883 2 148.883 16.6ZM137.283 64.3V16.6C137.283 11.3 136.583 10.3 132.483 10.3C128.183 10.3 127.483 11.4 127.483 16.6V64.3C127.483 69.8 128.183 70.8 132.283 70.8C136.683 70.8 137.283 69.6 137.283 64.3ZM160.345 0.999998H171.845L175.145 63.1H175.545L180.845 0.999998H195.545L200.045 63.1H200.445L204.745 0.999998H216.345L207.145 80H192.545L188.345 17.3H187.945L182.445 80H167.645L160.345 0.999998ZM251.867 70.1V80H229.267V0.999998H251.767V10.5H240.767V22H251.467V31.1H240.767V70.1H251.867ZM292.364 34.2C296.564 35.2 299.464 37.5 299.464 47.1V63.8C299.464 77.9 296.564 80 282.964 80H266.564V0.999998H282.964C296.564 0.999998 299.464 3 299.464 17.1V23C299.464 31.2 295.064 33.4 292.364 33.8V34.2ZM278.064 38.7V70.1H282.964C287.164 70.1 287.864 69.1 287.864 63.8V44.5C287.864 40.1 287.264 38.7 283.264 38.7H278.064ZM278.064 11V29.6H283.264C286.964 29.6 287.864 28.3 287.864 24.5V17.1C287.864 12.2 287.364 11 282.964 11H278.064ZM372.786 80H339.786V56.2C339.786 42.9 341.086 40.8 348.086 36.5L356.986 31.1C360.386 29 361.186 27.8 361.186 24.1V16.3C361.186 11.4 360.486 10.3 356.386 10.3C352.186 10.3 351.386 11.5 351.386 16.6V26.4H340.186V16.6C340.186 2 342.986 -1.19209e-06 356.586 -1.19209e-06C370.186 -1.19209e-06 372.786 2 372.786 16.3V24.6C372.786 32.9 371.386 35.5 364.886 39.3L355.286 45C351.986 47 351.386 48.3 351.386 52.6V69.8H361.086V50.7H372.786V80ZM388.195 49.2H399.195V64.5C399.195 69.5 400.195 70.7 403.895 70.7C408.095 70.7 408.895 69.2 408.895 64.5V51C408.895 44.3 408.695 42.4 404.195 42.4H397.595V32H404.195C408.395 32 408.895 30.7 408.895 26.8V16.5C408.895 11.3 407.995 10.3 404.095 10.3C399.295 10.3 399.195 11.8 399.195 16.5V25.8H388.195V16.5C388.195 2 391.095 -1.19209e-06 404.195 -1.19209e-06C417.595 -1.19209e-06 420.495 2.1 420.495 16.3V26.2C420.495 34.5 416.495 36.2 413.395 37V37.4C417.595 38.3 420.495 40.6 420.495 50.9V64.7C420.495 78.9 417.595 81 404.195 81C391.095 81 388.195 79 388.195 64.5V49.2Z" fill="#BF8E50"/>
</svg>
