<svg width="63" height="70" viewBox="0 0 63 70" fill="none" xmlns="http://www.w3.org/2000/svg">
<path d="M32.3778 0H29.6714C13.2843 0 0 13.2847 0 29.6723V40.3277C0 56.7153 13.2843 70 29.6714 70H32.3778C48.7648 70 62.0492 56.7153 62.0492 40.3277V29.6723C62.0492 13.2847 48.7648 0 32.3778 0Z" fill="#FEF7E5"/>
<path d="M32.3779 2.30518H29.6715C14.5576 2.30518 2.30542 14.5578 2.30542 29.6721V40.3275C2.30542 55.4419 14.5576 67.6945 29.6715 67.6945H32.3779C47.4918 67.6945 59.744 55.4419 59.744 40.3275V29.6721C59.744 14.5578 47.4918 2.30518 32.3779 2.30518Z" fill="#101528"/>
<mask id="mask0_2004_190" style="mask-type:luminance" maskUnits="userSpaceOnUse" x="2" y="2" width="58" height="66">
<path d="M32.3779 2.30518H29.6715C14.5576 2.30518 2.30542 14.5578 2.30542 29.6721V40.3275C2.30542 55.4419 14.5576 67.6945 29.6715 67.6945H32.3779C47.4918 67.6945 59.744 55.4419 59.744 40.3275V29.6721C59.744 14.5578 47.4918 2.30518 32.3779 2.30518Z" fill="white"/>
</mask>
<g mask="url(#mask0_2004_190)">
<path d="M72.0518 -7.28955H-5.021V82.5181H72.0518V-7.28955Z" fill="#C7AB6D"/>
<path d="M69.5296 -10.0791H-2.80347V79.8162H69.5296V-10.0791Z" fill="url(#paint0_linear_2004_190)"/>
</g>
<mask id="mask1_2004_190" style="mask-type:luminance" maskUnits="userSpaceOnUse" x="1" y="1" width="60" height="68">
<path d="M32.4262 1.18506H29.623C13.9922 1.18506 1.32092 13.8567 1.32092 29.488V40.5122C1.32092 56.1435 13.9922 68.8151 29.623 68.8151H32.4262C48.057 68.8151 60.7282 56.1435 60.7282 40.5122V29.488C60.7282 13.8567 48.057 1.18506 32.4262 1.18506Z" fill="white"/>
</mask>
<g mask="url(#mask1_2004_190)">
<path d="M52.8326 38.9559V23.3602H48.7038V19.501H13.8063L13.7694 23.3602H9.89194V46.6489L6.04671 46.7181V50.6349H2.06087V54.4111H-1.7152V58.5515H-5.70104V62.9432H-13.5344V58.5653H-16.8909V54.5494H-20.8768V46.7158H-25.2937V66.3206H-21.241V70.0622H-17.5917V73.7807H-13.675V77.6261H-9.68919V82.1008H-5.70335V97.6274H2.02398V93.8858H-2.06791V89.6554H2.12772V85.8793H6.00982V81.5775H9.89194V86.0522H13.7694V97.6274H21.6397V93.5723H17.5847V77.9419H21.536V74.0597H25.4181V70.0045H28.9152V58.3947H33.3206V62.3807H36.9814V54.6416H29.148V46.506H44.8586V43.1494H33.18V38.9536H52.8349L52.8326 38.9559ZM21.6835 27.3646H17.6792V23.3602H21.6835V27.3646Z" fill="#FEF7E5"/>
</g>
<defs>
<linearGradient id="paint0_linear_2004_190" x1="61.8668" y1="-14.5031" x2="4.85663" y2="84.2386" gradientUnits="userSpaceOnUse">
<stop stop-color="#FEB95E"/>
<stop offset="0.46" stop-color="#916E45"/>
<stop offset="1" stop-color="#101528"/>
</linearGradient>
</defs>
</svg>
