<svg width="700" height="81" viewBox="0 0 700 81" fill="none" xmlns="http://www.w3.org/2000/svg">
<path d="M32.9143 23.8H21.8143V16.6C21.8143 11.3 21.1143 10.3 17.0143 10.3C12.8143 10.3 12.1143 11.4 12.1143 16.6V64.3C12.1143 69.7 12.8143 70.8 17.5143 70.8C19.5143 70.8 21.3143 70.6 22.1143 70.4V34.1H32.9143V80C31.0143 80.4 25.3143 81 18.1143 81C3.41434 81 0.614343 78.5 0.614343 64.3V16.6C0.614343 2.1 3.91434 -1.19209e-06 17.0143 -1.19209e-06C29.9143 -1.19209e-06 32.9143 2 32.9143 16.6V23.8ZM59.4581 32.1V80H49.2581V20.1H58.7581V24.1C60.1581 21.4 63.0581 19.6 68.3581 19.6C75.0581 19.6 77.3581 22.5 77.3581 31.8V46.7H68.1581V33C68.1581 30.1 67.4581 28.8 64.4581 28.8C61.6581 28.8 60.2581 29.9 59.4581 32.1ZM103.75 81C92.5495 81 90.1495 79.8 90.1495 69.4V54.9C90.1495 47.7 92.6495 44.5 99.2495 44.5H101.15C105.65 44.5 107.15 44.9 108.049 45.4V33C108.049 28.7 107.349 27.8 103.85 27.8C99.9495 27.8 99.4495 28.9 99.4495 33V38.9H90.1495V31.8C90.1495 20.5 92.5495 19.1 103.649 19.1C115.449 19.1 117.95 20.7 117.95 31.8V80C115.55 80.6 110.25 81 103.75 81ZM104.349 72.6C106.15 72.6 107.65 72.5 108.049 72.4V52.8C107.15 52.3 105.749 52.2 104.249 52.2C99.7495 52.2 99.4495 53.1 99.4495 57.5V66.9C99.4495 71.9 99.7495 72.6 104.349 72.6ZM144.403 31.9V80H134.203V20.1H143.703V24.1C145.303 21.1 148.003 19.6 153.503 19.6C161.203 19.6 163.703 22.6 163.703 31.8V80H153.503V32.9C153.503 29.9 152.503 28.8 149.503 28.8C146.203 28.8 145.203 30.1 144.403 31.9ZM178.708 68.3V31.8C178.708 22.7 180.508 19.6 187.908 19.6C193.308 19.6 195.408 21.2 197.008 23.8V0.999998H207.308V80H197.808V75.7C196.008 79.2 193.408 80.5 188.208 80.5C180.508 80.5 178.708 77.7 178.708 68.3ZM197.308 68.3V31.9C196.308 29.7 195.008 28.8 192.408 28.8C189.408 28.8 188.608 30 188.608 33.8V66.4C188.608 70.2 189.408 71.4 192.408 71.4C195.008 71.4 196.308 70.5 197.308 68.3ZM251.129 53.6H233.329V67.7C233.329 71.5 233.929 72.3 237.629 72.3C241.229 72.3 241.929 71.5 241.929 67.7V59.6H251.129V68.3C251.129 79.6 248.629 81 237.529 81C225.729 81 223.329 79.4 223.329 68.3V31.8C223.329 20.7 225.729 19.1 237.529 19.1C248.629 19.1 251.129 20.5 251.129 31.8V53.6ZM233.329 32.6V45.4H241.929V32.6C241.929 28.8 241.229 28.1 237.629 28.1C233.929 28.1 233.329 28.8 233.329 32.6ZM294.592 37.4H284.692V32.9C284.692 29.4 284.092 28.6 280.292 28.6C276.492 28.6 275.992 29.4 275.992 32.9V37.7C275.992 41.3 276.692 41.8 281.092 43.8C281.992 44.2 286.692 46.3 288.592 47.3C293.892 50.1 294.592 52.6 294.592 57.1V68.2C294.592 79.5 292.292 81 280.392 81C268.592 81 265.992 79.5 265.992 68.2V59H275.992V67.1C275.992 70.7 276.692 71.5 280.392 71.5C284.292 71.5 284.692 70.6 284.692 67.1V59.8C284.692 56.6 284.192 55.8 280.492 54.1C277.292 52.6 275.392 52.2 272.192 50.4C267.192 47.7 265.992 45.6 265.992 39.2V31.9C265.992 20.6 268.492 19.1 280.392 19.1C292.192 19.1 294.592 20.6 294.592 31.9V37.4ZM345.439 31.9V80H335.239V20.1H344.739V24.1C346.239 21.2 349.039 19.6 354.439 19.6C359.339 19.6 362.339 20.9 363.739 24.5C365.739 20.8 368.839 19.6 373.739 19.6C381.439 19.6 383.939 22.6 383.939 31.8V80H373.739V32.9C373.739 29.9 372.839 28.8 369.739 28.8C366.539 28.8 365.639 29.9 364.739 31.8V80H354.539V32.9C354.539 29.9 353.539 28.8 350.539 28.8C347.239 28.8 346.239 30.1 345.439 31.9ZM427.777 31.8V68.3C427.777 79.5 425.177 81 413.477 81C401.677 81 399.177 79.5 399.177 68.3V31.8C399.177 20.6 401.677 19.1 413.477 19.1C425.177 19.1 427.777 20.6 427.777 31.8ZM417.877 67.3V32.9C417.877 29.4 417.177 28.7 413.677 28.7C409.877 28.7 409.077 29.5 409.077 32.9V67.3C409.077 70.7 409.777 71.6 413.477 71.6C417.277 71.6 417.877 70.6 417.877 67.3ZM454.017 31.9V80H443.817V20.1H453.317V24.1C454.817 21.2 457.617 19.6 463.017 19.6C467.917 19.6 470.917 20.9 472.317 24.5C474.317 20.8 477.417 19.6 482.317 19.6C490.017 19.6 492.517 22.6 492.517 31.8V80H482.317V32.9C482.317 29.9 481.417 28.8 478.317 28.8C475.117 28.8 474.217 29.9 473.317 31.8V80H463.117V32.9C463.117 29.9 462.117 28.8 459.117 28.8C455.817 28.8 454.817 30.1 454.017 31.9ZM535.555 53.6H517.755V67.7C517.755 71.5 518.355 72.3 522.055 72.3C525.655 72.3 526.355 71.5 526.355 67.7V59.6H535.555V68.3C535.555 79.6 533.055 81 521.955 81C510.155 81 507.755 79.4 507.755 68.3V31.8C507.755 20.7 510.155 19.1 521.955 19.1C533.055 19.1 535.555 20.5 535.555 31.8V53.6ZM517.755 32.6V45.4H526.355V32.6C526.355 28.8 525.655 28.1 522.055 28.1C518.355 28.1 517.755 28.8 517.755 32.6ZM561.618 31.9V80H551.418V20.1H560.918V24.1C562.518 21.1 565.218 19.6 570.718 19.6C578.418 19.6 580.918 22.6 580.918 31.8V80H570.718V32.9C570.718 29.9 569.718 28.8 566.718 28.8C563.418 28.8 562.418 30.1 561.618 31.9ZM614.611 20.1V28.4H607.611V66C607.611 70.1 608.611 71.3 612.611 71.3H614.511V80H611.911C600.911 80 597.411 76.1 597.411 67.3V28.4H593.711V20.1H597.411V1.9H607.611V20.1H614.611ZM657.035 31.8V68.3C657.035 79.5 654.435 81 642.735 81C630.935 81 628.435 79.5 628.435 68.3V31.8C628.435 20.6 630.935 19.1 642.735 19.1C654.435 19.1 657.035 20.6 657.035 31.8ZM647.135 67.3V32.9C647.135 29.4 646.435 28.7 642.935 28.7C639.135 28.7 638.335 29.5 638.335 32.9V67.3C638.335 70.7 639.035 71.6 642.735 71.6C646.535 71.6 647.135 70.6 647.135 67.3ZM700.675 37.4H690.775V32.9C690.775 29.4 690.174 28.6 686.374 28.6C682.575 28.6 682.074 29.4 682.074 32.9V37.7C682.074 41.3 682.774 41.8 687.174 43.8C688.075 44.2 692.775 46.3 694.675 47.3C699.975 50.1 700.675 52.6 700.675 57.1V68.2C700.675 79.5 698.375 81 686.474 81C674.674 81 672.074 79.5 672.074 68.2V59H682.074V67.1C682.074 70.7 682.774 71.5 686.474 71.5C690.375 71.5 690.775 70.6 690.775 67.1V59.8C690.775 56.6 690.275 55.8 686.575 54.1C683.374 52.6 681.475 52.2 678.274 50.4C673.274 47.7 672.074 45.6 672.074 39.2V31.9C672.074 20.6 674.574 19.1 686.474 19.1C698.274 19.1 700.675 20.6 700.675 31.9V37.4Z" fill="#BF8E50"/>
</svg>
