<svg width="527" height="80" viewBox="0 0 527 80" fill="none" xmlns="http://www.w3.org/2000/svg">
<mask id="path-1-outside-1_14_1028" maskUnits="userSpaceOnUse" x="-0.985596" y="-1" width="529" height="82" fill="black">
<rect fill="white" x="-0.985596" y="-1" width="529" height="82"/>
<path d="M34.9144 79H22.6144L10.7144 29.7H10.3144V79H0.414405V-2.14577e-06H13.1144L24.5144 50.7H24.9144V-2.14577e-06H34.9144V79ZM79.3785 30.8V67.3C79.3785 78.5 76.7785 80 65.0785 80C53.2785 80 50.7785 78.5 50.7785 67.3V30.8C50.7785 19.6 53.2785 18.1 65.0785 18.1C76.7785 18.1 79.3785 19.6 79.3785 30.8ZM69.4785 66.3V31.9C69.4785 28.4 68.7785 27.7 65.2785 27.7C61.4785 27.7 60.6785 28.5 60.6785 31.9V66.3C60.6785 69.7 61.3785 70.6 65.0785 70.6C68.8785 70.6 69.4785 69.6 69.4785 66.3ZM123.018 36.4H113.118V31.9C113.118 28.4 112.518 27.6 108.718 27.6C104.918 27.6 104.418 28.4 104.418 31.9V36.7C104.418 40.3 105.118 40.8 109.518 42.8C110.418 43.2 115.118 45.3 117.018 46.3C122.318 49.1 123.018 51.6 123.018 56.1V67.2C123.018 78.5 120.718 80 108.818 80C97.0183 80 94.4183 78.5 94.4183 67.2V58H104.418V66.1C104.418 69.7 105.118 70.5 108.818 70.5C112.718 70.5 113.118 69.6 113.118 66.1V58.8C113.118 55.6 112.618 54.8 108.918 53.1C105.718 51.6 103.818 51.2 100.618 49.4C95.6183 46.7 94.4183 44.6 94.4183 38.2V30.9C94.4183 19.6 96.9183 18.1 108.818 18.1C120.618 18.1 123.018 19.6 123.018 30.9V36.4ZM166.37 36.4H156.47V31.9C156.47 28.4 155.87 27.6 152.07 27.6C148.27 27.6 147.77 28.4 147.77 31.9V36.7C147.77 40.3 148.47 40.8 152.87 42.8C153.77 43.2 158.47 45.3 160.37 46.3C165.67 49.1 166.37 51.6 166.37 56.1V67.2C166.37 78.5 164.07 80 152.17 80C140.37 80 137.77 78.5 137.77 67.2V58H147.77V66.1C147.77 69.7 148.47 70.5 152.17 70.5C156.07 70.5 156.47 69.6 156.47 66.1V58.8C156.47 55.6 155.97 54.8 152.27 53.1C149.07 51.6 147.17 51.2 143.97 49.4C138.97 46.7 137.77 44.6 137.77 38.2V30.9C137.77 19.6 140.27 18.1 152.17 18.1C163.97 18.1 166.37 19.6 166.37 30.9V36.4ZM209.921 30.8V67.3C209.921 78.5 207.321 80 195.621 80C183.821 80 181.321 78.5 181.321 67.3V30.8C181.321 19.6 183.821 18.1 195.621 18.1C207.321 18.1 209.921 19.6 209.921 30.8ZM200.021 66.3V31.9C200.021 28.4 199.321 27.7 195.821 27.7C192.021 27.7 191.221 28.5 191.221 31.9V66.3C191.221 69.7 191.921 70.6 195.621 70.6C199.421 70.6 200.021 69.6 200.021 66.3ZM253.561 36.4H243.661V31.9C243.661 28.4 243.061 27.6 239.261 27.6C235.461 27.6 234.961 28.4 234.961 31.9V36.7C234.961 40.3 235.661 40.8 240.061 42.8C240.961 43.2 245.661 45.3 247.561 46.3C252.861 49.1 253.561 51.6 253.561 56.1V67.2C253.561 78.5 251.261 80 239.361 80C227.561 80 224.961 78.5 224.961 67.2V58H234.961V66.1C234.961 69.7 235.661 70.5 239.361 70.5C243.261 70.5 243.661 69.6 243.661 66.1V58.8C243.661 55.6 243.161 54.8 239.461 53.1C236.261 51.6 234.361 51.2 231.161 49.4C226.161 46.7 224.961 44.6 224.961 38.2V30.9C224.961 19.6 227.461 18.1 239.361 18.1C251.161 18.1 253.561 19.6 253.561 30.9V36.4ZM307.007 80C295.807 80 293.407 78.8 293.407 68.4V53.9C293.407 46.7 295.907 43.5 302.507 43.5H304.407C308.907 43.5 310.407 43.9 311.307 44.4V32C311.307 27.7 310.607 26.8 307.107 26.8C303.207 26.8 302.707 27.9 302.707 32V37.9H293.407V30.8C293.407 19.5 295.807 18.1 306.907 18.1C318.707 18.1 321.207 19.7 321.207 30.8V79C318.807 79.6 313.507 80 307.007 80ZM307.607 71.6C309.407 71.6 310.907 71.5 311.307 71.4V51.8C310.407 51.3 309.007 51.2 307.507 51.2C303.007 51.2 302.707 52.1 302.707 56.5V65.9C302.707 70.9 303.007 71.6 307.607 71.6ZM347.661 -2.14577e-06V79H337.461V-2.14577e-06H347.661ZM382.909 67.3V19.1H393.209V79H383.609V75.1C382.009 78.1 379.409 79.5 374.009 79.5C366.309 79.5 363.909 76.6 363.909 67.3V19.1H374.109V66.3C374.109 69.1 374.909 70.4 378.009 70.4C381.009 70.4 382.109 69.2 382.909 67.3ZM420.107 30.9V79H409.907V19.1H419.407V23.1C421.007 20.1 423.707 18.6 429.207 18.6C436.907 18.6 439.407 21.6 439.407 30.8V79H429.207V31.9C429.207 28.9 428.207 27.8 425.207 27.8C421.907 27.8 420.907 29.1 420.107 30.9ZM483.011 30.8V67.3C483.011 78.5 480.411 80 468.711 80C456.911 80 454.411 78.5 454.411 67.3V30.8C454.411 19.6 456.911 18.1 468.711 18.1C480.411 18.1 483.011 19.6 483.011 30.8ZM473.111 66.3V31.9C473.111 28.4 472.411 27.7 468.911 27.7C465.111 27.7 464.311 28.5 464.311 31.9V66.3C464.311 69.7 465.011 70.6 468.711 70.6C472.511 70.6 473.111 69.6 473.111 66.3ZM526.651 36.4H516.751V31.9C516.751 28.4 516.151 27.6 512.351 27.6C508.551 27.6 508.051 28.4 508.051 31.9V36.7C508.051 40.3 508.751 40.8 513.151 42.8C514.051 43.2 518.751 45.3 520.651 46.3C525.951 49.1 526.651 51.6 526.651 56.1V67.2C526.651 78.5 524.351 80 512.451 80C500.651 80 498.051 78.5 498.051 67.2V58H508.051V66.1C508.051 69.7 508.751 70.5 512.451 70.5C516.351 70.5 516.751 69.6 516.751 66.1V58.8C516.751 55.6 516.251 54.8 512.551 53.1C509.351 51.6 507.451 51.2 504.251 49.4C499.251 46.7 498.051 44.6 498.051 38.2V30.9C498.051 19.6 500.551 18.1 512.451 18.1C524.251 18.1 526.651 19.6 526.651 30.9V36.4Z"/>
</mask>
<path d="M34.9144 79H22.6144L10.7144 29.7H10.3144V79H0.414405V-2.14577e-06H13.1144L24.5144 50.7H24.9144V-2.14577e-06H34.9144V79ZM79.3785 30.8V67.3C79.3785 78.5 76.7785 80 65.0785 80C53.2785 80 50.7785 78.5 50.7785 67.3V30.8C50.7785 19.6 53.2785 18.1 65.0785 18.1C76.7785 18.1 79.3785 19.6 79.3785 30.8ZM69.4785 66.3V31.9C69.4785 28.4 68.7785 27.7 65.2785 27.7C61.4785 27.7 60.6785 28.5 60.6785 31.9V66.3C60.6785 69.7 61.3785 70.6 65.0785 70.6C68.8785 70.6 69.4785 69.6 69.4785 66.3ZM123.018 36.4H113.118V31.9C113.118 28.4 112.518 27.6 108.718 27.6C104.918 27.6 104.418 28.4 104.418 31.9V36.7C104.418 40.3 105.118 40.8 109.518 42.8C110.418 43.2 115.118 45.3 117.018 46.3C122.318 49.1 123.018 51.6 123.018 56.1V67.2C123.018 78.5 120.718 80 108.818 80C97.0183 80 94.4183 78.5 94.4183 67.2V58H104.418V66.1C104.418 69.7 105.118 70.5 108.818 70.5C112.718 70.5 113.118 69.6 113.118 66.1V58.8C113.118 55.6 112.618 54.8 108.918 53.1C105.718 51.6 103.818 51.2 100.618 49.4C95.6183 46.7 94.4183 44.6 94.4183 38.2V30.9C94.4183 19.6 96.9183 18.1 108.818 18.1C120.618 18.1 123.018 19.6 123.018 30.9V36.4ZM166.37 36.4H156.47V31.9C156.47 28.4 155.87 27.6 152.07 27.6C148.27 27.6 147.77 28.4 147.77 31.9V36.7C147.77 40.3 148.47 40.8 152.87 42.8C153.77 43.2 158.47 45.3 160.37 46.3C165.67 49.1 166.37 51.6 166.37 56.1V67.2C166.37 78.5 164.07 80 152.17 80C140.37 80 137.77 78.5 137.77 67.2V58H147.77V66.1C147.77 69.7 148.47 70.5 152.17 70.5C156.07 70.5 156.47 69.6 156.47 66.1V58.8C156.47 55.6 155.97 54.8 152.27 53.1C149.07 51.6 147.17 51.2 143.97 49.4C138.97 46.7 137.77 44.6 137.77 38.2V30.9C137.77 19.6 140.27 18.1 152.17 18.1C163.97 18.1 166.37 19.6 166.37 30.9V36.4ZM209.921 30.8V67.3C209.921 78.5 207.321 80 195.621 80C183.821 80 181.321 78.5 181.321 67.3V30.8C181.321 19.6 183.821 18.1 195.621 18.1C207.321 18.1 209.921 19.6 209.921 30.8ZM200.021 66.3V31.9C200.021 28.4 199.321 27.7 195.821 27.7C192.021 27.7 191.221 28.5 191.221 31.9V66.3C191.221 69.7 191.921 70.6 195.621 70.6C199.421 70.6 200.021 69.6 200.021 66.3ZM253.561 36.4H243.661V31.9C243.661 28.4 243.061 27.6 239.261 27.6C235.461 27.6 234.961 28.4 234.961 31.9V36.7C234.961 40.3 235.661 40.8 240.061 42.8C240.961 43.2 245.661 45.3 247.561 46.3C252.861 49.1 253.561 51.6 253.561 56.1V67.2C253.561 78.5 251.261 80 239.361 80C227.561 80 224.961 78.5 224.961 67.2V58H234.961V66.1C234.961 69.7 235.661 70.5 239.361 70.5C243.261 70.5 243.661 69.6 243.661 66.1V58.8C243.661 55.6 243.161 54.8 239.461 53.1C236.261 51.6 234.361 51.2 231.161 49.4C226.161 46.7 224.961 44.6 224.961 38.2V30.9C224.961 19.6 227.461 18.1 239.361 18.1C251.161 18.1 253.561 19.6 253.561 30.9V36.4ZM307.007 80C295.807 80 293.407 78.8 293.407 68.4V53.9C293.407 46.7 295.907 43.5 302.507 43.5H304.407C308.907 43.5 310.407 43.9 311.307 44.4V32C311.307 27.7 310.607 26.8 307.107 26.8C303.207 26.8 302.707 27.9 302.707 32V37.9H293.407V30.8C293.407 19.5 295.807 18.1 306.907 18.1C318.707 18.1 321.207 19.7 321.207 30.8V79C318.807 79.6 313.507 80 307.007 80ZM307.607 71.6C309.407 71.6 310.907 71.5 311.307 71.4V51.8C310.407 51.3 309.007 51.2 307.507 51.2C303.007 51.2 302.707 52.1 302.707 56.5V65.9C302.707 70.9 303.007 71.6 307.607 71.6ZM347.661 -2.14577e-06V79H337.461V-2.14577e-06H347.661ZM382.909 67.3V19.1H393.209V79H383.609V75.1C382.009 78.1 379.409 79.5 374.009 79.5C366.309 79.5 363.909 76.6 363.909 67.3V19.1H374.109V66.3C374.109 69.1 374.909 70.4 378.009 70.4C381.009 70.4 382.109 69.2 382.909 67.3ZM420.107 30.9V79H409.907V19.1H419.407V23.1C421.007 20.1 423.707 18.6 429.207 18.6C436.907 18.6 439.407 21.6 439.407 30.8V79H429.207V31.9C429.207 28.9 428.207 27.8 425.207 27.8C421.907 27.8 420.907 29.1 420.107 30.9ZM483.011 30.8V67.3C483.011 78.5 480.411 80 468.711 80C456.911 80 454.411 78.5 454.411 67.3V30.8C454.411 19.6 456.911 18.1 468.711 18.1C480.411 18.1 483.011 19.6 483.011 30.8ZM473.111 66.3V31.9C473.111 28.4 472.411 27.7 468.911 27.7C465.111 27.7 464.311 28.5 464.311 31.9V66.3C464.311 69.7 465.011 70.6 468.711 70.6C472.511 70.6 473.111 69.6 473.111 66.3ZM526.651 36.4H516.751V31.9C516.751 28.4 516.151 27.6 512.351 27.6C508.551 27.6 508.051 28.4 508.051 31.9V36.7C508.051 40.3 508.751 40.8 513.151 42.8C514.051 43.2 518.751 45.3 520.651 46.3C525.951 49.1 526.651 51.6 526.651 56.1V67.2C526.651 78.5 524.351 80 512.451 80C500.651 80 498.051 78.5 498.051 67.2V58H508.051V66.1C508.051 69.7 508.751 70.5 512.451 70.5C516.351 70.5 516.751 69.6 516.751 66.1V58.8C516.751 55.6 516.251 54.8 512.551 53.1C509.351 51.6 507.451 51.2 504.251 49.4C499.251 46.7 498.051 44.6 498.051 38.2V30.9C498.051 19.6 500.551 18.1 512.451 18.1C524.251 18.1 526.651 19.6 526.651 30.9V36.4Z" fill="#BF8E50"/>
<path d="M34.9144 79V80H35.9144V79H34.9144ZM22.6144 79L21.6423 79.2346L21.8271 80H22.6144V79ZM10.7144 29.7L11.6865 29.4654L11.5017 28.7H10.7144V29.7ZM10.3144 29.7V28.7H9.31441V29.7H10.3144ZM10.3144 79V80H11.3144V79H10.3144ZM0.414405 79H-0.585595V80H0.414405V79ZM0.414405 -1.90735e-06V-1H-0.585595V-1.90735e-06H0.414405ZM13.1144 -1.90735e-06L14.09 -0.219378L13.9145 -1H13.1144V-1.90735e-06ZM24.5144 50.7L23.5388 50.9194L23.7143 51.7H24.5144V50.7ZM24.9144 50.7V51.7H25.9144V50.7H24.9144ZM24.9144 -1.90735e-06V-1H23.9144V-1.90735e-06H24.9144ZM34.9144 -1.90735e-06H35.9144V-1H34.9144V-1.90735e-06ZM34.9144 78H22.6144V80H34.9144V78ZM23.5865 78.7654L11.6865 29.4654L9.74232 29.9346L21.6423 79.2346L23.5865 78.7654ZM10.7144 28.7H10.3144V30.7H10.7144V28.7ZM9.31441 29.7V79H11.3144V29.7H9.31441ZM10.3144 78H0.414405V80H10.3144V78ZM1.4144 79V-1.90735e-06H-0.585595V79H1.4144ZM0.414405 0.999998H13.1144V-1H0.414405V0.999998ZM12.1388 0.219372L23.5388 50.9194L25.49 50.4806L14.09 -0.219378L12.1388 0.219372ZM24.5144 51.7H24.9144V49.7H24.5144V51.7ZM25.9144 50.7V-1.90735e-06H23.9144V50.7H25.9144ZM24.9144 0.999998H34.9144V-1H24.9144V0.999998ZM33.9144 -1.90735e-06V79H35.9144V-1.90735e-06H33.9144ZM78.3785 30.8V67.3H80.3785V30.8H78.3785ZM78.3785 67.3C78.3785 70.077 78.2156 72.1729 77.819 73.7681C77.4273 75.3432 76.8229 76.37 75.9727 77.0844C75.1075 77.8113 73.8829 78.3037 72.084 78.6043C70.2818 78.9054 67.9957 79 65.0785 79V81C68.0113 81 70.4376 80.9071 72.4136 80.577C74.3928 80.2463 76.0119 79.6637 77.2593 78.6156C78.5215 77.555 79.2984 76.1068 79.7599 74.2507C80.2164 72.4146 80.3785 70.123 80.3785 67.3H78.3785ZM65.0785 79C62.1359 79 59.8373 78.9054 58.0304 78.6042C56.2266 78.3036 55.0068 77.8113 54.149 77.0863C53.3061 76.3738 52.7097 75.3488 52.3249 73.7723C51.9353 72.1758 51.7785 70.0787 51.7785 67.3H49.7785C49.7785 70.1213 49.9342 72.4117 50.382 74.2465C50.8347 76.1012 51.6009 77.5512 52.8579 78.6137C54.1002 79.6637 55.7178 80.2464 57.7016 80.577C59.6822 80.9071 62.121 81 65.0785 81V79ZM51.7785 67.3V30.8H49.7785V67.3H51.7785ZM51.7785 30.8C51.7785 28.0213 51.9353 25.9242 52.3249 24.3277C52.7097 22.7512 53.3061 21.7262 54.149 21.0137C55.0068 20.2887 56.2266 19.7964 58.0304 19.4958C59.8373 19.1946 62.1359 19.1 65.0785 19.1V17.1C62.121 17.1 59.6822 17.1929 57.7016 17.523C55.7178 17.8536 54.1002 18.4363 52.8579 19.4863C51.6009 20.5488 50.8347 21.9988 50.382 23.8535C49.9342 25.6883 49.7785 27.9787 49.7785 30.8H51.7785ZM65.0785 19.1C67.9957 19.1 70.2818 19.1946 72.084 19.4957C73.8829 19.7963 75.1075 20.2887 75.9727 21.0156C76.8229 21.73 77.4273 22.7568 77.819 24.3319C78.2156 25.9271 78.3785 28.023 78.3785 30.8H80.3785C80.3785 27.977 80.2164 25.6854 79.7599 23.8493C79.2984 21.9932 78.5215 20.545 77.2593 19.4844C76.0119 18.4363 74.3928 17.8537 72.4136 17.523C70.4376 17.1929 68.0113 17.1 65.0785 17.1V19.1ZM70.4785 66.3V31.9H68.4785V66.3H70.4785ZM70.4785 31.9C70.4785 31.0052 70.4351 30.22 70.2919 29.5563C70.1464 28.8815 69.8838 28.2661 69.3981 27.7804C68.9123 27.2946 68.297 27.0321 67.6221 26.8865C66.9585 26.7434 66.1733 26.7 65.2785 26.7V28.7C66.1337 28.7 66.7485 28.7441 67.2004 28.8416C67.6412 28.9366 67.8571 29.0679 67.9839 29.1946C68.1106 29.3214 68.2418 29.5373 68.3369 29.978C68.4344 30.43 68.4785 31.0448 68.4785 31.9H70.4785ZM65.2785 26.7C64.305 26.7 63.4613 26.7501 62.7508 26.8995C62.0332 27.0504 61.388 27.3154 60.8741 27.7912C59.847 28.7422 59.6785 30.2228 59.6785 31.9H61.6785C61.6785 30.1772 61.91 29.5578 62.2329 29.2588C62.394 29.1096 62.6612 28.9621 63.1624 28.8567C63.6706 28.7499 64.352 28.7 65.2785 28.7V26.7ZM59.6785 31.9V66.3H61.6785V31.9H59.6785ZM59.6785 66.3C59.6785 67.9637 59.8201 69.4495 60.777 70.4252C61.7374 71.4044 63.2483 71.6 65.0785 71.6V69.6C63.2086 69.6 62.5195 69.3456 62.2049 69.0248C61.8868 68.7005 61.6785 68.0363 61.6785 66.3H59.6785ZM65.0785 71.6C66.9675 71.6 68.484 71.3774 69.4309 70.3737C69.9105 69.8653 70.1653 69.2388 70.3045 68.567C70.4415 67.9062 70.4785 67.1421 70.4785 66.3H68.4785C68.4785 67.1079 68.4404 67.7063 68.3462 68.1611C68.2542 68.6049 68.1214 68.8472 67.9761 69.0013C67.6729 69.3226 66.9894 69.6 65.0785 69.6V71.6ZM123.018 36.4V37.4H124.018V36.4H123.018ZM113.118 36.4H112.118V37.4H113.118V36.4ZM109.518 42.8L109.104 43.7104L109.112 43.7138L109.518 42.8ZM117.018 46.3L117.485 45.4158L117.484 45.4151L117.018 46.3ZM94.4183 58V57H93.4183V58H94.4183ZM104.418 58H105.418V57H104.418V58ZM108.918 53.1L108.494 54.0055L108.501 54.0087L108.918 53.1ZM100.618 49.4L101.109 48.5284L101.101 48.5242L101.093 48.5201L100.618 49.4ZM123.018 35.4H113.118V37.4H123.018V35.4ZM114.118 36.4V31.9H112.118V36.4H114.118ZM114.118 31.9C114.118 31.0109 114.082 30.2217 113.945 29.5518C113.806 28.8703 113.55 28.2396 113.057 27.7374C112.565 27.235 111.932 26.9585 111.223 26.803C110.526 26.6498 109.69 26.6 108.718 26.6V28.6C109.647 28.6 110.311 28.6502 110.794 28.7564C111.268 28.8603 111.497 29.0025 111.629 29.1376C111.762 29.2729 111.893 29.4985 111.985 29.9513C112.08 30.4158 112.118 31.0391 112.118 31.9H114.118ZM108.718 26.6C107.747 26.6 106.916 26.6497 106.226 26.8037C105.523 26.9604 104.896 27.2407 104.415 27.7521C103.937 28.2602 103.699 28.8937 103.573 29.5674C103.449 30.2315 103.418 31.0163 103.418 31.9H105.418C105.418 31.0337 105.451 30.406 105.539 29.9357C105.625 29.4751 105.75 29.2523 105.872 29.1229C105.99 28.9968 106.201 28.8583 106.661 28.7557C107.133 28.6503 107.789 28.6 108.718 28.6V26.6ZM103.418 31.9V36.7H105.418V31.9H103.418ZM103.418 36.7C103.418 38.5178 103.578 39.8847 104.567 41.0101C105.037 41.5445 105.647 41.9724 106.375 42.3813C107.103 42.7896 108.009 43.2124 109.105 43.7104L109.932 41.8896C108.828 41.3876 107.997 40.9979 107.355 40.6375C106.714 40.2776 106.325 39.9805 106.069 39.6899C105.608 39.1652 105.418 38.4822 105.418 36.7H103.418ZM109.112 43.7138C110.026 44.1198 114.689 46.2041 116.553 47.1849L117.484 45.4151C115.548 44.3959 110.811 42.2802 109.924 41.8862L109.112 43.7138ZM116.551 47.1842C119.12 48.5415 120.424 49.7499 121.128 51.0408C121.837 52.3439 122.018 53.8756 122.018 56.1H124.018C124.018 53.8244 123.849 51.8561 122.884 50.0841C121.912 48.3001 120.216 46.8585 117.485 45.4158L116.551 47.1842ZM122.018 56.1V67.2H124.018V56.1H122.018ZM122.018 67.2C122.018 70.0074 121.874 72.1265 121.499 73.741C121.128 75.337 120.549 76.3681 119.726 77.0818C118.889 77.807 117.689 78.301 115.892 78.6029C114.091 78.9053 111.787 79 108.818 79V81C111.8 81 114.246 80.9072 116.223 80.5753C118.203 80.2427 119.81 79.6555 121.036 78.5932C122.275 77.5194 123.014 76.0568 123.447 74.1933C123.875 72.3485 124.018 70.0426 124.018 67.2H122.018ZM108.818 79C105.876 79 103.571 78.9054 101.755 78.6027C99.9415 78.3005 98.708 77.8049 97.837 77.0722C96.9809 76.3521 96.3731 75.3164 95.9796 73.7269C95.5812 72.1173 95.4183 70.0024 95.4183 67.2H93.4183C93.4183 70.0476 93.5804 72.3577 94.0382 74.2075C94.501 76.0773 95.2807 77.5354 96.5496 78.6028C97.8036 79.6576 99.4326 80.2433 101.426 80.5755C103.416 80.9071 105.861 81 108.818 81V79ZM95.4183 67.2V58H93.4183V67.2H95.4183ZM94.4183 59H104.418V57H94.4183V59ZM103.418 58V66.1H105.418V58H103.418ZM103.418 66.1C103.418 67.019 103.462 67.8282 103.607 68.514C103.755 69.2107 104.022 69.8459 104.517 70.3502C105.012 70.8555 105.645 71.1364 106.351 71.2946C107.046 71.4501 107.87 71.5 108.818 71.5V69.5C107.916 69.5 107.266 69.4499 106.788 69.3429C106.323 69.2386 106.087 69.0945 105.945 68.9498C105.802 68.8041 105.663 68.5643 105.564 68.0985C105.462 67.6218 105.418 66.981 105.418 66.1H103.418ZM108.818 71.5C109.817 71.5 110.666 71.4439 111.366 71.2777C112.081 71.108 112.707 70.808 113.179 70.276C113.644 69.7519 113.865 69.1072 113.981 68.4324C114.095 67.7652 114.118 66.9787 114.118 66.1H112.118C112.118 66.9713 112.092 67.6098 112.009 68.0958C111.927 68.574 111.805 68.8106 111.683 68.949C111.567 69.0795 111.361 69.2233 110.905 69.3317C110.433 69.4436 109.769 69.5 108.818 69.5V71.5ZM114.118 66.1V58.8H112.118V66.1H114.118ZM114.118 58.8C114.118 57.199 114.01 55.8991 113.216 54.8016C112.454 53.748 111.163 53.031 109.336 52.1913L108.501 54.0087C110.373 54.869 111.182 55.402 111.595 55.9734C111.977 56.5009 112.118 57.201 112.118 58.8H114.118ZM109.343 52.1945C107.709 51.4289 106.393 50.938 105.141 50.4346C103.888 49.9309 102.657 49.3992 101.109 48.5284L100.128 50.2716C101.78 51.2008 103.099 51.7691 104.395 52.2903C105.693 52.812 106.927 53.2711 108.494 54.0055L109.343 52.1945ZM101.093 48.5201C98.6397 47.1951 97.2997 46.1078 96.5172 44.7013C95.7238 43.2754 95.4183 41.3715 95.4183 38.2H93.4183C93.4183 41.4285 93.7128 43.7746 94.7695 45.6737C95.8369 47.5922 97.5969 48.9049 100.143 50.2799L101.093 48.5201ZM95.4183 38.2V30.9H93.4183V38.2H95.4183ZM95.4183 30.9C95.4183 28.0959 95.5751 25.9798 95.9666 24.3689C96.3532 22.778 96.9529 21.7441 97.8018 21.0259C98.6654 20.2951 99.8941 19.7996 101.712 19.4974C103.533 19.1946 105.851 19.1 108.818 19.1V17.1C105.836 17.1 103.379 17.1929 101.384 17.5245C99.3863 17.8566 97.7588 18.4424 96.5099 19.4991C95.2462 20.5684 94.4772 22.0283 94.0231 23.8967C93.574 25.7452 93.4183 28.0541 93.4183 30.9H95.4183ZM108.818 19.1C111.761 19.1 114.053 19.1947 115.849 19.4971C117.642 19.7988 118.846 20.2929 119.691 21.0201C120.521 21.7359 121.108 22.7687 121.486 24.3631C121.868 25.9764 122.018 28.0944 122.018 30.9H124.018C124.018 28.0556 123.869 25.7486 123.432 23.9025C122.991 22.0375 122.24 20.5766 120.996 19.5049C119.765 18.4445 118.157 17.8574 116.181 17.5248C114.209 17.1928 111.775 17.1 108.818 17.1V19.1ZM122.018 30.9V36.4H124.018V30.9H122.018ZM166.37 36.4V37.4H167.37V36.4H166.37ZM156.47 36.4H155.47V37.4H156.47V36.4ZM152.87 42.8L152.456 43.7104L152.464 43.7138L152.87 42.8ZM160.37 46.3L160.837 45.4158L160.836 45.4151L160.37 46.3ZM137.77 58V57H136.77V58H137.77ZM147.77 58H148.77V57H147.77V58ZM152.27 53.1L151.845 54.0055L151.852 54.0087L152.27 53.1ZM143.97 49.4L144.46 48.5284L144.453 48.5242L144.445 48.5201L143.97 49.4ZM166.37 35.4H156.47V37.4H166.37V35.4ZM157.47 36.4V31.9H155.47V36.4H157.47ZM157.47 31.9C157.47 31.0109 157.433 30.2217 157.297 29.5518C157.158 28.8703 156.901 28.2396 156.409 27.7374C155.916 27.235 155.283 26.9585 154.575 26.803C153.878 26.6498 153.042 26.6 152.07 26.6V28.6C152.998 28.6 153.662 28.6502 154.146 28.7564C154.619 28.8603 154.848 29.0025 154.981 29.1376C155.113 29.2729 155.245 29.4985 155.337 29.9513C155.432 30.4158 155.47 31.0391 155.47 31.9H157.47ZM152.07 26.6C151.099 26.6 150.267 26.6497 149.577 26.8037C148.875 26.9604 148.248 27.2407 147.767 27.7521C147.288 28.2602 147.051 28.8937 146.924 29.5674C146.8 30.2315 146.77 31.0163 146.77 31.9H148.77C148.77 31.0337 148.802 30.406 148.89 29.9357C148.977 29.4751 149.101 29.2523 149.223 29.1229C149.342 28.9968 149.553 28.8583 150.013 28.7557C150.485 28.6503 151.141 28.6 152.07 28.6V26.6ZM146.77 31.9V36.7H148.77V31.9H146.77ZM146.77 36.7C146.77 38.5178 146.93 39.8847 147.919 41.0101C148.388 41.5445 148.999 41.9724 149.727 42.3813C150.454 42.7896 151.361 43.2124 152.456 43.7104L153.284 41.8896C152.179 41.3876 151.348 40.9979 150.706 40.6375C150.066 40.2776 149.676 39.9805 149.421 39.6899C148.96 39.1652 148.77 38.4822 148.77 36.7H146.77ZM152.464 43.7138C153.377 44.1198 158.041 46.2041 159.904 47.1849L160.836 45.4151C158.899 44.3959 154.162 42.2802 153.276 41.8862L152.464 43.7138ZM159.903 47.1842C162.472 48.5415 163.776 49.7499 164.479 51.0408C165.189 52.3439 165.37 53.8756 165.37 56.1H167.37C167.37 53.8244 167.201 51.8561 166.236 50.0841C165.264 48.3001 163.568 46.8585 160.837 45.4158L159.903 47.1842ZM165.37 56.1V67.2H167.37V56.1H165.37ZM165.37 67.2C165.37 70.0074 165.225 72.1265 164.85 73.741C164.48 75.337 163.901 76.3681 163.077 77.0818C162.241 77.807 161.041 78.301 159.243 78.6029C157.442 78.9053 155.138 79 152.17 79V81C155.152 81 157.598 80.9072 159.575 80.5753C161.555 80.2427 163.162 79.6555 164.387 78.5932C165.626 77.5194 166.366 76.0568 166.799 74.1933C167.227 72.3485 167.37 70.0426 167.37 67.2H165.37ZM152.17 79C149.227 79 146.922 78.9054 145.106 78.6027C143.293 78.3005 142.06 77.8049 141.189 77.0722C140.332 76.3521 139.725 75.3164 139.331 73.7269C138.933 72.1173 138.77 70.0024 138.77 67.2H136.77C136.77 70.0476 136.932 72.3577 137.39 74.2075C137.853 76.0773 138.632 77.5354 139.901 78.6028C141.155 79.6576 142.784 80.2433 144.777 80.5755C146.767 80.9071 149.212 81 152.17 81V79ZM138.77 67.2V58H136.77V67.2H138.77ZM137.77 59H147.77V57H137.77V59ZM146.77 58V66.1H148.77V58H146.77ZM146.77 66.1C146.77 67.019 146.813 67.8282 146.959 68.514C147.107 69.2107 147.374 69.8459 147.868 70.3502C148.364 70.8555 148.997 71.1364 149.703 71.2946C150.397 71.4501 151.222 71.5 152.17 71.5V69.5C151.268 69.5 150.618 69.4499 150.14 69.3429C149.674 69.2386 149.438 69.0945 149.296 68.9498C149.153 68.8041 149.014 68.5643 148.915 68.0985C148.814 67.6218 148.77 66.981 148.77 66.1H146.77ZM152.17 71.5C153.169 71.5 154.018 71.4439 154.718 71.2777C155.433 71.108 156.059 70.808 156.531 70.276C156.995 69.7519 157.217 69.1072 157.332 68.4324C157.446 67.7652 157.47 66.9787 157.47 66.1H155.47C155.47 66.9713 155.444 67.6098 155.361 68.0958C155.279 68.574 155.157 68.8106 155.034 68.949C154.918 69.0795 154.713 69.2233 154.256 69.3317C153.785 69.4436 153.121 69.5 152.17 69.5V71.5ZM157.47 66.1V58.8H155.47V66.1H157.47ZM157.47 58.8C157.47 57.199 157.361 55.8991 156.568 54.8016C155.806 53.748 154.515 53.031 152.687 52.1913L151.852 54.0087C153.725 54.869 154.534 55.402 154.947 55.9734C155.328 56.5009 155.47 57.201 155.47 58.8H157.47ZM152.694 52.1945C151.061 51.4289 149.745 50.938 148.493 50.4346C147.24 49.9309 146.008 49.3992 144.46 48.5284L143.48 50.2716C145.132 51.2008 146.45 51.7691 147.747 52.2903C149.045 52.812 150.279 53.2711 151.845 54.0055L152.694 52.1945ZM144.445 48.5201C141.991 47.1951 140.651 46.1078 139.869 44.7013C139.075 43.2754 138.77 41.3715 138.77 38.2H136.77C136.77 41.4285 137.064 43.7746 138.121 45.6737C139.188 47.5922 140.948 48.9049 143.495 50.2799L144.445 48.5201ZM138.77 38.2V30.9H136.77V38.2H138.77ZM138.77 30.9C138.77 28.0959 138.927 25.9798 139.318 24.3689C139.705 22.778 140.305 21.7441 141.153 21.0259C142.017 20.2951 143.246 19.7996 145.064 19.4974C146.885 19.1946 149.202 19.1 152.17 19.1V17.1C149.188 17.1 146.73 17.1929 144.736 17.5245C142.738 17.8566 141.11 18.4424 139.861 19.4991C138.598 20.5684 137.829 22.0283 137.375 23.8967C136.926 25.7452 136.77 28.0541 136.77 30.9H138.77ZM152.17 19.1C155.113 19.1 157.404 19.1947 159.201 19.4971C160.994 19.7988 162.198 20.2929 163.042 21.0201C163.873 21.7359 164.46 22.7687 164.837 24.3631C165.219 25.9764 165.37 28.0944 165.37 30.9H167.37C167.37 28.0556 167.221 25.7486 166.784 23.9025C166.342 22.0375 165.592 20.5766 164.348 19.5049C163.117 18.4445 161.509 17.8574 159.533 17.5248C157.561 17.1928 155.127 17.1 152.17 17.1V19.1ZM165.37 30.9V36.4H167.37V30.9H165.37ZM208.921 30.8V67.3H210.921V30.8H208.921ZM208.921 67.3C208.921 70.077 208.759 72.1729 208.362 73.7681C207.97 75.3432 207.366 76.37 206.516 77.0844C205.65 77.8113 204.426 78.3037 202.627 78.6043C200.825 78.9054 198.539 79 195.621 79V81C198.554 81 200.981 80.9071 202.957 80.577C204.936 80.2463 206.555 79.6637 207.802 78.6156C209.064 77.555 209.841 76.1068 210.303 74.2507C210.759 72.4146 210.921 70.123 210.921 67.3H208.921ZM195.621 79C192.679 79 190.38 78.9054 188.573 78.6042C186.77 78.3036 185.55 77.8113 184.692 77.0863C183.849 76.3738 183.253 75.3488 182.868 73.7723C182.478 72.1758 182.321 70.0787 182.321 67.3H180.321C180.321 70.1213 180.477 72.4117 180.925 74.2465C181.378 76.1012 182.144 77.5512 183.401 78.6137C184.643 79.6637 186.261 80.2464 188.245 80.577C190.225 80.9071 192.664 81 195.621 81V79ZM182.321 67.3V30.8H180.321V67.3H182.321ZM182.321 30.8C182.321 28.0213 182.478 25.9242 182.868 24.3277C183.253 22.7512 183.849 21.7262 184.692 21.0137C185.55 20.2887 186.77 19.7964 188.573 19.4958C190.38 19.1946 192.679 19.1 195.621 19.1V17.1C192.664 17.1 190.225 17.1929 188.245 17.523C186.261 17.8536 184.643 18.4363 183.401 19.4863C182.144 20.5488 181.378 21.9988 180.925 23.8535C180.477 25.6883 180.321 27.9787 180.321 30.8H182.321ZM195.621 19.1C198.539 19.1 200.825 19.1946 202.627 19.4957C204.426 19.7963 205.65 20.2887 206.516 21.0156C207.366 21.73 207.97 22.7568 208.362 24.3319C208.759 25.9271 208.921 28.023 208.921 30.8H210.921C210.921 27.977 210.759 25.6854 210.303 23.8493C209.841 21.9932 209.064 20.545 207.802 19.4844C206.555 18.4363 204.936 17.8537 202.957 17.523C200.981 17.1929 198.554 17.1 195.621 17.1V19.1ZM201.021 66.3V31.9H199.021V66.3H201.021ZM201.021 31.9C201.021 31.0052 200.978 30.22 200.835 29.5563C200.689 28.8815 200.427 28.2661 199.941 27.7804C199.455 27.2946 198.84 27.0321 198.165 26.8865C197.501 26.7434 196.716 26.7 195.821 26.7V28.7C196.677 28.7 197.291 28.7441 197.743 28.8416C198.184 28.9366 198.4 29.0679 198.527 29.1946C198.654 29.3214 198.785 29.5373 198.88 29.978C198.977 30.43 199.021 31.0448 199.021 31.9H201.021ZM195.821 26.7C194.848 26.7 194.004 26.7501 193.294 26.8995C192.576 27.0504 191.931 27.3154 191.417 27.7912C190.39 28.7422 190.221 30.2228 190.221 31.9H192.221C192.221 30.1772 192.453 29.5578 192.776 29.2588C192.937 29.1096 193.204 28.9621 193.705 28.8567C194.214 28.7499 194.895 28.7 195.821 28.7V26.7ZM190.221 31.9V66.3H192.221V31.9H190.221ZM190.221 66.3C190.221 67.9637 190.363 69.4495 191.32 70.4252C192.28 71.4044 193.791 71.6 195.621 71.6V69.6C193.752 69.6 193.063 69.3456 192.748 69.0248C192.43 68.7005 192.221 68.0363 192.221 66.3H190.221ZM195.621 71.6C197.511 71.6 199.027 71.3774 199.974 70.3737C200.453 69.8653 200.708 69.2388 200.848 68.567C200.984 67.9062 201.021 67.1421 201.021 66.3H199.021C199.021 67.1079 198.983 67.7063 198.889 68.1611C198.797 68.6049 198.664 68.8472 198.519 69.0013C198.216 69.3226 197.532 69.6 195.621 69.6V71.6ZM253.561 36.4V37.4H254.561V36.4H253.561ZM243.661 36.4H242.661V37.4H243.661V36.4ZM240.061 42.8L239.647 43.7104L239.655 43.7138L240.061 42.8ZM247.561 46.3L248.028 45.4158L248.027 45.4151L247.561 46.3ZM224.961 58V57H223.961V58H224.961ZM234.961 58H235.961V57H234.961V58ZM239.461 53.1L239.037 54.0055L239.044 54.0087L239.461 53.1ZM231.161 49.4L231.652 48.5284L231.644 48.5242L231.636 48.5201L231.161 49.4ZM253.561 35.4H243.661V37.4H253.561V35.4ZM244.661 36.4V31.9H242.661V36.4H244.661ZM244.661 31.9C244.661 31.0109 244.625 30.2217 244.488 29.5518C244.349 28.8703 244.093 28.2396 243.6 27.7374C243.108 27.235 242.475 26.9585 241.766 26.803C241.069 26.6498 240.233 26.6 239.261 26.6V28.6C240.19 28.6 240.854 28.6502 241.337 28.7564C241.81 28.8603 242.04 29.0025 242.172 29.1376C242.305 29.2729 242.436 29.4985 242.528 29.9513C242.623 30.4158 242.661 31.0391 242.661 31.9H244.661ZM239.261 26.6C238.29 26.6 237.459 26.6497 236.769 26.8037C236.066 26.9604 235.439 27.2407 234.958 27.7521C234.48 28.2602 234.242 28.8937 234.116 29.5674C233.991 30.2315 233.961 31.0163 233.961 31.9H235.961C235.961 31.0337 235.994 30.406 236.082 29.9357C236.168 29.4751 236.293 29.2523 236.414 29.1229C236.533 28.9968 236.744 28.8583 237.204 28.7557C237.676 28.6503 238.332 28.6 239.261 28.6V26.6ZM233.961 31.9V36.7H235.961V31.9H233.961ZM233.961 36.7C233.961 38.5178 234.121 39.8847 235.11 41.0101C235.58 41.5445 236.19 41.9724 236.918 42.3813C237.645 42.7896 238.552 43.2124 239.647 43.7104L240.475 41.8896C239.371 41.3876 238.54 40.9979 237.898 40.6375C237.257 40.2776 236.868 39.9805 236.612 39.6899C236.151 39.1652 235.961 38.4822 235.961 36.7H233.961ZM239.655 43.7138C240.569 44.1198 245.232 46.2041 247.096 47.1849L248.027 45.4151C246.091 44.3959 241.354 42.2802 240.467 41.8862L239.655 43.7138ZM247.094 47.1842C249.663 48.5415 250.967 49.7499 251.671 51.0408C252.38 52.3439 252.561 53.8756 252.561 56.1H254.561C254.561 53.8244 254.392 51.8561 253.427 50.0841C252.455 48.3001 250.759 46.8585 248.028 45.4158L247.094 47.1842ZM252.561 56.1V67.2H254.561V56.1H252.561ZM252.561 67.2C252.561 70.0074 252.417 72.1265 252.042 73.741C251.671 75.337 251.092 76.3681 250.269 77.0818C249.432 77.807 248.232 78.301 246.435 78.6029C244.633 78.9053 242.329 79 239.361 79V81C242.343 81 244.789 80.9072 246.766 80.5753C248.746 80.2427 250.353 79.6555 251.579 78.5932C252.818 77.5194 253.557 76.0568 253.99 74.1933C254.418 72.3485 254.561 70.0426 254.561 67.2H252.561ZM239.361 79C236.419 79 234.114 78.9054 232.298 78.6027C230.484 78.3005 229.251 77.8049 228.38 77.0722C227.524 76.3521 226.916 75.3164 226.523 73.7269C226.124 72.1173 225.961 70.0024 225.961 67.2H223.961C223.961 70.0476 224.123 72.3577 224.581 74.2075C225.044 76.0773 225.824 77.5354 227.093 78.6028C228.347 79.6576 229.976 80.2433 231.969 80.5755C233.959 80.9071 236.404 81 239.361 81V79ZM225.961 67.2V58H223.961V67.2H225.961ZM224.961 59H234.961V57H224.961V59ZM233.961 58V66.1H235.961V58H233.961ZM233.961 66.1C233.961 67.019 234.005 67.8282 234.15 68.514C234.298 69.2107 234.565 69.8459 235.06 70.3502C235.555 70.8555 236.188 71.1364 236.894 71.2946C237.589 71.4501 238.413 71.5 239.361 71.5V69.5C238.459 69.5 237.809 69.4499 237.331 69.3429C236.866 69.2386 236.63 69.0945 236.488 68.9498C236.345 68.8041 236.206 68.5643 236.107 68.0985C236.005 67.6218 235.961 66.981 235.961 66.1H233.961ZM239.361 71.5C240.36 71.5 241.209 71.4439 241.909 71.2777C242.624 71.108 243.25 70.808 243.722 70.276C244.187 69.7519 244.408 69.1072 244.524 68.4324C244.637 67.7652 244.661 66.9787 244.661 66.1H242.661C242.661 66.9713 242.635 67.6098 242.552 68.0958C242.47 68.574 242.348 68.8106 242.226 68.949C242.11 69.0795 241.904 69.2233 241.448 69.3317C240.976 69.4436 240.312 69.5 239.361 69.5V71.5ZM244.661 66.1V58.8H242.661V66.1H244.661ZM244.661 58.8C244.661 57.199 244.553 55.8991 243.759 54.8016C242.997 53.748 241.706 53.031 239.879 52.1913L239.044 54.0087C240.916 54.869 241.725 55.402 242.138 55.9734C242.52 56.5009 242.661 57.201 242.661 58.8H244.661ZM239.886 52.1945C238.252 51.4289 236.936 50.938 235.684 50.4346C234.431 49.9309 233.2 49.3992 231.652 48.5284L230.671 50.2716C232.323 51.2008 233.642 51.7691 234.938 52.2903C236.236 52.812 237.47 53.2711 239.037 54.0055L239.886 52.1945ZM231.636 48.5201C229.183 47.1951 227.843 46.1078 227.06 44.7013C226.267 43.2754 225.961 41.3715 225.961 38.2H223.961C223.961 41.4285 224.256 43.7746 225.312 45.6737C226.38 47.5922 228.14 48.9049 230.686 50.2799L231.636 48.5201ZM225.961 38.2V30.9H223.961V38.2H225.961ZM225.961 30.9C225.961 28.0959 226.118 25.9798 226.51 24.3689C226.896 22.778 227.496 21.7441 228.345 21.0259C229.208 20.2951 230.437 19.7996 232.255 19.4974C234.076 19.1946 236.394 19.1 239.361 19.1V17.1C236.379 17.1 233.922 17.1929 231.927 17.5245C229.929 17.8566 228.302 18.4424 227.053 19.4991C225.789 20.5684 225.02 22.0283 224.566 23.8967C224.117 25.7452 223.961 28.0541 223.961 30.9H225.961ZM239.361 19.1C242.304 19.1 244.596 19.1947 246.392 19.4971C248.185 19.7988 249.389 20.2929 250.234 21.0201C251.064 21.7359 251.651 22.7687 252.029 24.3631C252.411 25.9764 252.561 28.0944 252.561 30.9H254.561C254.561 28.0556 254.412 25.7486 253.975 23.9025C253.534 22.0375 252.783 20.5766 251.539 19.5049C250.308 18.4445 248.7 17.8574 246.724 17.5248C244.752 17.1928 242.318 17.1 239.361 17.1V19.1ZM252.561 30.9V36.4H254.561V30.9H252.561ZM311.307 44.4L310.822 45.2742L312.307 46.0995V44.4H311.307ZM302.707 37.9V38.9H303.707V37.9H302.707ZM293.407 37.9H292.407V38.9H293.407V37.9ZM321.207 79L321.45 79.9701L322.207 79.7808V79H321.207ZM311.307 71.4L311.55 72.3701L312.307 72.1808V71.4H311.307ZM311.307 51.8H312.307V51.2116L311.793 50.9258L311.307 51.8ZM307.007 79C304.212 79 302.027 78.9241 300.308 78.6615C298.59 78.399 297.437 77.9634 296.632 77.3191C295.847 76.6912 295.289 75.7817 294.927 74.3538C294.558 72.9026 294.407 70.9784 294.407 68.4H292.407C292.407 71.0216 292.557 73.1474 292.988 74.8462C293.426 76.5683 294.168 77.9088 295.383 78.8809C296.577 79.8366 298.125 80.351 300.006 80.6385C301.887 80.9259 304.203 81 307.007 81V79ZM294.407 68.4V53.9H292.407V68.4H294.407ZM294.407 53.9C294.407 50.3742 295.028 48.0736 296.243 46.6489C297.425 45.2635 299.353 44.5 302.507 44.5V42.5C299.062 42.5 296.44 43.3365 294.722 45.3511C293.037 47.3264 292.407 50.2258 292.407 53.9H294.407ZM302.507 44.5H304.407V42.5H302.507V44.5ZM304.407 44.5C308.901 44.5 310.167 44.9106 310.822 45.2742L311.793 43.5258C310.647 42.8894 308.913 42.5 304.407 42.5V44.5ZM312.307 44.4V32H310.307V44.4H312.307ZM312.307 32C312.307 30.909 312.264 29.9773 312.128 29.2014C311.993 28.4247 311.752 27.7248 311.299 27.1612C310.362 25.9937 308.842 25.8 307.107 25.8V27.8C308.872 27.8 309.453 28.0563 309.74 28.4137C309.9 28.6126 310.053 28.944 310.158 29.5454C310.263 30.1477 310.307 30.941 310.307 32H312.307ZM307.107 25.8C305.166 25.8 303.591 26.0456 302.656 27.2486C302.204 27.8289 301.98 28.5375 301.859 29.3011C301.738 30.0633 301.707 30.9672 301.707 32H303.707C303.707 30.9828 303.739 30.2117 303.834 29.6145C303.929 29.0187 304.073 28.6836 304.234 28.4764C304.524 28.1044 305.149 27.8 307.107 27.8V25.8ZM301.707 32V37.9H303.707V32H301.707ZM302.707 36.9H293.407V38.9H302.707V36.9ZM294.407 37.9V30.8H292.407V37.9H294.407ZM294.407 30.8C294.407 27.9951 294.558 25.8808 294.93 24.2741C295.298 22.6836 295.868 21.662 296.658 20.9607C297.459 20.2508 298.595 19.772 300.285 19.4808C301.981 19.1885 304.139 19.1 306.907 19.1V17.1C304.126 17.1 301.822 17.1865 299.945 17.5098C298.063 17.8342 296.518 18.4117 295.331 19.4643C294.135 20.5255 293.41 21.9727 292.982 23.8228C292.557 25.6567 292.407 27.9549 292.407 30.8H294.407ZM306.907 19.1C309.848 19.1 312.146 19.2008 313.952 19.5092C315.754 19.8169 316.975 20.3174 317.834 21.049C318.68 21.7686 319.276 22.7985 319.661 24.3705C320.051 25.9623 320.207 28.0468 320.207 30.8H322.207C322.207 28.0032 322.052 25.7252 321.604 23.8951C321.151 22.0452 320.385 20.5939 319.131 19.526C317.89 18.4701 316.274 17.8768 314.288 17.5377C312.306 17.1992 309.867 17.1 306.907 17.1V19.1ZM320.207 30.8V79H322.207V30.8H320.207ZM320.965 78.0299C318.697 78.5969 313.508 79 307.007 79V81C313.507 81 318.918 80.6031 321.45 79.9701L320.965 78.0299ZM307.607 72.6C308.525 72.6 309.369 72.5746 310.04 72.5358C310.673 72.4993 311.243 72.4468 311.55 72.3701L311.065 70.4299C311.065 70.4298 311.063 70.4303 311.058 70.4314C311.053 70.4325 311.046 70.4339 311.036 70.4357C311.018 70.4392 310.992 70.4434 310.96 70.4482C310.896 70.4577 310.813 70.4681 310.71 70.4788C310.505 70.5002 310.24 70.521 309.925 70.5392C309.296 70.5754 308.49 70.6 307.607 70.6V72.6ZM312.307 71.4V51.8H310.307V71.4H312.307ZM311.793 50.9258C311.188 50.5894 310.473 50.4166 309.766 50.3214C309.05 50.2251 308.274 50.2 307.507 50.2V52.2C308.241 52.2 308.914 52.2249 309.499 52.3036C310.092 52.3834 310.527 52.5106 310.822 52.6742L311.793 50.9258ZM307.507 50.2C306.366 50.2 305.41 50.2552 304.633 50.4352C303.837 50.6196 303.15 50.9535 302.648 51.5647C302.16 52.1576 301.944 52.8942 301.834 53.677C301.725 54.4583 301.707 55.4051 301.707 56.5H303.707C303.707 55.3949 303.727 54.5792 303.815 53.9543C303.902 53.3308 304.042 53.0174 304.192 52.8353C304.327 52.6715 304.559 52.5054 305.085 52.3836C305.63 52.2572 306.398 52.2 307.507 52.2V50.2ZM301.707 56.5V65.9H303.707V56.5H301.707ZM301.707 65.9C301.707 67.1435 301.725 68.1868 301.834 69.029C301.944 69.8678 302.158 70.6429 302.656 71.2556C303.174 71.8931 303.884 72.2184 304.693 72.3906C305.479 72.558 306.452 72.6 307.607 72.6V70.6C306.463 70.6 305.673 70.5545 305.109 70.4344C304.568 70.3191 304.341 70.1569 304.208 69.9944C304.056 69.8071 303.909 69.4697 303.818 68.771C303.727 68.0757 303.707 67.1565 303.707 65.9H301.707ZM347.661 -1.90735e-06H348.661V-1H347.661V-1.90735e-06ZM347.661 79V80H348.661V79H347.661ZM337.461 79H336.461V80H337.461V79ZM337.461 -1.90735e-06V-1H336.461V-1.90735e-06H337.461ZM346.661 -1.90735e-06V79H348.661V-1.90735e-06H346.661ZM347.661 78H337.461V80H347.661V78ZM338.461 79V-1.90735e-06H336.461V79H338.461ZM337.461 0.999998H347.661V-1H337.461V0.999998ZM382.909 67.3L383.831 67.6881L383.909 67.5019V67.3H382.909ZM382.909 19.1V18.1H381.909V19.1H382.909ZM393.209 19.1H394.209V18.1H393.209V19.1ZM393.209 79V80H394.209V79H393.209ZM383.609 79H382.609V80H383.609V79ZM383.609 75.1H384.609L382.727 74.6294L383.609 75.1ZM363.909 19.1V18.1H362.909V19.1H363.909ZM374.109 19.1H375.109V18.1H374.109V19.1ZM383.909 67.3V19.1H381.909V67.3H383.909ZM382.909 20.1H393.209V18.1H382.909V20.1ZM392.209 19.1V79H394.209V19.1H392.209ZM393.209 78H383.609V80H393.209V78ZM384.609 79V75.1H382.609V79H384.609ZM382.727 74.6294C382.012 75.97 381.108 76.9023 379.805 77.5219C378.469 78.1569 376.637 78.5 374.009 78.5V80.5C376.781 80.5 378.949 80.1431 380.663 79.3281C382.41 78.4977 383.606 77.23 384.491 75.5706L382.727 74.6294ZM374.009 78.5C370.238 78.5 368.109 77.7804 366.842 76.2498C365.524 74.658 364.909 71.9351 364.909 67.3H362.909C362.909 71.9649 363.494 75.342 365.301 77.5252C367.159 79.7696 370.08 80.5 374.009 80.5V78.5ZM364.909 67.3V19.1H362.909V67.3H364.909ZM363.909 20.1H374.109V18.1H363.909V20.1ZM373.109 19.1V66.3H375.109V19.1H373.109ZM373.109 66.3C373.109 67.7377 373.3 69.0893 374.142 70.0565C375.015 71.0595 376.357 71.4 378.009 71.4V69.4C376.561 69.4 375.953 69.0905 375.651 68.7435C375.318 68.3607 375.109 67.6623 375.109 66.3H373.109ZM378.009 71.4C379.639 71.4 380.892 71.0737 381.866 70.3753C382.835 69.6815 383.4 68.7097 383.831 67.6881L381.987 66.9119C381.617 67.7903 381.233 68.3685 380.701 68.7497C380.176 69.1263 379.379 69.4 378.009 69.4V71.4ZM420.107 30.9L419.193 30.4939L419.107 30.6878V30.9H420.107ZM420.107 79V80H421.107V79H420.107ZM409.907 79H408.907V80H409.907V79ZM409.907 19.1V18.1H408.907V19.1H409.907ZM419.407 19.1H420.407V18.1H419.407V19.1ZM419.407 23.1H418.407L420.289 23.5706L419.407 23.1ZM439.407 79V80H440.407V79H439.407ZM429.207 79H428.207V80H429.207V79ZM419.107 30.9V79H421.107V30.9H419.107ZM420.107 78H409.907V80H420.107V78ZM410.907 79V19.1H408.907V79H410.907ZM409.907 20.1H419.407V18.1H409.907V20.1ZM418.407 19.1V23.1H420.407V19.1H418.407ZM420.289 23.5706C421.002 22.2331 421.931 21.2727 423.277 20.6265C424.652 19.9664 426.535 19.6 429.207 19.6V17.6C426.378 17.6 424.161 17.9836 422.411 18.8235C420.633 19.6773 419.411 20.9669 418.524 22.6294L420.289 23.5706ZM429.207 19.6C432.969 19.6 435.131 20.3408 436.427 21.8912C437.769 23.498 438.407 26.2242 438.407 30.8H440.407C440.407 26.1758 439.794 22.802 437.961 20.6088C436.082 18.3592 433.144 17.6 429.207 17.6V19.6ZM438.407 30.8V79H440.407V30.8H438.407ZM439.407 78H429.207V80H439.407V78ZM430.207 79V31.9H428.207V79H430.207ZM430.207 31.9C430.207 30.3415 429.959 28.9746 429.052 28.0319C428.136 27.0788 426.782 26.8 425.207 26.8V28.8C426.631 28.8 427.277 29.0711 427.611 29.4181C427.954 29.7754 428.207 30.4585 428.207 31.9H430.207ZM425.207 26.8C423.431 26.8 422.124 27.1497 421.134 27.864C420.152 28.5723 419.613 29.5476 419.193 30.4939L421.02 31.3061C421.4 30.4524 421.761 29.8776 422.304 29.486C422.839 29.1003 423.683 28.8 425.207 28.8V26.8ZM482.011 30.8V67.3H484.011V30.8H482.011ZM482.011 67.3C482.011 70.077 481.848 72.1729 481.452 73.7681C481.06 75.3432 480.456 76.37 479.605 77.0844C478.74 77.8113 477.516 78.3037 475.717 78.6043C473.915 78.9054 471.628 79 468.711 79V81C471.644 81 474.07 80.9071 476.046 80.577C478.026 80.2463 479.645 79.6637 480.892 78.6156C482.154 77.555 482.931 76.1068 483.393 74.2507C483.849 72.4146 484.011 70.123 484.011 67.3H482.011ZM468.711 79C465.769 79 463.47 78.9054 461.663 78.6042C459.859 78.3036 458.64 77.8113 457.782 77.0863C456.939 76.3738 456.343 75.3488 455.958 73.7723C455.568 72.1758 455.411 70.0787 455.411 67.3H453.411C453.411 70.1213 453.567 72.4117 454.015 74.2465C454.467 76.1012 455.234 77.5512 456.491 78.6137C457.733 79.6637 459.351 80.2464 461.334 80.577C463.315 80.9071 465.754 81 468.711 81V79ZM455.411 67.3V30.8H453.411V67.3H455.411ZM455.411 30.8C455.411 28.0213 455.568 25.9242 455.958 24.3277C456.343 22.7512 456.939 21.7262 457.782 21.0137C458.64 20.2887 459.859 19.7964 461.663 19.4958C463.47 19.1946 465.769 19.1 468.711 19.1V17.1C465.754 17.1 463.315 17.1929 461.334 17.523C459.351 17.8536 457.733 18.4363 456.491 19.4863C455.234 20.5488 454.467 21.9988 454.015 23.8535C453.567 25.6883 453.411 27.9787 453.411 30.8H455.411ZM468.711 19.1C471.628 19.1 473.915 19.1946 475.717 19.4957C477.516 19.7963 478.74 20.2887 479.605 21.0156C480.456 21.73 481.06 22.7568 481.452 24.3319C481.848 25.9271 482.011 28.023 482.011 30.8H484.011C484.011 27.977 483.849 25.6854 483.393 23.8493C482.931 21.9932 482.154 20.545 480.892 19.4844C479.645 18.4363 478.026 17.8537 476.046 17.523C474.07 17.1929 471.644 17.1 468.711 17.1V19.1ZM474.111 66.3V31.9H472.111V66.3H474.111ZM474.111 31.9C474.111 31.0052 474.068 30.22 473.925 29.5563C473.779 28.8815 473.517 28.2661 473.031 27.7804C472.545 27.2946 471.93 27.0321 471.255 26.8865C470.591 26.7434 469.806 26.7 468.911 26.7V28.7C469.766 28.7 470.381 28.7441 470.833 28.8416C471.274 28.9366 471.49 29.0679 471.617 29.1946C471.743 29.3214 471.875 29.5373 471.97 29.978C472.067 30.43 472.111 31.0448 472.111 31.9H474.111ZM468.911 26.7C467.938 26.7 467.094 26.7501 466.384 26.8995C465.666 27.0504 465.021 27.3154 464.507 27.7912C463.48 28.7422 463.311 30.2228 463.311 31.9H465.311C465.311 30.1772 465.543 29.5578 465.866 29.2588C466.027 29.1096 466.294 28.9621 466.795 28.8567C467.303 28.7499 467.985 28.7 468.911 28.7V26.7ZM463.311 31.9V66.3H465.311V31.9H463.311ZM463.311 66.3C463.311 67.9637 463.453 69.4495 464.41 70.4252C465.37 71.4044 466.881 71.6 468.711 71.6V69.6C466.841 69.6 466.152 69.3456 465.838 69.0248C465.52 68.7005 465.311 68.0363 465.311 66.3H463.311ZM468.711 71.6C470.6 71.6 472.117 71.3774 473.064 70.3737C473.543 69.8653 473.798 69.2388 473.937 68.567C474.074 67.9062 474.111 67.1421 474.111 66.3H472.111C472.111 67.1079 472.073 67.7063 471.979 68.1611C471.887 68.6049 471.754 68.8472 471.609 69.0013C471.306 69.3226 470.622 69.6 468.711 69.6V71.6ZM526.651 36.4V37.4H527.651V36.4H526.651ZM516.751 36.4H515.751V37.4H516.751V36.4ZM513.151 42.8L512.737 43.7104L512.745 43.7138L513.151 42.8ZM520.651 46.3L521.118 45.4158L521.117 45.4151L520.651 46.3ZM498.051 58V57H497.051V58H498.051ZM508.051 58H509.051V57H508.051V58ZM512.551 53.1L512.127 54.0055L512.134 54.0087L512.551 53.1ZM504.251 49.4L504.741 48.5284L504.734 48.5242L504.726 48.5201L504.251 49.4ZM526.651 35.4H516.751V37.4H526.651V35.4ZM517.751 36.4V31.9H515.751V36.4H517.751ZM517.751 31.9C517.751 31.0109 517.714 30.2217 517.578 29.5518C517.439 28.8703 517.183 28.2396 516.69 27.7374C516.198 27.235 515.564 26.9585 514.856 26.803C514.159 26.6498 513.323 26.6 512.351 26.6V28.6C513.279 28.6 513.943 28.6502 514.427 28.7564C514.9 28.8603 515.13 29.0025 515.262 29.1376C515.395 29.2729 515.526 29.4985 515.618 29.9513C515.713 30.4158 515.751 31.0391 515.751 31.9H517.751ZM512.351 26.6C511.38 26.6 510.549 26.6497 509.858 26.8037C509.156 26.9604 508.529 27.2407 508.048 27.7521C507.57 28.2602 507.332 28.8937 507.206 29.5674C507.081 30.2315 507.051 31.0163 507.051 31.9H509.051C509.051 31.0337 509.083 30.406 509.172 29.9357C509.258 29.4751 509.383 29.2523 509.504 29.1229C509.623 28.9968 509.834 28.8583 510.294 28.7557C510.766 28.6503 511.422 28.6 512.351 28.6V26.6ZM507.051 31.9V36.7H509.051V31.9H507.051ZM507.051 36.7C507.051 38.5178 507.211 39.8847 508.2 41.0101C508.67 41.5445 509.28 41.9724 510.008 42.3813C510.735 42.7896 511.642 43.2124 512.737 43.7104L513.565 41.8896C512.46 41.3876 511.629 40.9979 510.988 40.6375C510.347 40.2776 509.958 39.9805 509.702 39.6899C509.241 39.1652 509.051 38.4822 509.051 36.7H507.051ZM512.745 43.7138C513.659 44.1198 518.322 46.2041 520.185 47.1849L521.117 45.4151C519.18 44.3959 514.444 42.2802 513.557 41.8862L512.745 43.7138ZM520.184 47.1842C522.753 48.5415 524.057 49.7499 524.76 51.0408C525.47 52.3439 525.651 53.8756 525.651 56.1H527.651C527.651 53.8244 527.482 51.8561 526.517 50.0841C525.545 48.3001 523.849 46.8585 521.118 45.4158L520.184 47.1842ZM525.651 56.1V67.2H527.651V56.1H525.651ZM525.651 67.2C525.651 70.0074 525.507 72.1265 525.132 73.741C524.761 75.337 524.182 76.3681 523.359 77.0818C522.522 77.807 521.322 78.301 519.525 78.6029C517.723 78.9053 515.419 79 512.451 79V81C515.433 81 517.879 80.9072 519.856 80.5753C521.836 80.2427 523.443 79.6555 524.669 78.5932C525.907 77.5194 526.647 76.0568 527.08 74.1933C527.508 72.3485 527.651 70.0426 527.651 67.2H525.651ZM512.451 79C509.509 79 507.204 78.9054 505.387 78.6027C503.574 78.3005 502.341 77.8049 501.47 77.0722C500.614 76.3521 500.006 75.3164 499.612 73.7269C499.214 72.1173 499.051 70.0024 499.051 67.2H497.051C497.051 70.0476 497.213 72.3577 497.671 74.2075C498.134 76.0773 498.914 77.5354 500.182 78.6028C501.436 79.6576 503.065 80.2433 505.059 80.5755C507.049 80.9071 509.494 81 512.451 81V79ZM499.051 67.2V58H497.051V67.2H499.051ZM498.051 59H508.051V57H498.051V59ZM507.051 58V66.1H509.051V58H507.051ZM507.051 66.1C507.051 67.019 507.094 67.8282 507.24 68.514C507.388 69.2107 507.655 69.8459 508.15 70.3502C508.645 70.8555 509.278 71.1364 509.984 71.2946C510.678 71.4501 511.503 71.5 512.451 71.5V69.5C511.549 69.5 510.899 69.4499 510.421 69.3429C509.955 69.2386 509.719 69.0945 509.578 68.9498C509.435 68.8041 509.295 68.5643 509.196 68.0985C509.095 67.6218 509.051 66.981 509.051 66.1H507.051ZM512.451 71.5C513.45 71.5 514.299 71.4439 514.999 71.2777C515.714 71.108 516.34 70.808 516.812 70.276C517.277 69.7519 517.498 69.1072 517.613 68.4324C517.727 67.7652 517.751 66.9787 517.751 66.1H515.751C515.751 66.9713 515.725 67.6098 515.642 68.0958C515.56 68.574 515.438 68.8106 515.315 68.949C515.2 69.0795 514.994 69.2233 514.537 69.3317C514.066 69.4436 513.402 69.5 512.451 69.5V71.5ZM517.751 66.1V58.8H515.751V66.1H517.751ZM517.751 58.8C517.751 57.199 517.643 55.8991 516.849 54.8016C516.087 53.748 514.796 53.031 512.969 52.1913L512.134 54.0087C514.006 54.869 514.815 55.402 515.228 55.9734C515.61 56.5009 515.751 57.201 515.751 58.8H517.751ZM512.976 52.1945C511.342 51.4289 510.026 50.938 508.774 50.4346C507.521 49.9309 506.289 49.3992 504.741 48.5284L503.761 50.2716C505.413 51.2008 506.731 51.7691 508.028 52.2903C509.326 52.812 510.56 53.2711 512.127 54.0055L512.976 52.1945ZM504.726 48.5201C502.273 47.1951 500.933 46.1078 500.15 44.7013C499.357 43.2754 499.051 41.3715 499.051 38.2H497.051C497.051 41.4285 497.346 43.7746 498.402 45.6737C499.47 47.5922 501.23 48.9049 503.776 50.2799L504.726 48.5201ZM499.051 38.2V30.9H497.051V38.2H499.051ZM499.051 30.9C499.051 28.0959 499.208 25.9798 499.599 24.3689C499.986 22.778 500.586 21.7441 501.435 21.0259C502.298 20.2951 503.527 19.7996 505.345 19.4974C507.166 19.1946 509.483 19.1 512.451 19.1V17.1C509.469 17.1 507.011 17.1929 505.017 17.5245C503.019 17.8566 501.392 18.4424 500.143 19.4991C498.879 20.5684 498.11 22.0283 497.656 23.8967C497.207 25.7452 497.051 28.0541 497.051 30.9H499.051ZM512.451 19.1C515.394 19.1 517.685 19.1947 519.482 19.4971C521.275 19.7988 522.479 20.2929 523.323 21.0201C524.154 21.7359 524.741 22.7687 525.119 24.3631C525.5 25.9764 525.651 28.0944 525.651 30.9H527.651C527.651 28.0556 527.502 25.7486 527.065 23.9025C526.623 22.0375 525.873 20.5766 524.629 19.5049C523.398 18.4445 521.79 17.8574 519.814 17.5248C517.842 17.1928 515.408 17.1 512.451 17.1V19.1ZM525.651 30.9V36.4H527.651V30.9H525.651Z" fill="black" fill-opacity="0.5" mask="url(#path-1-outside-1_14_1028)"/>
</svg>
