<?xml version="1.0" encoding="utf-8"?>
<!-- Generator: Adobe Illustrator 15.1.0, SVG Export Plug-In . SVG Version: 6.00 Build 0)  -->
<!DOCTYPE svg PUBLIC "-//W3C//DTD SVG 1.1//EN" "http://www.w3.org/Graphics/SVG/1.1/DTD/svg11.dtd">
<svg version="1.1" id="Camada_1" xmlns="http://www.w3.org/2000/svg" xmlns:xlink="http://www.w3.org/1999/xlink" x="0px" y="0px"
	 width="247.598px" height="95.806px" viewBox="0 0 247.598 95.806" enable-background="new 0 0 247.598 95.806"
	 xml:space="preserve">
<g>
	<path fill="#BF8E50" d="M32.902,64.804c0,14.701-2.9,16.701-16.501,16.701C2.8,81.505,0,79.505,0,64.804V17.101
		C0,2.5,2.8,0.5,16.401,0.5c13.601,0,16.501,2,16.501,16.601V64.804z M21.301,17.101c0-5.3-0.7-6.3-4.8-6.3c-4.3,0-5,1.1-5,6.3
		v47.703c0,5.5,0.7,6.5,4.8,6.5c4.4,0,5-1.2,5-6.5V17.101z"/>
	<path fill="#BF8E50" d="M56.797,32.302c0-9.2,1.8-12.201,9.601-12.201c4.5,0,7.5,1,9.5,4.9v-4.4h9.501v75.205H75.099V76.905
		c-1.6,2.7-4,4.1-9,4.1c-7.5,0-9.301-3.2-9.301-12.201V32.302z M75.398,32.402c-1-2.2-2.3-3.1-4.9-3.1c-3,0-3.8,1.2-3.8,5v32.602
		c0,3.8,0.8,5,3.8,5c2.6,0,3.9-0.9,4.9-3.1V32.402z"/>
	<path fill="#BF8E50" d="M112.798,20.601h10.301v59.904h-9.601v-3.9c-1.6,3-4.201,4.4-9.601,4.4c-7.701,0-10.101-2.9-10.101-12.201
		V20.601h10.2v47.203c0,2.8,0.8,4.1,3.9,4.1c3,0,4.1-1.2,4.9-3.1V20.601z"/>
	<path fill="#BF8E50" d="M140.997,54.103v14.101c0,3.8,0.601,4.6,4.3,4.6c3.602,0,4.301-0.8,4.301-4.6v-8.101h9.201v8.701
		c0,11.301-2.5,12.701-13.602,12.701c-11.801,0-14.201-1.6-14.201-12.701V32.302c0-11.101,2.4-12.701,14.201-12.701
		c11.102,0,13.602,1.4,13.602,12.701v21.801H140.997z M140.997,45.903h8.601V33.102c0-3.8-0.699-4.5-4.301-4.5
		c-3.699,0-4.3,0.7-4.3,4.5V45.903z"/>
	<path fill="#BF8E50" d="M192.795,54.103v14.101c0,3.8,0.601,4.6,4.3,4.6c3.602,0,4.301-0.8,4.301-4.6v-8.101h9.201v8.701
		c0,11.301-2.5,12.701-13.602,12.701c-11.801,0-14.201-1.6-14.201-12.701V32.302c0-11.101,2.4-12.701,14.201-12.701
		c11.102,0,13.602,1.4,13.602,12.701v21.801H192.795z M197.296,0h11l-9.5,16.601h-7.801L197.296,0z M192.795,45.903h8.601V33.102
		c0-3.8-0.699-4.5-4.301-4.5c-3.699,0-4.3,0.7-4.3,4.5V45.903z"/>
	<path fill="#BF8E50" d="M225.396,55.203c0-6.7,0.801-9.2,3.201-13.101l5.5-8.701c1.6-2.5,1.9-4.2,1.9-8.3v-8c0-5.3-0.7-6.3-4.9-6.3
		c-4.4,0-4.9,1.1-4.9,6.3v10h-11.201v-10c0-14.601,3-16.601,16.301-16.601c13.302,0,16.302,2,16.302,16.601v7.101
		c0,6.9-0.601,9-3.7,13.9l-6.9,11.001c-1.5,2.4-1.801,3.3-1.801,6.601v5.9h-9.801V55.203z M235.697,80.505h-10.5V67.404h10.5V80.505
		z"/>
</g>
</svg>
