<svg width="70" height="70" viewBox="0 0 70 70" fill="none" xmlns="http://www.w3.org/2000/svg">
<path d="M35.0029 26.2502C32.6823 26.2502 30.4567 27.172 28.8157 28.813C27.1748 30.4539 26.2529 32.6795 26.2529 35.0002C26.2529 37.3208 27.1748 39.5464 28.8157 41.1873C30.4567 42.8283 32.6823 43.7502 35.0029 43.7502C37.3235 43.7502 39.5491 42.8283 41.1901 41.1873C42.831 39.5464 43.7529 37.3208 43.7529 35.0002C43.7529 32.6795 42.831 30.4539 41.1901 28.813C39.5491 27.172 37.3235 26.2502 35.0029 26.2502ZM35.0029 20.4168C38.8706 20.4168 42.58 21.9533 45.3149 24.6882C48.0498 27.4231 49.5862 31.1324 49.5862 35.0002C49.5862 38.8679 48.0498 42.5772 45.3149 45.3121C42.58 48.047 38.8706 49.5835 35.0029 49.5835C31.1352 49.5835 27.4258 48.047 24.6909 45.3121C21.956 42.5772 20.4196 38.8679 20.4196 35.0002C20.4196 31.1324 21.956 27.4231 24.6909 24.6882C27.4258 21.9533 31.1352 20.4168 35.0029 20.4168ZM53.9612 19.6877C53.9612 20.6546 53.5771 21.5819 52.8934 22.2657C52.2097 22.9494 51.2823 23.3335 50.3154 23.3335C49.3485 23.3335 48.4211 22.9494 47.7374 22.2657C47.0537 21.5819 46.6696 20.6546 46.6696 19.6877C46.6696 18.7207 47.0537 17.7934 47.7374 17.1097C48.4211 16.4259 49.3485 16.0418 50.3154 16.0418C51.2823 16.0418 52.2097 16.4259 52.8934 17.1097C53.5771 17.7934 53.9612 18.7207 53.9612 19.6877ZM35.0029 11.6668C27.7871 11.6668 26.6087 11.6872 23.2516 11.836C20.965 11.9439 19.4308 12.2502 18.0075 12.8043C16.8164 13.2416 15.7395 13.9426 14.8575 14.8547C13.9446 15.7367 13.2427 16.8135 12.8041 18.0047C12.25 19.4339 11.9437 20.9652 11.8387 23.2489C11.6871 26.4689 11.6666 27.5947 11.6666 35.0002C11.6666 42.2189 11.6871 43.3943 11.8358 46.7514C11.9437 49.0352 12.25 50.5722 12.8012 51.9927C13.2971 53.2614 13.8804 54.1743 14.8487 55.1427C15.8316 56.1227 16.7446 56.7089 17.9987 57.1931C19.4396 57.7502 20.9737 58.0593 23.2487 58.1643C26.4687 58.316 27.5946 58.3335 35 58.3335C42.2187 58.3335 43.3941 58.3131 46.7512 58.1643C49.0321 58.0564 50.5662 57.7502 51.9925 57.1989C53.1825 56.7594 54.2589 56.0588 55.1425 55.1485C56.1254 54.1685 56.7116 53.2556 57.1958 51.9985C57.75 50.5635 58.0591 49.0293 58.1641 46.7485C58.3158 43.5314 58.3333 42.4027 58.3333 35.0002C58.3333 27.7843 58.3129 26.606 58.1641 23.2489C58.0562 20.9681 57.7471 19.4281 57.1958 18.0047C56.7562 16.8148 56.0555 15.7384 55.1454 14.8547C54.2638 13.9414 53.1869 13.2394 51.9954 12.8014C50.5662 12.2472 49.0321 11.941 46.7512 11.836C43.5341 11.6843 42.4083 11.6668 35 11.6668M35 5.8335C42.9246 5.8335 43.9133 5.86266 47.0254 6.0085C50.1287 6.15433 52.2462 6.64141 54.1041 7.36475C56.0291 8.10558 57.6508 9.10891 59.2725 10.7277C60.7556 12.1857 61.9032 13.9494 62.6354 15.896C63.3558 17.7539 63.8458 19.8714 63.9916 22.9777C64.1287 26.0868 64.1666 27.0756 64.1666 35.0002C64.1666 42.9247 64.1375 43.9135 63.9916 47.0227C63.8458 50.1289 63.3558 52.2435 62.6354 54.1043C61.9052 56.052 60.7573 57.8161 59.2725 59.2727C57.814 60.7553 56.0505 61.9028 54.1041 62.6356C52.2462 63.356 50.1287 63.846 47.0254 63.9918C43.9133 64.1289 42.9246 64.1668 35 64.1668C27.0754 64.1668 26.0866 64.1377 22.9746 63.9918C19.8712 63.846 17.7566 63.356 15.8958 62.6356C13.9484 61.9049 12.1844 60.7571 10.7275 59.2727C9.24415 57.8148 8.09653 56.0511 7.36456 54.1043C6.64123 52.2464 6.15415 50.1289 6.00831 47.0227C5.86831 43.9135 5.83331 42.9247 5.83331 35.0002C5.83331 27.0756 5.86248 26.0868 6.00831 22.9777C6.15415 19.8714 6.64123 17.7568 7.36456 15.896C8.09442 13.9482 9.24232 12.184 10.7275 10.7277C12.1849 9.24375 13.9487 8.09604 15.8958 7.36475C17.7537 6.64141 19.8683 6.15433 22.9746 6.0085C26.0896 5.87141 27.0783 5.8335 35.0029 5.8335" fill="#322A85"/>
</svg>
