<svg width="58" height="57" viewBox="0 0 58 57" fill="white" xmlns="http://www.w3.org/2000/svg">
<path d="M29 0C25.1917 0 21.4206 0.755476 17.9022 2.22329C14.3837 3.69111 11.1868 5.84253 8.4939 8.5547C3.05535 14.0322 0 21.4612 0 29.2076C0 42.1173 8.323 53.0702 19.836 56.9548C21.286 57.1884 21.75 56.283 21.75 55.4944V50.5583C13.717 52.3108 12.006 46.6445 12.006 46.6445C10.672 43.2564 8.787 42.351 8.787 42.351C6.148 40.5401 8.99 40.5985 8.99 40.5985C11.89 40.803 13.427 43.6069 13.427 43.6069C15.95 48.0465 20.213 46.7321 21.866 46.0311C22.127 44.1326 22.881 42.8475 23.693 42.1173C17.255 41.3871 10.498 38.8753 10.498 27.7472C10.498 24.5051 11.6 21.9057 13.485 19.8319C13.195 19.1017 12.18 16.0642 13.775 12.1211C13.775 12.1211 16.211 11.3325 21.75 15.1003C24.041 14.4577 26.535 14.1365 29 14.1365C31.465 14.1365 33.959 14.4577 36.25 15.1003C41.789 11.3325 44.225 12.1211 44.225 12.1211C45.82 16.0642 44.805 19.1017 44.515 19.8319C46.4 21.9057 47.502 24.5051 47.502 27.7472C47.502 38.9045 40.716 41.3579 34.249 42.0881C35.293 42.9935 36.25 44.7752 36.25 47.4915V55.4944C36.25 56.283 36.714 57.2176 38.193 56.9548C49.706 53.0409 58 42.1173 58 29.2076C58 25.372 57.2499 21.5739 55.7925 18.0303C54.3351 14.4867 52.199 11.2669 49.5061 8.5547C46.8132 5.84253 43.6163 3.69111 40.0978 2.22329C36.5794 0.755476 32.8083 0 29 0Z" fill="white"/>
</svg>
