<svg width="58" height="44" viewBox="0 0 58 44" fill="white" xmlns="http://www.w3.org/2000/svg">
<path d="M48.5136 1.45499L44.8029 4.37103L29.0036 16.181L13.2043 4.25439L9.49361 1.33835C8.61944 0.610933 7.55232 0.157474 6.42445 0.0341551C5.29658 -0.0891641 4.15752 0.123076 3.14839 0.644581C2.13927 1.16609 1.30442 1.97394 0.747278 2.96805C0.190137 3.96217 -0.0648123 5.09886 0.0140147 6.2373V40.0342C0.0140147 41.086 0.429393 42.0947 1.16877 42.8384C1.90815 43.5822 2.91096 44 3.9566 44H13.2043V21.4882L29.0036 33.4148L44.8029 21.4882V44H54.0506C55.0962 44 56.0991 43.5822 56.8384 42.8384C57.5778 42.0947 57.9932 41.086 57.9932 40.0342V6.2373C58.0476 5.10868 57.7749 3.98846 57.2083 3.01281C56.6417 2.03716 55.8055 1.24809 54.8013 0.741529C53.7972 0.234967 52.6684 0.0327242 51.5522 0.159384C50.4359 0.286044 49.3803 0.736152 48.5136 1.45499Z" fill="white"/>
</svg>
